STARTFONT 2.1
COMMENT
COMMENT Converted from OpenType font "FreeSansBold.ttf" by "otf2bdf.exe 3.0".
COMMENT
FONT -FreeType-FreeSans-Bold-R-Normal--55-400-100-100-P-317-ISO10646-1
SIZE 40 100 100
FONTBOUNDINGBOX 121 70 -35 -16
STARTPROPERTIES 19
FOUNDRY "FreeType"
FAMILY_NAME "FreeSans"
WEIGHT_NAME "Bold"
SLANT "R"
SETWIDTH_NAME "Normal"
ADD_STYLE_NAME ""
PIXEL_SIZE 55
POINT_SIZE 400
RESOLUTION_X 100
RESOLUTION_Y 100
SPACING "P"
AVERAGE_WIDTH 317
CHARSET_REGISTRY "ISO10646"
CHARSET_ENCODING "1"
FONT_ASCENT 65
FONT_DESCENT 25
COPYRIGHT "Copyleft 2002, 2003, 2005 Free Software Foundation."
_OTF_FONTFILE "FreeSansBold.ttf"
_OTF_PSNAME "FreeSansBold"
ENDPROPERTIES
CHARS 1730
STARTCHAR 0020
ENCODING 32
SWIDTH 270 0
DWIDTH 15 0
BBX 0 0 0 0
BITMAP
ENDCHAR
STARTCHAR 0021
ENCODING 33
SWIDTH 324 0
DWIDTH 18 0
BBX 8 41 6 0
BITMAP
FF
FF
FF
FF
FF
FF
FF
FF
FF
FF
FF
FF
FF
FF
FE
FE
7E
7E
7E
7E
7E
7E
7C
7C
3C
3C
3C
3C
3C
00
00
00
00
FF
FF
FF
FF
FF
FF
FF
FF
ENDCHAR
STARTCHAR 0022
ENCODING 34
SWIDTH 486 0
DWIDTH 27 0
BBX 21 15 3 26
BITMAP
FF07F8
FF07F8
FF07F8
FF07F8
FF07F8
FF07F8
FF07F8
FF07F8
FE07F0
7E03F0
7E03F0
7E03F0
7C01E0
3C01E0
3C01E0
ENDCHAR
STARTCHAR 0023
ENCODING 35
SWIDTH 558 0
DWIDTH 31 0
BBX 31 42 0 -2
BITMAP
003F07E0
003F07E0
003E07E0
003E07E0
007E07C0
007E0FC0
007E0FC0
007E0FC0
007C0FC0
007C0F80
3FFFFFFE
3FFFFFFE
3FFFFFFE
3FFFFFFE
3FFFFFFE
3FFFFFFE
01F83F00
01F83F00
01F83F00
01F03F00
03F03E00
03F07E00
03F07E00
03F07E00
FFFFFFF0
FFFFFFF0
FFFFFFF0
FFFFFFF0
FFFFFFF0
FFFFFFF0
07C0FC00
0FC0F800
0FC1F800
0FC1F800
0FC1F800
0F81F800
1F81F000
1F83F000
1F83F000
1F83F000
1F03F000
3F03E000
ENDCHAR
STARTCHAR 0024
ENCODING 36
SWIDTH 558 0
DWIDTH 31 0
BBX 28 50 1 -7
BITMAP
000F0000
000F0000
000F0000
007FE000
01FFFC00
07FFFE00
0FFFFF00
1FFFFF80
3FFFFF80
3FCF3FC0
7F8F1FC0
7F0F1FE0
7F0F0FE0
7F0F0FE0
7F0F0FE0
7F0F0000
7F8F0000
7F8F0000
3FEF0000
3FFF0000
1FFFC000
0FFFF000
07FFFC00
03FFFF00
00FFFF80
003FFFC0
000FFFE0
000F7FE0
000F1FF0
000F1FF0
000F0FF0
FF0F0FF0
FF0F0FF0
FF0F0FF0
FF0F0FF0
7F8F0FF0
7F8F1FE0
7FEF7FE0
3FFFFFC0
1FFFFFC0
0FFFFF80
07FFFE00
01FFFC00
007FE000
000F0000
000F0000
000F0000
000F0000
000F0000
000F0000
ENDCHAR
STARTCHAR 0025
ENCODING 37
SWIDTH 882 0
DWIDTH 49 0
BBX 46 41 1 0
BITMAP
00000000F000
03F80000F000
0FFF0001E000
1FFF8001E000
3FFFC003C000
7FFFE003C000
7F07E0078000
FE03F00F8000
FC01F00F0000
FC01F01E0000
FC01F01E0000
FC01F03C0000
FC03F03C0000
FE03F0780000
7F07E0780000
7FFFE0F00000
3FFFC0F00000
1FFFC1E00000
0FFF81E00000
07FE03C00000
01F803C07F00
00000781FFC0
00000F83FFE0
00000F07FFF0
00001F07FFF0
00001E0FE3F8
00003C0F80F8
00003C1F80FC
0000781F007C
0000781F007C
0000F01F007C
0000F01F007C
0001E01F80FC
0001E01F80FC
0003C00FE3F8
0003C00FFFF8
0007800FFFF0
00078007FFF0
000F0003FFE0
001F0001FF80
001E00007E00
ENDCHAR
STARTCHAR 0026
ENCODING 38
SWIDTH 720 0
DWIDTH 40 0
BBX 35 42 3 -1
BITMAP
000FE00000
007FF80000
00FFFC0000
01FFFE0000
03FFFF0000
07FFFF0000
07FCFF8000
0FF07F8000
0FF03F8000
0FF03F8000
0FF03F8000
0FF83F8000
07F87F0000
07FCFF0000
03FFFE0000
03FFFC0000
01FFF80000
00FFF00000
007FE00000
01FFE00000
07FFE03F00
0FFFF03F00
1FFFF83F00
3FF7FC3F00
7FC3FE3F00
7F81FF7F00
FF01FFFE00
FF00FFFE00
FF007FFE00
FF003FFC00
FF001FFC00
FF001FF800
FF800FF800
FF801FF800
7FC07FFC00
7FFBFFFE00
3FFFFFFF00
3FFFFFFF00
1FFFFE7F80
07FFFC3FC0
03FFF03FE0
007FC00000
ENDCHAR
STARTCHAR 0027
ENCODING 39
SWIDTH 252 0
DWIDTH 14 0
BBX 8 15 3 26
BITMAP
FF
FF
FF
FF
FF
FF
FF
FF
FE
7E
7E
7E
7C
3C
3C
ENDCHAR
STARTCHAR 0028
ENCODING 40
SWIDTH 324 0
DWIDTH 18 0
BBX 15 52 2 -11
BITMAP
007E
00FC
00FC
01F8
03F8
03F0
07F0
07E0
0FE0
0FC0
1FC0
1FC0
3F80
3F80
3F80
7F00
7F00
7F00
7F00
7E00
FE00
FE00
FE00
FE00
FE00
FE00
FE00
FE00
FE00
FE00
FE00
FE00
7E00
7F00
7F00
7F00
7F00
3F80
3F80
3F80
1FC0
1FC0
0FC0
0FE0
07E0
07F0
03F0
03F8
01F8
00F8
00FC
007E
ENDCHAR
STARTCHAR 0029
ENCODING 41
SWIDTH 342 0
DWIDTH 19 0
BBX 15 52 1 -11
BITMAP
FC00
7E00
7E00
3F00
3F80
1F80
1FC0
0FC0
0FE0
07E0
07F0
07F0
03F0
03F8
03F8
01F8
01FC
01FC
01FC
01FC
00FE
00FE
00FE
00FE
00FE
00FE
00FE
00FE
00FE
00FE
00FE
00FE
01FC
01FC
01FC
01FC
01F8
03F8
03F8
03F0
07F0
07F0
07E0
0FE0
0FC0
1FC0
1F80
3F80
3F00
7E00
7E00
FC00
ENDCHAR
STARTCHAR 002A
ENCODING 42
SWIDTH 396 0
DWIDTH 22 0
BBX 18 18 2 22
BITMAP
01E000
01E000
01E000
01E000
01E000
71E380
FFFFC0
FFFFC0
FFFFC0
1FFE00
03F000
07F800
0FFC00
0FFC00
1F3E00
3E1F00
1C0E00
0C0C00
ENDCHAR
STARTCHAR 002B
ENCODING 43
SWIDTH 594 0
DWIDTH 33 0
BBX 27 27 3 -1
BITMAP
003F8000
003F8000
003F8000
003F8000
003F8000
003F8000
003F8000
003F8000
003F8000
003F8000
FFFFFFE0
FFFFFFE0
FFFFFFE0
FFFFFFE0
FFFFFFE0
FFFFFFE0
003F8000
003F8000
003F8000
003F8000
003F8000
003F8000
003F8000
003F8000
003F8000
003F8000
003F8000
ENDCHAR
STARTCHAR 002C
ENCODING 44
SWIDTH 288 0
DWIDTH 16 0
BBX 9 18 3 -10
BITMAP
FF80
FF80
FF80
FF80
FF80
FF80
FF80
FF80
0780
0780
0780
0F80
0F00
1F00
7E00
FC00
F800
C000
ENDCHAR
STARTCHAR 002D
ENCODING 45
SWIDTH 324 0
DWIDTH 18 0
BBX 15 8 1 12
BITMAP
FFFE
FFFE
FFFE
FFFE
FFFE
FFFE
FFFE
FFFE
ENDCHAR
STARTCHAR 002E
ENCODING 46
SWIDTH 270 0
DWIDTH 15 0
BBX 8 8 4 0
BITMAP
FF
FF
FF
FF
FF
FF
FF
FF
ENDCHAR
STARTCHAR 002F
ENCODING 47
SWIDTH 270 0
DWIDTH 15 0
BBX 15 41 0 -1
BITMAP
001E
001E
001E
001C
003C
003C
0038
0078
0078
0078
0070
00F0
00F0
00F0
01E0
01E0
01E0
01C0
03C0
03C0
03C0
0380
0780
0780
0700
0F00
0F00
0F00
0E00
1E00
1E00
1C00
3C00
3C00
3C00
3800
7800
7800
7800
7000
F000
ENDCHAR
STARTCHAR 0030
ENCODING 48
SWIDTH 558 0
DWIDTH 31 0
BBX 27 42 2 -1
BITMAP
003F8000
01FFF000
03FFF800
07FFFC00
0FFFFE00
1FFFFF00
3FFBFF80
3FC07F80
3FC07F80
7F803FC0
7F803FC0
7F803FC0
7F001FC0
FF001FE0
FF001FE0
FF001FE0
FF001FE0
FF001FE0
FF001FE0
FF001FE0
FF001FE0
FF001FE0
FF001FE0
FF001FE0
FF001FE0
FF001FE0
FF001FE0
FF001FE0
FF001FE0
7F001FC0
7F801FC0
7F803FC0
7F803FC0
3FC03F80
3FC07F80
1FFBFF00
1FFFFF00
0FFFFE00
07FFFC00
03FFF800
01FFF000
003F8000
ENDCHAR
STARTCHAR 0031
ENCODING 49
SWIDTH 558 0
DWIDTH 31 0
BBX 17 40 4 1
BITMAP
001F80
001F80
003F80
003F80
007F80
01FF80
0FFF80
FFFF80
FFFF80
FFFF80
FFFF80
FFFF80
007F80
007F80
007F80
007F80
007F80
007F80
007F80
007F80
007F80
007F80
007F80
007F80
007F80
007F80
007F80
007F80
007F80
007F80
007F80
007F80
007F80
007F80
007F80
007F80
007F80
007F80
007F80
007F80
ENDCHAR
STARTCHAR 0032
ENCODING 50
SWIDTH 558 0
DWIDTH 31 0
BBX 27 41 2 0
BITMAP
007F8000
03FFF000
07FFFC00
0FFFFE00
1FFFFF00
3FFFFF80
3FFBFF80
7FC07FC0
7F803FC0
7F803FC0
FF001FE0
FF001FE0
FF001FE0
FF001FE0
FF001FE0
00001FE0
00003FC0
00003FC0
00007FC0
0000FF80
0001FF00
0003FF00
0007FE00
000FFC00
003FF800
007FE000
00FFC000
03FF8000
07FE0000
0FFC0000
1FF80000
3FF00000
3FE00000
7FC00000
7FFFFFE0
7FFFFFE0
FFFFFFE0
FFFFFFE0
FFFFFFE0
FFFFFFE0
FFFFFFE0
ENDCHAR
STARTCHAR 0033
ENCODING 51
SWIDTH 558 0
DWIDTH 31 0
BBX 27 42 2 -1
BITMAP
007F8000
03FFF000
0FFFFC00
1FFFFE00
3FFFFF00
3FFFFF00
7FF3FF80
7FC0FF80
7F807F80
FF003FC0
FF003FC0
FF003FC0
FF003FC0
00003F80
00003F80
00007F80
0000FF00
0003FE00
003FFC00
003FF800
003FFC00
003FFF00
003FFF80
0001FF80
00007FC0
00003FC0
00001FE0
00001FE0
00001FE0
FF001FE0
FF001FE0
FF001FE0
FF001FE0
7F803FC0
7FC07FC0
7FF1FFC0
3FFFFF80
1FFFFF00
1FFFFE00
07FFFC00
03FFF000
007FC000
ENDCHAR
STARTCHAR 0034
ENCODING 52
SWIDTH 558 0
DWIDTH 31 0
BBX 28 40 1 0
BITMAP
0003FF00
0003FF00
0007FF00
000FFF00
000FFF00
001FFF00
001FFF00
003FFF00
003EFF00
007EFF00
00FCFF00
00FCFF00
01F8FF00
01F0FF00
03F0FF00
07E0FF00
07E0FF00
0FC0FF00
0F80FF00
1F80FF00
3F00FF00
3F00FF00
7E00FF00
7C00FF00
FC00FF00
FFFFFFF0
FFFFFFF0
FFFFFFF0
FFFFFFF0
FFFFFFF0
FFFFFFF0
0000FF00
0000FF00
0000FF00
0000FF00
0000FF00
0000FF00
0000FF00
0000FF00
0000FF00
ENDCHAR
STARTCHAR 0035
ENCODING 53
SWIDTH 558 0
DWIDTH 31 0
BBX 27 41 2 -1
BITMAP
0FFFFFC0
0FFFFFC0
0FFFFFC0
0FFFFFC0
0FFFFFC0
0FFFFFC0
0FFFFFC0
1F800000
1F800000
1F800000
1F800000
1F800000
1F000000
3F3FF000
3F7FFC00
3FFFFE00
3FFFFF00
3FFFFF80
3FFFFF80
3FE1FFC0
7F807FC0
7F003FC0
00003FE0
00001FE0
00001FE0
00001FE0
00001FE0
00001FE0
00001FE0
00001FE0
FF001FE0
FF003FC0
FF003FC0
7F807FC0
7FF3FF80
3FFFFF00
3FFFFF00
1FFFFE00
0FFFFC00
03FFF000
007F8000
ENDCHAR
STARTCHAR 0036
ENCODING 54
SWIDTH 558 0
DWIDTH 31 0
BBX 27 42 2 -1
BITMAP
001FC000
00FFF800
03FFFC00
07FFFE00
0FFFFF00
0FFFFF80
1FF9FF80
3FE07FC0
3FC03FC0
3F801FC0
7F800000
7F000000
7F000000
7F000000
FF000000
FF1FF000
FF3FFC00
FFFFFE00
FFFFFF00
FFFFFF80
FFFFFF80
FFE0FFC0
FFC07FC0
FF803FC0
FF801FE0
FF001FE0
FF001FE0
FF001FE0
FF001FE0
FF001FE0
FF001FE0
7F001FE0
7F803FC0
7F803FC0
3FC07FC0
3FF9FF80
1FFFFF80
1FFFFF00
0FFFFE00
03FFFC00
01FFF000
003FC000
ENDCHAR
STARTCHAR 0037
ENCODING 55
SWIDTH 576 0
DWIDTH 32 0
BBX 28 40 2 0
BITMAP
FFFFFFF0
FFFFFFF0
FFFFFFF0
FFFFFFF0
FFFFFFF0
FFFFFFF0
FFFFFFF0
00001FE0
00001FC0
00003F80
00007F80
0000FF00
0000FE00
0001FE00
0003FC00
0003F800
0007F800
0007F000
000FF000
001FE000
001FE000
001FC000
003FC000
003F8000
007F8000
007F0000
007F0000
00FF0000
00FE0000
00FE0000
01FE0000
01FE0000
01FE0000
01FC0000
01FC0000
03FC0000
03FC0000
03FC0000
03FC0000
03FC0000
ENDCHAR
STARTCHAR 0038
ENCODING 56
SWIDTH 540 0
DWIDTH 30 0
BBX 28 42 1 -1
BITMAP
003FC000
01FFF800
07FFFE00
0FFFFF00
1FFFFF80
3FFFFFC0
3FF9FFC0
3FC03FE0
7F801FE0
7F000FE0
7F000FE0
7F000FE0
7F000FE0
7F000FE0
3F801FC0
3FC03FC0
1FE07F80
0FFFFF00
07FFFE00
07FFFC00
0FFFFF00
1FFFFF80
3FE0FFC0
7FC03FE0
7F801FE0
FF001FE0
FF000FF0
FF000FF0
FF000FF0
FF000FF0
FF000FF0
FF000FF0
FF001FE0
7F801FE0
7FC03FE0
7FF9FFC0
3FFFFFC0
1FFFFF80
0FFFFF00
07FFFE00
01FFF800
007FC000
ENDCHAR
STARTCHAR 0039
ENCODING 57
SWIDTH 558 0
DWIDTH 31 0
BBX 27 42 2 -1
BITMAP
007F8000
01FFE000
07FFF800
0FFFFC00
1FFFFE00
3FFFFF00
3FF3FF00
7FC07F80
7F803F80
FF803FC0
FF001FC0
FF001FC0
FF001FC0
FF001FC0
FF001FE0
FF001FE0
FF001FE0
FF001FE0
7F803FE0
7FC07FE0
7FE0FFE0
3FFFFFE0
3FFFFFE0
1FFFFFE0
0FFFDFE0
07FF9FE0
01FF1FE0
00001FC0
00001FC0
00001FC0
00003FC0
00003FC0
FF003F80
FF007F80
7F80FF00
7FE3FF00
7FFFFE00
3FFFFC00
1FFFFC00
0FFFF000
03FFE000
00FF0000
ENDCHAR
STARTCHAR 003A
ENCODING 58
SWIDTH 324 0
DWIDTH 18 0
BBX 8 29 6 0
BITMAP
FF
FF
FF
FF
FF
FF
FF
FF
00
00
00
00
00
00
00
00
00
00
00
00
00
FF
FF
FF
FF
FF
FF
FF
FF
ENDCHAR
STARTCHAR 003B
ENCODING 59
SWIDTH 342 0
DWIDTH 19 0
BBX 9 39 6 -10
BITMAP
FF80
FF80
FF80
FF80
FF80
FF80
FF80
FF80
0000
0000
0000
0000
0000
0000
0000
0000
0000
0000
0000
0000
0000
FF80
FF80
FF80
FF80
FF80
FF80
FF80
FF80
0780
0780
0780
0F80
0F00
1F00
7E00
FC00
F800
C000
ENDCHAR
STARTCHAR 003C
ENCODING 60
SWIDTH 576 0
DWIDTH 32 0
BBX 27 27 2 -1
BITMAP
00000020
000000E0
000007E0
00003FE0
0000FFE0
0007FFE0
003FFFE0
00FFFF00
07FFF800
3FFFC000
FFFE0000
FFF80000
FFC00000
FE000000
FF000000
FFC00000
FFF80000
7FFF0000
1FFFE000
03FFFC00
00FFFF80
001FFFE0
0003FFE0
0000FFE0
00001FE0
000003E0
000000E0
ENDCHAR
STARTCHAR 003D
ENCODING 61
SWIDTH 594 0
DWIDTH 33 0
BBX 27 20 3 3
BITMAP
FFFFFFE0
FFFFFFE0
FFFFFFE0
FFFFFFE0
FFFFFFE0
FFFFFFE0
00000000
00000000
00000000
00000000
00000000
00000000
00000000
00000000
FFFFFFE0
FFFFFFE0
FFFFFFE0
FFFFFFE0
FFFFFFE0
FFFFFFE0
ENDCHAR
STARTCHAR 003E
ENCODING 62
SWIDTH 576 0
DWIDTH 32 0
BBX 27 27 2 -1
BITMAP
80000000
E0000000
FC000000
FF800000
FFE00000
FFFC0000
FFFF0000
1FFFE000
03FFFC00
007FFF00
001FFFE0
0003FFE0
00007FE0
00000FE0
00001FE0
00007FE0
0003FFE0
001FFFE0
00FFFF00
07FFF800
1FFFE000
FFFF0000
FFF80000
FFE00000
FF000000
F8000000
E0000000
ENDCHAR
STARTCHAR 003F
ENCODING 63
SWIDTH 612 0
DWIDTH 34 0
BBX 27 41 4 1
BITMAP
01FFE000
07FFF800
0FFFFE00
1FFFFF00
3FFFFF80
3FFFFF80
7FE0FFC0
7FC07FC0
7F803FE0
FF801FE0
FF001FE0
FF001FE0
FF001FE0
FF001FE0
00001FE0
00001FE0
00003FC0
00007FC0
0000FF80
0001FF80
0003FF00
0007FE00
000FF800
001FF000
001FE000
001FC000
003F8000
003F8000
003F8000
003F8000
00000000
00000000
00000000
003FC000
003FC000
003FC000
003FC000
003FC000
003FC000
003FC000
003FC000
ENDCHAR
STARTCHAR 0040
ENCODING 64
SWIDTH 972 0
DWIDTH 54 0
BBX 51 49 1 -7
BITMAP
00000FFFE00000
00007FFFF80000
0003FFFFFE0000
0007FFFFFF8000
001FF0007FE000
003F80000FF000
007F000003F800
00FC000001FC00
01F8000000FE00
03F00000007E00
07E00000003F00
07C00000001F80
0F8001FC3E0F80
1F8007FE3E0FC0
1F000FFF3C07C0
3E003FFFFC07C0
3E007F07FC03C0
3E007E03FC03E0
7C00FC01F803E0
7C01F801F803E0
7C01F001F803E0
F801E001F803E0
F803E001F003E0
F803E001F003E0
F803C001F007E0
F807C001E007E0
F807C003E007C0
F807C003E00FC0
F807C007E01FC0
F807C007C01F80
F807E00FC03F80
7C07F01FC07F00
7C03F87FE1FE00
7C03FFFFFFFC00
7E01FFF9FFF800
3E00FFF1FFF000
3F007FE0FFC000
1F801F803F0000
1FC00000000000
0FE00000000000
07F00000000000
03F80000000000
01FE0000000000
00FF8000380000
007FF001FC0000
001FFFFFFC0000
0007FFFFFC0000
0001FFFFF00000
00001FFF000000
ENDCHAR
STARTCHAR 0041
ENCODING 65
SWIDTH 720 0
DWIDTH 40 0
BBX 37 41 2 0
BITMAP
0003FE0000
0007FF0000
0007FF0000
0007FF0000
000FFF8000
000FFF8000
000FFF8000
001FFFC000
001FFFC000
003FFFC000
003FDFE000
003FDFE000
007F9FE000
007F8FF000
007F8FF000
00FF0FF000
00FF0FF800
00FF07F800
01FE07F800
01FE07FC00
01FE03FC00
03FC03FC00
03FC03FE00
03FC01FE00
07FC01FE00
07F801FF00
07FFFFFF00
0FFFFFFF00
0FFFFFFF80
1FFFFFFF80
1FFFFFFF80
1FFFFFFFC0
3FFFFFFFC0
3FE0003FE0
3FC0003FE0
7FC0001FE0
7FC0001FF0
7F80001FF0
FF80000FF0
FF00000FF8
FF00000FF8
ENDCHAR
STARTCHAR 0042
ENCODING 66
SWIDTH 720 0
DWIDTH 40 0
BBX 32 41 5 0
BITMAP
FFFFFC00
FFFFFF80
FFFFFFE0
FFFFFFF0
FFFFFFF8
FFFFFFFC
FFFFFFFC
FF000FFC
FF0003FE
FF0001FE
FF0001FE
FF0001FE
FF0001FE
FF0001FE
FF0003FC
FF0007F8
FFFFFFF8
FFFFFFE0
FFFFFFC0
FFFFFFC0
FFFFFFF0
FFFFFFF8
FFFFFFFC
FF0007FC
FF0001FE
FF0000FE
FF0000FF
FF0000FF
FF0000FF
FF0000FF
FF0000FF
FF0000FF
FF0001FF
FF0007FE
FFFFFFFE
FFFFFFFC
FFFFFFFC
FFFFFFF8
FFFFFFE0
FFFFFFC0
FFFFFE00
ENDCHAR
STARTCHAR 0043
ENCODING 67
SWIDTH 720 0
DWIDTH 40 0
BBX 35 43 3 -1
BITMAP
0000400000
001FFF8000
007FFFE000
01FFFFF800
03FFFFFC00
07FFFFFE00
0FFFFFFF00
1FFFFFFF80
1FFC01FF80
3FF000FFC0
3FE0007FC0
7FC0003FC0
7FC0003FE0
7F80001FE0
7F80000000
FF80000000
FF00000000
FF00000000
FF00000000
FF00000000
FF00000000
FF00000000
FF00000000
FF00000000
FF00000000
FF00000000
FF00000000
FF00000000
FF80001FE0
7F80001FE0
7F80003FE0
7FC0003FE0
3FE0007FC0
3FF0007FC0
1FF800FFC0
1FFE07FF80
0FFFFFFF00
07FFFFFE00
03FFFFFE00
01FFFFF800
00FFFFF000
003FFFC000
0007FE0000
ENDCHAR
STARTCHAR 0044
ENCODING 68
SWIDTH 720 0
DWIDTH 40 0
BBX 33 41 4 0
BITMAP
FFFFF80000
FFFFFF0000
FFFFFFC000
FFFFFFE000
FFFFFFF000
FFFFFFF800
FFFFFFFC00
FF003FFE00
FF0007FE00
FF0003FE00
FF0001FF00
FF0000FF00
FF0000FF00
FF0000FF80
FF00007F80
FF00007F80
FF00007F80
FF00007F80
FF00007F80
FF00007F80
FF00007F80
FF00007F80
FF00007F80
FF00007F80
FF00007F80
FF00007F80
FF00007F80
FF0000FF00
FF0000FF00
FF0001FF00
FF0001FF00
FF0003FE00
FF0007FE00
FF001FFC00
FFFFFFFC00
FFFFFFF800
FFFFFFF000
FFFFFFE000
FFFFFFC000
FFFFFF0000
FFFFF80000
ENDCHAR
STARTCHAR 0045
ENCODING 69
SWIDTH 648 0
DWIDTH 36 0
BBX 30 41 4 0
BITMAP
FFFFFFF8
FFFFFFF8
FFFFFFF8
FFFFFFF8
FFFFFFF8
FFFFFFF8
FFFFFFF8
FF000000
FF000000
FF000000
FF000000
FF000000
FF000000
FF000000
FF000000
FF000000
FFFFFFE0
FFFFFFE0
FFFFFFE0
FFFFFFE0
FFFFFFE0
FFFFFFE0
FFFFFFE0
FF000000
FF000000
FF000000
FF000000
FF000000
FF000000
FF000000
FF000000
FF000000
FF000000
FF000000
FFFFFFFC
FFFFFFFC
FFFFFFFC
FFFFFFFC
FFFFFFFC
FFFFFFFC
FFFFFFFC
ENDCHAR
STARTCHAR 0046
ENCODING 70
SWIDTH 594 0
DWIDTH 33 0
BBX 28 41 4 0
BITMAP
FFFFFFF0
FFFFFFF0
FFFFFFF0
FFFFFFF0
FFFFFFF0
FFFFFFF0
FFFFFFF0
FF000000
FF000000
FF000000
FF000000
FF000000
FF000000
FF000000
FF000000
FF000000
FFFFFF80
FFFFFF80
FFFFFF80
FFFFFF80
FFFFFF80
FFFFFF80
FFFFFF80
FF000000
FF000000
FF000000
FF000000
FF000000
FF000000
FF000000
FF000000
FF000000
FF000000
FF000000
FF000000
FF000000
FF000000
FF000000
FF000000
FF000000
FF000000
ENDCHAR
STARTCHAR 0047
ENCODING 71
SWIDTH 774 0
DWIDTH 43 0
BBX 37 42 2 0
BITMAP
0007FFC000
003FFFF800
007FFFFE00
01FFFFFF00
03FFFFFF80
07FFFFFFC0
0FFFFFFFE0
0FFFEFFFE0
1FFC007FF0
3FF8001FF0
3FE0000FF0
3FE0000FF8
7FC00007F8
7F80000000
7F80000000
FF80000000
FF00000000
FF00000000
FF00000000
FF0007FFF8
FF0007FFF8
FF0007FFF8
FF0007FFF8
FF0007FFF8
FF0007FFF8
FF0007FFF8
7F000003F8
7F800003F8
7F800007F8
7FC00007F8
3FC00007F8
3FE0000FF8
1FF0001FF8
1FFC007FF8
0FFF01FFF8
07FFFFFFF8
03FFFFFDF8
01FFFFFDF8
00FFFFF8F8
003FFFE0F8
001FFFC0F8
0001FE0000
ENDCHAR
STARTCHAR 0048
ENCODING 72
SWIDTH 738 0
DWIDTH 41 0
BBX 33 41 4 0
BITMAP
FF00007F80
FF00007F80
FF00007F80
FF00007F80
FF00007F80
FF00007F80
FF00007F80
FF00007F80
FF00007F80
FF00007F80
FF00007F80
FF00007F80
FF00007F80
FF00007F80
FF00007F80
FFFFFFFF80
FFFFFFFF80
FFFFFFFF80
FFFFFFFF80
FFFFFFFF80
FFFFFFFF80
FFFFFFFF80
FF00007F80
FF00007F80
FF00007F80
FF00007F80
FF00007F80
FF00007F80
FF00007F80
FF00007F80
FF00007F80
FF00007F80
FF00007F80
FF00007F80
FF00007F80
FF00007F80
FF00007F80
FF00007F80
FF00007F80
FF00007F80
FF00007F80
ENDCHAR
STARTCHAR 0049
ENCODING 73
SWIDTH 252 0
DWIDTH 14 0
BBX 8 41 3 0
BITMAP
FF
FF
FF
FF
FF
FF
FF
FF
FF
FF
FF
FF
FF
FF
FF
FF
FF
FF
FF
FF
FF
FF
FF
FF
FF
FF
FF
FF
FF
FF
FF
FF
FF
FF
FF
FF
FF
FF
FF
FF
FF
ENDCHAR
STARTCHAR 004A
ENCODING 74
SWIDTH 558 0
DWIDTH 31 0
BBX 26 42 1 -1
BITMAP
00003FC0
00003FC0
00003FC0
00003FC0
00003FC0
00003FC0
00003FC0
00003FC0
00003FC0
00003FC0
00003FC0
00003FC0
00003FC0
00003FC0
00003FC0
00003FC0
00003FC0
00003FC0
00003FC0
00003FC0
00003FC0
00003FC0
00003FC0
00003FC0
00003FC0
00003FC0
FF003FC0
FF003FC0
FF003FC0
FF003FC0
FF003FC0
FF003FC0
FF003FC0
FF807FC0
7FC0FF80
7FFFFF80
3FFFFF80
3FFFFF00
1FFFFE00
0FFFFC00
03FFF000
007F8000
ENDCHAR
STARTCHAR 004B
ENCODING 75
SWIDTH 702 0
DWIDTH 39 0
BBX 35 41 4 0
BITMAP
FF0001FF80
FF0003FF00
FF0007FE00
FF000FFC00
FF000FF800
FF001FF000
FF003FF000
FF007FE000
FF00FFC000
FF01FF8000
FF03FF0000
FF07FE0000
FF07FC0000
FF0FF80000
FF1FF00000
FF3FE00000
FF7FC00000
FFFF800000
FFFFC00000
FFFFE00000
FFFFE00000
FFFFF00000
FFFFF80000
FFEFFC0000
FFC7FE0000
FF83FE0000
FF81FF0000
FF01FF8000
FF00FFC000
FF007FC000
FF003FE000
FF003FF000
FF001FF800
FF000FF800
FF000FFC00
FF0007FE00
FF0003FF00
FF0001FF00
FF0001FF80
FF0000FFC0
FF00007FE0
ENDCHAR
STARTCHAR 004C
ENCODING 76
SWIDTH 594 0
DWIDTH 33 0
BBX 27 41 4 0
BITMAP
FF000000
FF000000
FF000000
FF000000
FF000000
FF000000
FF000000
FF000000
FF000000
FF000000
FF000000
FF000000
FF000000
FF000000
FF000000
FF000000
FF000000
FF000000
FF000000
FF000000
FF000000
FF000000
FF000000
FF000000
FF000000
FF000000
FF000000
FF000000
FF000000
FF000000
FF000000
FF000000
FF000000
FF000000
FFFFFFE0
FFFFFFE0
FFFFFFE0
FFFFFFE0
FFFFFFE0
FFFFFFE0
FFFFFFE0
ENDCHAR
STARTCHAR 004D
ENCODING 77
SWIDTH 828 0
DWIDTH 46 0
BBX 39 41 4 0
BITMAP
FFF0001FFE
FFF0001FFE
FFF8003FFE
FFF8003FFE
FFF8003FFE
FFF8003FFE
FFFC007FFE
FFFC007FFE
FFFC007FFE
FFFC007FFE
FFFC00FFFE
FFFE00FFFE
FF7E00FDFE
FF7E00FDFE
FF7E00FDFE
FF7F01FDFE
FF3F01FDFE
FF3F01F9FE
FF3F01F9FE
FF3F83F9FE
FF3F83F9FE
FF1F83F1FE
FF1F83F1FE
FF1F83F1FE
FF1FC7F1FE
FF0FC7E1FE
FF0FC7E1FE
FF0FC7E1FE
FF0FEFE1FE
FF07EFE1FE
FF07EFC1FE
FF07EFC1FE
FF07FFC1FE
FF03FFC1FE
FF03FF81FE
FF03FF81FE
FF03FF81FE
FF03FF81FE
FF01FF01FE
FF01FF01FE
FF01FF01FE
ENDCHAR
STARTCHAR 004E
ENCODING 78
SWIDTH 720 0
DWIDTH 40 0
BBX 33 41 4 0
BITMAP
FF00007F80
FF80007F80
FFC0007F80
FFC0007F80
FFE0007F80
FFE0007F80
FFF0007F80
FFF8007F80
FFF8007F80
FFFC007F80
FFFC007F80
FFFE007F80
FFFF007F80
FFFF007F80
FF7F807F80
FF3F807F80
FF3FC07F80
FF1FE07F80
FF1FE07F80
FF0FF07F80
FF07F07F80
FF07F87F80
FF03FC7F80
FF03FC7F80
FF01FE7F80
FF00FF7F80
FF00FF7F80
FF007FFF80
FF007FFF80
FF003FFF80
FF001FFF80
FF001FFF80
FF000FFF80
FF000FFF80
FF0007FF80
FF0003FF80
FF0003FF80
FF0001FF80
FF0001FF80
FF0000FF80
FF00007F80
ENDCHAR
STARTCHAR 004F
ENCODING 79
SWIDTH 774 0
DWIDTH 43 0
BBX 39 42 2 0
BITMAP
0007FFC000
003FFFF000
00FFFFFC00
01FFFFFE00
03FFFFFF80
07FFFFFFC0
0FFFFFFFC0
1FFE00FFE0
1FF8003FF0
3FF0001FF0
3FE0000FF8
7FC00007F8
7FC00007FC
7F800003FC
7F800003FC
FF000003FC
FF000001FC
FF000001FE
FF000001FE
FF000001FE
FF000001FE
FF000001FE
FF000001FE
FF000001FE
FF000001FE
FF000003FC
7F800003FC
7F800003FC
7F800007FC
7FC00007F8
3FC0000FF8
3FE0001FF8
1FF0003FF0
1FFC007FF0
0FFF01FFE0
07FFFFFFC0
03FFFFFF80
01FFFFFF00
00FFFFFE00
003FFFFC00
000FFFF000
0001FF0000
ENDCHAR
STARTCHAR 0050
ENCODING 80
SWIDTH 666 0
DWIDTH 37 0
BBX 31 41 4 0
BITMAP
FFFFFC00
FFFFFF80
FFFFFFE0
FFFFFFF0
FFFFFFF0
FFFFFFF8
FFFFFFFC
FF000FFC
FF0007FC
FF0003FE
FF0001FE
FF0001FE
FF0001FE
FF0001FE
FF0001FE
FF0001FE
FF0003FC
FF0007FC
FF001FFC
FFFFFFF8
FFFFFFF8
FFFFFFF0
FFFFFFF0
FFFFFFE0
FFFFFF80
FFFFFE00
FF000000
FF000000
FF000000
FF000000
FF000000
FF000000
FF000000
FF000000
FF000000
FF000000
FF000000
FF000000
FF000000
FF000000
FF000000
ENDCHAR
STARTCHAR 0051
ENCODING 81
SWIDTH 774 0
DWIDTH 43 0
BBX 39 44 2 -2
BITMAP
0007FFC000
003FFFF000
007FFFFC00
01FFFFFE00
03FFFFFF80
07FFFFFFC0
0FFFFFFFC0
0FFE00FFE0
1FF8003FF0
1FF0001FF0
3FE0000FF8
3FC00007F8
7FC00007FC
7F800003FC
7F800003FC
FF000003FC
FF000001FC
FF000001FE
FF000001FE
FF000001FE
FF000001FE
FF000001FE
FF000001FE
FF000001FE
FF000001FE
FF000081FC
7F8001C3FC
7F8003E3FC
7F8007F3FC
7FC00FFFF8
3FC007FFF8
3FE003FFF8
1FF001FFF0
1FFC00FFF0
0FFF01FFE0
07FFFFFFE0
03FFFFFFF0
01FFFFFFF8
00FFFFFFFC
003FFFFFFE
000FFFF1FC
0001FF80F8
0000000070
0000000020
ENDCHAR
STARTCHAR 0052
ENCODING 82
SWIDTH 702 0
DWIDTH 39 0
BBX 33 41 4 0
BITMAP
FFFFFF8000
FFFFFFE000
FFFFFFF000
FFFFFFF800
FFFFFFFC00
FFFFFFFE00
FFFFFFFE00
FF0003FE00
FF0001FF00
FF0000FF00
FF0000FF00
FF0000FF00
FF0000FF00
FF0000FF00
FF0000FE00
FF0001FE00
FF0001FE00
FF0007FC00
FFFFFFFC00
FFFFFFF800
FFFFFFE000
FFFFFFC000
FFFFFFF000
FFFFFFF800
FFFFFFFC00
FF0007FC00
FF0003FE00
FF0001FE00
FF0001FE00
FF0001FE00
FF0001FE00
FF0001FE00
FF0001FE00
FF0001FE00
FF0001FE00
FF0001FE00
FF0001FE00
FF0001FE00
FF0001FE00
FF0001FF80
FF0000FF80
ENDCHAR
STARTCHAR 0053
ENCODING 83
SWIDTH 666 0
DWIDTH 37 0
BBX 33 42 2 0
BITMAP
007FFE0000
01FFFFC000
07FFFFE000
0FFFFFF800
1FFFFFF800
1FFFFFFC00
3FF00FFE00
3FC003FE00
7F8001FE00
7F8000FF00
7F8000FF00
7F8000FF00
7F80000000
7FC0000000
7FE0000000
7FFC000000
3FFFC00000
3FFFFE0000
1FFFFFC000
0FFFFFF000
07FFFFFC00
01FFFFFE00
001FFFFF00
0001FFFF00
00000FFF00
000001FF80
000000FF80
0000007F80
0000007F80
FF00007F80
FF00007F80
FF00007F80
FF80007F80
7FC000FF00
7FE003FF00
3FFE1FFE00
3FFFFFFE00
1FFFFFFC00
0FFFFFF800
03FFFFE000
00FFFF8000
001FFC0000
ENDCHAR
STARTCHAR 0054
ENCODING 84
SWIDTH 612 0
DWIDTH 34 0
BBX 32 41 1 0
BITMAP
FFFFFFFF
FFFFFFFF
FFFFFFFF
FFFFFFFF
FFFFFFFF
FFFFFFFF
FFFFFFFF
000FF000
000FF000
000FF000
000FF000
000FF000
000FF000
000FF000
000FF000
000FF000
000FF000
000FF000
000FF000
000FF000
000FF000
000FF000
000FF000
000FF000
000FF000
000FF000
000FF000
000FF000
000FF000
000FF000
000FF000
000FF000
000FF000
000FF000
000FF000
000FF000
000FF000
000FF000
000FF000
000FF000
000FF000
ENDCHAR
STARTCHAR 0055
ENCODING 85
SWIDTH 720 0
DWIDTH 40 0
BBX 32 42 4 -1
BITMAP
FF0000FF
FF0000FF
FF0000FF
FF0000FF
FF0000FF
FF0000FF
FF0000FF
FF0000FF
FF0000FF
FF0000FF
FF0000FF
FF0000FF
FF0000FF
FF0000FF
FF0000FF
FF0000FF
FF0000FF
FF0000FF
FF0000FF
FF0000FF
FF0000FF
FF0000FF
FF0000FF
FF0000FF
FF0000FF
FF0000FF
FF0000FF
FF0000FF
FF0000FF
FF0000FF
FF0000FF
FF0001FE
7F8001FE
7FC003FE
7FF00FFC
3FFFFFFC
1FFFFFF8
1FFFFFF0
07FFFFE0
03FFFFC0
00FFFF00
001FF800
ENDCHAR
STARTCHAR 0056
ENCODING 86
SWIDTH 666 0
DWIDTH 37 0
BBX 35 41 1 0
BITMAP
FF80003FE0
7F80003FC0
7F80003FC0
7FC0003FC0
3FC0007F80
3FC0007F80
3FE0007F80
1FE000FF00
1FE000FF00
1FE000FF00
0FF000FE00
0FF001FE00
0FF001FE00
07F801FC00
07F803FC00
07F803FC00
03FC03F800
03FC03F800
03FC07F800
01FC07F000
01FE07F000
01FE0FF000
00FE0FE000
00FF0FE000
00FF0FE000
007F1FC000
007F1FC000
007F9FC000
003FBF8000
003FBF8000
003FFF8000
001FFF0000
001FFF0000
001FFF0000
000FFE0000
000FFE0000
000FFE0000
0007FC0000
0007FC0000
0007FC0000
0003F80000
ENDCHAR
STARTCHAR 0057
ENCODING 87
SWIDTH 936 0
DWIDTH 52 0
BBX 51 41 1 0
BITMAP
FF8007F8003FE0
FF8007FC003FC0
FF8007FC007FC0
7F800FFC007FC0
7F800FFC007FC0
7FC00FFE007F80
3FC00FFE007F80
3FC00FFE00FF80
3FC01FFE00FF00
3FE01FFE00FF00
1FE01FBF00FF00
1FE01FBF00FF00
1FE01FBF01FE00
0FE03F3F01FE00
0FF03F3F01FE00
0FF03F1F81FE00
0FF03F1F81FC00
07F03F1F83FC00
07F07E1F83FC00
07F87E0F83F800
07F87E0FC3F800
03F87E0FC3F800
03F8FE0FC7F800
03F8FC0FC7F000
01FCFC07E7F000
01FCFC07E7F000
01FCFC07E7F000
01FDF807E7E000
00FDF807EFE000
00FFF803FFE000
00FFF803FFC000
007FF803FFC000
007FF003FFC000
007FF003FFC000
007FF001FF8000
003FF001FF8000
003FF001FF8000
003FE001FF8000
003FE000FF0000
001FE000FF0000
001FE000FF0000
ENDCHAR
STARTCHAR 0058
ENCODING 88
SWIDTH 666 0
DWIDTH 37 0
BBX 34 41 2 0
BITMAP
FFC000FF80
7FC001FF80
7FE001FF00
3FE003FF00
3FF003FE00
1FF007FC00
0FF807FC00
0FFC0FF800
07FC1FF800
07FE1FF000
03FE3FE000
01FF3FE000
01FF7FC000
00FFFF8000
00FFFF8000
007FFF0000
003FFF0000
003FFE0000
001FFC0000
001FFC0000
000FFC0000
001FFC0000
001FFE0000
003FFE0000
007FFF0000
007FFF8000
00FFFF8000
00FF7FC000
01FF3FC000
03FE3FE000
03FE1FF000
07FC1FF000
0FFC0FF800
0FF80FFC00
1FF007FC00
1FF007FE00
3FE003FE00
7FE003FF00
7FC001FF80
FFC000FF80
FF8000FFC0
ENDCHAR
STARTCHAR 0059
ENCODING 89
SWIDTH 666 0
DWIDTH 37 0
BBX 33 41 2 0
BITMAP
FF8000FF80
FF8000FF80
7FC001FF00
7FC001FF00
3FE003FE00
3FE003FE00
1FF003FC00
1FF007FC00
0FF807F800
0FF80FF800
07F80FF000
03FC0FF000
03FC1FE000
01FE1FE000
01FE3FC000
00FF3FC000
00FF7F8000
007FFF8000
007FFF0000
003FFF0000
003FFE0000
001FFE0000
001FFC0000
000FFC0000
000FF80000
0007F80000
0007F80000
0007F80000
0007F80000
0007F80000
0007F80000
0007F80000
0007F80000
0007F80000
0007F80000
0007F80000
0007F80000
0007F80000
0007F80000
0007F80000
0007F80000
ENDCHAR
STARTCHAR 005A
ENCODING 90
SWIDTH 612 0
DWIDTH 34 0
BBX 30 41 2 0
BITMAP
FFFFFFFC
FFFFFFFC
FFFFFFFC
FFFFFFFC
FFFFFFFC
FFFFFFFC
FFFFFFFC
00000FFC
00001FF8
00003FF0
00003FE0
00007FE0
0000FFC0
0001FF80
0001FF00
0003FF00
0007FE00
000FFC00
000FF800
001FF800
003FF000
007FE000
007FC000
00FFC000
01FF8000
03FF0000
03FE0000
07FE0000
0FFC0000
1FF80000
1FF00000
3FF00000
7FE00000
FFC00000
FFFFFFFC
FFFFFFFC
FFFFFFFC
FFFFFFFC
FFFFFFFC
FFFFFFFC
FFFFFFFC
ENDCHAR
STARTCHAR 005B
ENCODING 91
SWIDTH 342 0
DWIDTH 19 0
BBX 14 53 4 -13
BITMAP
FFFC
FFFC
FFFC
FFFC
FFFC
FFFC
FF00
FF00
FF00
FF00
FF00
FF00
FF00
FF00
FF00
FF00
FF00
FF00
FF00
FF00
FF00
FF00
FF00
FF00
FF00
FF00
FF00
FF00
FF00
FF00
FF00
FF00
FF00
FF00
FF00
FF00
FF00
FF00
FF00
FF00
FF00
FF00
FF00
FF00
FF00
FF00
FF00
FFFC
FFFC
FFFC
FFFC
FFFC
FFFC
ENDCHAR
STARTCHAR 005C
ENCODING 92
SWIDTH 270 0
DWIDTH 15 0
BBX 17 41 -1 -1
BITMAP
F00000
780000
780000
780000
380000
3C0000
3C0000
1C0000
1E0000
1E0000
0E0000
0F0000
0F0000
070000
078000
078000
038000
03C000
03C000
01C000
01E000
01E000
01E000
00F000
00F000
00F000
007000
007800
007800
003800
003C00
003C00
001C00
001E00
001E00
000E00
000F00
000F00
000700
000780
000780
ENDCHAR
STARTCHAR 005D
ENCODING 93
SWIDTH 342 0
DWIDTH 19 0
BBX 14 53 1 -13
BITMAP
FFFC
FFFC
FFFC
FFFC
FFFC
FFFC
03FC
03FC
03FC
03FC
03FC
03FC
03FC
03FC
03FC
03FC
03FC
03FC
03FC
03FC
03FC
03FC
03FC
03FC
03FC
03FC
03FC
03FC
03FC
03FC
03FC
03FC
03FC
03FC
03FC
03FC
03FC
03FC
03FC
03FC
03FC
03FC
03FC
03FC
03FC
03FC
03FC
FFFC
FFFC
FFFC
FFFC
FFFC
FFFC
ENDCHAR
STARTCHAR 005E
ENCODING 94
SWIDTH 576 0
DWIDTH 32 0
BBX 25 24 4 15
BITMAP
00FF0000
00FF0000
00FF0000
01FF8000
01FF8000
03FFC000
03FFC000
03FFC000
07E7E000
07E7E000
07E7F000
0FC3F000
0FC3F000
1FC1F800
1F81F800
1F81FC00
3F00FC00
3F00FC00
7F007E00
7E007E00
7E007F00
FE003F00
FC003F00
FC001F80
ENDCHAR
STARTCHAR 005F
ENCODING 95
SWIDTH 558 0
DWIDTH 31 0
BBX 33 4 -1 -11
BITMAP
FFFFFFFF80
FFFFFFFF80
FFFFFFFF80
FFFFFFFF80
ENDCHAR
STARTCHAR 0060
ENCODING 96
SWIDTH 324 0
DWIDTH 18 0
BBX 11 8 1 34
BITMAP
FE00
7F00
3F00
1F80
0F80
07C0
03C0
01E0
ENDCHAR
STARTCHAR 0061
ENCODING 97
SWIDTH 576 0
DWIDTH 32 0
BBX 28 32 2 -1
BITMAP
007FE000
03FFFC00
0FFFFE00
1FFFFF00
3FFFFF80
3FFFFF80
7FF9FFC0
7F807FC0
7F803FC0
7F003FC0
7F003FC0
00007FC0
0001FFC0
007FFFC0
07FFFFC0
1FFFFFC0
3FFFFFC0
7FFC3FC0
7FC03FC0
FF803FC0
FF003FC0
FF003FC0
FF007FC0
FF007FC0
FF80FFC0
FFE7FFC0
7FFFFFC0
7FFFFFC0
3FFFBFE0
3FFF3FE0
0FFE1FF0
03F00000
ENDCHAR
STARTCHAR 0062
ENCODING 98
SWIDTH 612 0
DWIDTH 34 0
BBX 29 42 3 -1
BITMAP
FF000000
FF000000
FF000000
FF000000
FF000000
FF000000
FF000000
FF000000
FF000000
FF000000
FF07E000
FF1FFC00
FF7FFE00
FFFFFF00
FFFFFF80
FFFFFFC0
FFF9FFC0
FFE03FE0
FFC01FE0
FF801FF0
FF800FF0
FF000FF0
FF0007F0
FF0007F8
FF0007F8
FF0007F8
FF0007F8
FF0007F8
FF0007F8
FF0007F0
FF000FF0
FF800FF0
FF801FF0
FFC01FE0
FFE03FE0
FFFDFFC0
FFFFFFC0
FFFFFF80
FFFFFF00
FF7FFE00
FF3FFC00
0007E000
ENDCHAR
STARTCHAR 0063
ENCODING 99
SWIDTH 558 0
DWIDTH 31 0
BBX 27 32 2 -1
BITMAP
003FC000
01FFF800
03FFFE00
0FFFFF00
0FFFFF80
1FFFFF80
3FF9FFC0
3FE03FC0
7FC03FE0
7F801FE0
7F801FE0
FF000FE0
FF000000
FF000000
FF000000
FF000000
FF000000
FF000000
FF000000
FF000000
FF000FE0
7F801FE0
7F801FE0
7FC03FC0
3FE07FC0
3FF9FFC0
1FFFFF80
1FFFFF00
0FFFFE00
07FFFC00
01FFF800
003FC000
ENDCHAR
STARTCHAR 0064
ENCODING 100
SWIDTH 612 0
DWIDTH 34 0
BBX 29 42 2 -1
BITMAP
000007F8
000007F8
000007F8
000007F8
000007F8
000007F8
000007F8
000007F8
000007F8
000007F8
007F07F8
01FFC7F8
03FFE7F8
07FFF7F8
0FFFFFF8
1FFFFFF8
3FF9FFF8
3FE03FF8
7FC01FF8
7F801FF8
7F800FF8
FF000FF8
FF0007F8
FF0007F8
FF0007F8
FF0007F8
FF0007F8
FF0007F8
FF0007F8
FF0007F8
FF000FF8
7F800FF8
7F801FF8
7FC01FF8
3FE03FF8
3FFDFFF8
1FFFFFF8
0FFFFFF8
0FFFFFF8
03FFF7F8
01FFE7F8
007F8000
ENDCHAR
STARTCHAR 0065
ENCODING 101
SWIDTH 540 0
DWIDTH 30 0
BBX 28 32 1 -1
BITMAP
003FC000
01FFF000
03FFFC00
07FFFE00
0FFFFF00
1FFFFF80
3FF9FF80
3FC03FC0
7F801FC0
7F801FE0
7F000FE0
FF000FE0
FF000FE0
FFFFFFF0
FFFFFFF0
FFFFFFF0
FFFFFFF0
FFFFFFF0
FF000000
FF000000
FF000000
7F000000
7F000FE0
7F801FE0
3FC03FE0
3FF9FFC0
1FFFFF80
1FFFFF00
0FFFFE00
07FFFC00
01FFF000
003FC000
ENDCHAR
STARTCHAR 0066
ENCODING 102
SWIDTH 342 0
DWIDTH 19 0
BBX 17 41 1 0
BITMAP
007F00
01FF00
03FF00
07FF00
07FF00
0FFF00
0FF800
0FF000
0FF000
0FF000
0FF000
FFFF80
FFFF80
FFFF80
FFFF80
FFFF80
0FF000
0FF000
0FF000
0FF000
0FF000
0FF000
0FF000
0FF000
0FF000
0FF000
0FF000
0FF000
0FF000
0FF000
0FF000
0FF000
0FF000
0FF000
0FF000
0FF000
0FF000
0FF000
0FF000
0FF000
0FF000
ENDCHAR
STARTCHAR 0067
ENCODING 103
SWIDTH 612 0
DWIDTH 34 0
BBX 28 43 2 -12
BITMAP
007E0FF0
03FF8FF0
07FFCFF0
0FFFEFF0
1FFFFFF0
3FFFFFF0
3FF9FFF0
3FE07FF0
7FC03FF0
7F801FF0
7F801FF0
FF000FF0
FF000FF0
FF000FF0
FF000FF0
FF000FF0
FF000FF0
FF000FF0
FF000FF0
FF000FF0
FF000FF0
7F801FF0
7F801FF0
7FC03FF0
7FE07FF0
3FF9FFF0
3FFFFFF0
1FFFFFF0
0FFFFFF0
07FFEFF0
03FF8FF0
007E0FF0
00000FF0
00000FF0
00000FF0
FF801FE0
FF803FE0
7FE07FC0
7FFFFFC0
3FFFFF80
1FFFFF00
07FFFC00
00FFE000
ENDCHAR
STARTCHAR 0068
ENCODING 104
SWIDTH 612 0
DWIDTH 34 0
BBX 26 41 4 0
BITMAP
FF000000
FF000000
FF000000
FF000000
FF000000
FF000000
FF000000
FF000000
FF000000
FF000000
FF07F000
FF1FFC00
FF3FFE00
FF7FFF00
FFFFFF80
FFFFFF80
FFF3FFC0
FFC07FC0
FF807FC0
FF003FC0
FF003FC0
FF003FC0
FF003FC0
FF003FC0
FF003FC0
FF003FC0
FF003FC0
FF003FC0
FF003FC0
FF003FC0
FF003FC0
FF003FC0
FF003FC0
FF003FC0
FF003FC0
FF003FC0
FF003FC0
FF003FC0
FF003FC0
FF003FC0
FF003FC0
ENDCHAR
STARTCHAR 0069
ENCODING 105
SWIDTH 288 0
DWIDTH 16 0
BBX 8 41 4 0
BITMAP
FF
FF
FF
FF
FF
FF
FF
00
00
00
FF
FF
FF
FF
FF
FF
FF
FF
FF
FF
FF
FF
FF
FF
FF
FF
FF
FF
FF
FF
FF
FF
FF
FF
FF
FF
FF
FF
FF
FF
FF
ENDCHAR
STARTCHAR 006A
ENCODING 106
SWIDTH 288 0
DWIDTH 16 0
BBX 12 53 0 -12
BITMAP
0FF0
0FF0
0FF0
0FF0
0FF0
0FF0
0FF0
0000
0000
0000
0FF0
0FF0
0FF0
0FF0
0FF0
0FF0
0FF0
0FF0
0FF0
0FF0
0FF0
0FF0
0FF0
0FF0
0FF0
0FF0
0FF0
0FF0
0FF0
0FF0
0FF0
0FF0
0FF0
0FF0
0FF0
0FF0
0FF0
0FF0
0FF0
0FF0
0FF0
0FF0
0FF0
0FF0
0FF0
0FF0
BFF0
FFF0
FFF0
FFE0
FFE0
FFC0
FF00
ENDCHAR
STARTCHAR 006B
ENCODING 107
SWIDTH 558 0
DWIDTH 31 0
BBX 27 41 3 0
BITMAP
FF000000
FF000000
FF000000
FF000000
FF000000
FF000000
FF000000
FF000000
FF000000
FF000000
FF007FC0
FF00FF80
FF00FF00
FF01FE00
FF03FE00
FF07FC00
FF0FF800
FF1FF000
FF1FE000
FF3FC000
FF7F8000
FFFF0000
FFFF8000
FFFF8000
FFFFC000
FFFFC000
FFFFE000
FFFFE000
FFDFF000
FF8FF800
FF07F800
FF07FC00
FF03FC00
FF03FE00
FF01FE00
FF01FF00
FF00FF80
FF00FF80
FF007FC0
FF007FC0
FF003FE0
ENDCHAR
STARTCHAR 006C
ENCODING 108
SWIDTH 288 0
DWIDTH 16 0
BBX 8 41 4 0
BITMAP
FF
FF
FF
FF
FF
FF
FF
FF
FF
FF
FF
FF
FF
FF
FF
FF
FF
FF
FF
FF
FF
FF
FF
FF
FF
FF
FF
FF
FF
FF
FF
FF
FF
FF
FF
FF
FF
FF
FF
FF
FF
ENDCHAR
STARTCHAR 006D
ENCODING 109
SWIDTH 882 0
DWIDTH 49 0
BBX 42 31 3 0
BITMAP
FF0FE007F000
FF3FF81FFC00
FF7FFE3FFF00
FFFFFE7FFF80
FFFFFFFFFF80
FFFFFFFFFFC0
FFFFFFFFFFC0
FFE1FFF07FC0
FF80FFC03FC0
FF807FC03FC0
FF007F803FC0
FF007F803FC0
FF007F803FC0
FF007F803FC0
FF007F803FC0
FF007F803FC0
FF007F803FC0
FF007F803FC0
FF007F803FC0
FF007F803FC0
FF007F803FC0
FF007F803FC0
FF007F803FC0
FF007F803FC0
FF007F803FC0
FF007F803FC0
FF007F803FC0
FF007F803FC0
FF007F803FC0
FF007F803FC0
FF007F803FC0
ENDCHAR
STARTCHAR 006E
ENCODING 110
SWIDTH 594 0
DWIDTH 33 0
BBX 27 31 3 0
BITMAP
FF0FF000
FF3FFE00
FF7FFF00
FFFFFF80
FFFFFF80
FFFFFFC0
FFF9FFC0
FFC07FC0
FF803FE0
FF001FE0
FF001FE0
FF001FE0
FF001FE0
FF001FE0
FF001FE0
FF001FE0
FF001FE0
FF001FE0
FF001FE0
FF001FE0
FF001FE0
FF001FE0
FF001FE0
FF001FE0
FF001FE0
FF001FE0
FF001FE0
FF001FE0
FF001FE0
FF001FE0
FF001FE0
ENDCHAR
STARTCHAR 006F
ENCODING 111
SWIDTH 612 0
DWIDTH 34 0
BBX 30 32 2 -1
BITMAP
001FE000
00FFFC00
03FFFF00
07FFFF80
0FFFFFC0
1FFFFFE0
3FFCFFE0
3FE03FF0
7FC00FF0
7F800FF8
7F8007F8
FF0007F8
FF0003F8
FF0003FC
FF0003FC
FF0003FC
FF0003FC
FF0003FC
FF0003FC
FF0003FC
FF0007F8
7F8007F8
7F800FF8
7FC00FF0
3FE01FF0
3FFCFFE0
1FFFFFE0
0FFFFFC0
07FFFF80
03FFFF00
00FFFC00
001FE000
ENDCHAR
STARTCHAR 0070
ENCODING 112
SWIDTH 612 0
DWIDTH 34 0
BBX 29 43 3 -12
BITMAP
FF07F000
FF1FFC00
FF7FFF00
FF7FFF80
FFFFFFC0
FFFFFFC0
FFF9FFE0
FFE03FE0
FFC01FF0
FF801FF0
FF800FF0
FF000FF8
FF0007F8
FF0007F8
FF0007F8
FF0007F8
FF0007F8
FF0007F8
FF0007F8
FF0007F8
FF000FF0
FF800FF0
FF801FF0
FFC01FE0
FFE03FE0
FFFDFFE0
FFFFFFC0
FFFFFF80
FF7FFF00
FF3FFE00
FF1FFC00
FF07F000
FF000000
FF000000
FF000000
FF000000
FF000000
FF000000
FF000000
FF000000
FF000000
FF000000
FF000000
ENDCHAR
STARTCHAR 0071
ENCODING 113
SWIDTH 612 0
DWIDTH 34 0
BBX 29 43 2 -12
BITMAP
007F07F8
01FFC7F8
07FFE7F8
0FFFF7F8
0FFFFFF8
1FFFFFF8
3FF9FFF8
3FE03FF8
7FC01FF8
7F801FF8
7F800FF8
FF000FF8
FF0007F8
FF0007F8
FF0007F8
FF0007F8
FF0007F8
FF0007F8
FF0007F8
FF0007F8
FF000FF8
FF800FF8
7F801FF8
7FC01FF8
7FE03FF8
3FFDFFF8
3FFFFFF8
1FFFFFF8
0FFFF7F8
07FFE7F8
01FFC7F8
007F07F8
000007F8
000007F8
000007F8
000007F8
000007F8
000007F8
000007F8
000007F8
000007F8
000007F8
000007F8
ENDCHAR
STARTCHAR 0072
ENCODING 114
SWIDTH 378 0
DWIDTH 21 0
BBX 17 31 3 0
BITMAP
FF0F80
FF1F80
FF3F80
FF7F80
FF7F80
FFFF80
FFFF80
FFFF80
FFE000
FFC000
FF8000
FF0000
FF0000
FF0000
FF0000
FF0000
FF0000
FF0000
FF0000
FF0000
FF0000
FF0000
FF0000
FF0000
FF0000
FF0000
FF0000
FF0000
FF0000
FF0000
FF0000
ENDCHAR
STARTCHAR 0073
ENCODING 115
SWIDTH 558 0
DWIDTH 31 0
BBX 27 32 2 -1
BITMAP
007FC000
03FFF800
07FFFE00
1FFFFF00
1FFFFF80
3FFFFFC0
3FF9FFC0
7FC03FC0
7F801FE0
7F801FE0
7F800000
7FF00000
7FFE0000
3FFFE000
3FFFFC00
1FFFFF00
07FFFF80
00FFFFC0
001FFFC0
0001FFE0
00003FE0
00001FE0
FF001FE0
FF001FE0
FF803FE0
FFF1FFC0
7FFFFFC0
3FFFFF80
3FFFFF00
0FFFFE00
07FFFC00
00FFE000
ENDCHAR
STARTCHAR 0074
ENCODING 116
SWIDTH 342 0
DWIDTH 19 0
BBX 16 40 1 -1
BITMAP
0FF0
0FF0
0FF0
0FF0
0FF0
0FF0
0FF0
0FF0
0FF0
FFFF
FFFF
FFFF
FFFF
FFFF
0FF0
0FF0
0FF0
0FF0
0FF0
0FF0
0FF0
0FF0
0FF0
0FF0
0FF0
0FF0
0FF0
0FF0
0FF0
0FF0
0FF0
0FF0
0FF0
0FFC
0FFF
0FFF
07FF
07FF
03FF
00FE
ENDCHAR
STARTCHAR 0075
ENCODING 117
SWIDTH 612 0
DWIDTH 34 0
BBX 27 32 3 -1
BITMAP
FF001FE0
FF001FE0
FF001FE0
FF001FE0
FF001FE0
FF001FE0
FF001FE0
FF001FE0
FF001FE0
FF001FE0
FF001FE0
FF001FE0
FF001FE0
FF001FE0
FF001FE0
FF001FE0
FF001FE0
FF001FE0
FF001FE0
FF001FE0
FF001FE0
FF001FE0
FF003FE0
FF003FE0
FF807FE0
7FF3FFE0
7FFFFFE0
7FFFFFE0
3FFFDFE0
1FFF9FE0
0FFF1FE0
03FC0000
ENDCHAR
STARTCHAR 0076
ENCODING 118
SWIDTH 558 0
DWIDTH 31 0
BBX 29 31 1 0
BITMAP
FF000FF8
FF000FF0
7F800FF0
7F800FF0
7F801FE0
3FC01FE0
3FC01FE0
3FC01FC0
1FC03FC0
1FE03FC0
1FE03F80
0FE07F80
0FF07F80
0FF07F00
07F07F00
07F0FF00
07F8FE00
03F8FE00
03F8FE00
03FDFC00
01FDFC00
01FDFC00
01FDF800
00FFF800
00FFF800
00FFF000
007FF000
007FF000
007FE000
003FE000
003FE000
ENDCHAR
STARTCHAR 0077
ENCODING 119
SWIDTH 774 0
DWIDTH 43 0
BBX 42 31 0 0
BITMAP
FF003FC03FC0
7F807FC03FC0
7F807FC03FC0
7F807FC03FC0
7F807FC03F80
3FC0FFE07F80
3FC0FFE07F80
3FC0FFE07F80
1FC0FFE07F00
1FC0FBE0FF00
1FE1FBF0FF00
1FE1FBF0FE00
0FE1FBF0FE00
0FE1FBF0FE00
0FF1F1F1FE00
0FF3F1F9FC00
07F3F1F9FC00
07F3F1F9FC00
07F3E1F9F800
03FBE0FFF800
03FFE0FFF800
03FFE0FFF800
03FFE0FFF000
01FFC0FFF000
01FFC07FF000
01FFC07FF000
00FFC07FE000
00FFC07FE000
00FF807FE000
00FF803FC000
007F803FC000
ENDCHAR
STARTCHAR 0078
ENCODING 120
SWIDTH 558 0
DWIDTH 31 0
BBX 28 31 1 0
BITMAP
FFC01FF0
7FC03FF0
3FE03FE0
3FE07FC0
1FF07FC0
0FF0FF80
0FF8FF00
07F9FF00
03FDFE00
03FFFC00
01FFFC00
01FFF800
00FFF800
007FF000
007FE000
003FE000
007FE000
007FF000
00FFF800
01FFF800
01FFFC00
03FFFE00
07FDFE00
07F9FF00
0FF8FF80
1FF07F80
1FF07FC0
3FE03FC0
7FE03FE0
7FC01FF0
FFC01FF0
ENDCHAR
STARTCHAR 0079
ENCODING 121
SWIDTH 558 0
DWIDTH 31 0
BBX 29 43 1 -11
BITMAP
FF8007F8
FF8007F8
7F800FF0
7FC00FF0
7FC00FF0
3FC00FE0
3FC01FE0
1FE01FE0
1FE01FC0
1FE03FC0
0FF03FC0
0FF03F80
0FF03F80
07F87F80
07F87F00
07F87F00
03F8FE00
03FCFE00
03FCFE00
01FCFC00
01FFFC00
00FFFC00
00FFF800
00FFF800
007FF800
007FF000
007FF000
003FF000
003FE000
003FE000
001FE000
001FC000
001FC000
001FC000
003F8000
007F8000
09FF8000
0FFF0000
0FFF0000
0FFE0000
0FFE0000
0FF80000
0FE00000
ENDCHAR
STARTCHAR 007A
ENCODING 122
SWIDTH 504 0
DWIDTH 28 0
BBX 25 30 1 1
BITMAP
7FFFFF00
7FFFFF00
7FFFFF00
7FFFFF00
7FFFFF00
7FFFFF00
0003FF00
0007FE00
0007FC00
000FF800
001FF000
003FE000
007FE000
00FFC000
00FF8000
01FF0000
03FE0000
07FE0000
0FFC0000
1FF80000
1FF00000
3FE00000
7FC00000
FFC00000
FFFFFF80
FFFFFF80
FFFFFF80
FFFFFF80
FFFFFF80
FFFFFF80
ENDCHAR
STARTCHAR 007B
ENCODING 123
SWIDTH 378 0
DWIDTH 21 0
BBX 15 53 2 -12
BITMAP
00FE
01FE
03FE
07FE
07FE
0FFE
0FE0
0FC0
0FC0
0FC0
0FC0
0FC0
0FC0
0FC0
0FC0
0FC0
0FC0
0FC0
0FC0
0FC0
0FC0
0FC0
0FC0
1FC0
FF80
FF00
F800
FF00
FF80
1FC0
0FC0
0FC0
0FC0
0FC0
0FC0
0FC0
0FC0
0FC0
0FC0
0FC0
0FC0
0FC0
0FC0
0FC0
0FC0
0FC0
0FE0
0FFE
07FE
07FE
03FE
01FE
00FE
ENDCHAR
STARTCHAR 007C
ENCODING 124
SWIDTH 288 0
DWIDTH 16 0
BBX 4 52 6 -11
BITMAP
F0
F0
F0
F0
F0
F0
F0
F0
F0
F0
F0
F0
F0
F0
F0
F0
F0
F0
F0
F0
F0
F0
F0
F0
F0
F0
F0
F0
F0
F0
F0
F0
F0
F0
F0
F0
F0
F0
F0
F0
F0
F0
F0
F0
F0
F0
F0
F0
F0
F0
F0
F0
ENDCHAR
STARTCHAR 007D
ENCODING 125
SWIDTH 396 0
DWIDTH 22 0
BBX 16 53 4 -12
BITMAP
FE00
FF80
FFC0
FFE0
FFE0
FFF0
0FF0
07F0
07F0
07F0
07F0
07F0
07F0
07F0
07F0
07F0
07F0
07F0
07F0
07F0
07F0
07F0
07F0
07F8
03FF
01FF
001F
01FF
03FF
07F8
07F0
07F0
07F0
07F0
07F0
07F0
07F0
07F0
07F0
07F0
07F0
07F0
07F0
07F0
07F0
07F0
0FF0
FFF0
FFE0
FFE0
FFC0
FF80
FE00
ENDCHAR
STARTCHAR 007E
ENCODING 126
SWIDTH 594 0
DWIDTH 33 0
BBX 25 10 4 8
BITMAP
0F800000
3FE00000
7FF00780
7FFC0780
FFFE0F80
F83FFF80
F01FFF00
F00FFF00
F007FE00
0001F800
ENDCHAR
STARTCHAR 00A0
ENCODING 160
SWIDTH 270 0
DWIDTH 15 0
BBX 0 0 0 0
BITMAP
ENDCHAR
STARTCHAR 00A1
ENCODING 161
SWIDTH 324 0
DWIDTH 18 0
BBX 8 41 4 -10
BITMAP
FF
FF
FF
FF
FF
FF
FF
FF
00
00
00
00
3C
3C
3C
3C
3C
7C
7C
7E
7E
7E
7E
7E
7E
FE
FE
FF
FF
FF
FF
FF
FF
FF
FF
FF
FF
FF
FF
FF
FF
ENDCHAR
STARTCHAR 00A2
ENCODING 162
SWIDTH 558 0
DWIDTH 31 0
BBX 27 43 2 -7
BITMAP
00060000
00060000
00060000
00060000
00060000
003FE000
01FFF800
03FFFC00
0FFFFF00
1FFFFF00
1FFFFF80
3FFFFFC0
3FE67FC0
7FC63FE0
7F861FE0
7F861FE0
FF060FE0
FF060000
FF060000
FF060000
FF060000
FF060000
FF060000
FF060000
FF060000
FF060FE0
FF861FE0
7F861FE0
7FC63FC0
7FE67FC0
3FFFFFC0
3FFFFF80
1FFFFF00
0FFFFE00
07FFFC00
03FFF800
007FE000
00060000
00060000
00060000
00060000
00060000
00060000
ENDCHAR
STARTCHAR 00A3
ENCODING 163
SWIDTH 558 0
DWIDTH 31 0
BBX 28 41 2 -1
BITMAP
00FFE000
03FFFC00
0FFFFE00
1FFFFF00
3FFFFF80
3FFFFF80
7FE0FFC0
7FC03FC0
FF801FC0
FF001FE0
FF001FE0
FF000FE0
FF000FE0
7F800000
7F800000
7FC00000
3FC00000
3FE00000
1FE00000
FFFFE000
FFFFE000
FFFFE000
07F00000
07F80000
03F80000
03F80000
03F80000
03F80000
03F00000
03F00000
07E00000
0FC00000
0FC00000
1FBE00C0
3FFFE7C0
FFFFFFE0
FFFFFFE0
7FFFFFE0
3FFFFFF0
3FFFFFE0
1001FF00
ENDCHAR
STARTCHAR 00A4
ENCODING 164
SWIDTH 540 0
DWIDTH 30 0
BBX 28 27 1 6
BITMAP
18000180
3C0003C0
7E1F87E0
FF7FFFF0
7FFFFFE0
3FFFFFC0
1FFFFF80
0FFFFF00
0FE0FF00
0FC03F00
1F801F80
1F000F80
1F000F80
1F000F80
1F000F80
1F000F80
1F801F80
0FC03F00
0FE07F00
0FFFFF00
1FFFFF80
3FFFFFC0
7FFFFFE0
FF7FEFF0
7E1F87E0
3C0003C0
18000180
ENDCHAR
STARTCHAR 00A5
ENCODING 165
SWIDTH 558 0
DWIDTH 31 0
BBX 30 40 1 0
BITMAP
FE0003FC
FF0003F8
7F0007F8
7F8007F0
3F800FF0
3FC01FE0
1FE01FE0
0FE03FC0
0FF03F80
07F07F80
07F87F00
03F8FF00
03FCFE00
01FDFE00
00FFFC00
00FFFC00
007FF800
007FF000
003FF000
003FE000
1FFFFFE0
1FFFFFE0
1FFFFFE0
001FE000
001FE000
001FE000
001FE000
1FFFFFE0
1FFFFFE0
1FFFFFE0
001FE000
001FE000
001FE000
001FE000
001FE000
001FE000
001FE000
001FE000
001FE000
001FE000
ENDCHAR
STARTCHAR 00A6
ENCODING 166
SWIDTH 288 0
DWIDTH 16 0
BBX 4 53 6 -12
BITMAP
F0
F0
F0
F0
F0
F0
F0
F0
F0
F0
F0
F0
F0
F0
F0
F0
F0
F0
F0
F0
F0
F0
00
00
00
00
00
00
00
00
00
F0
F0
F0
F0
F0
F0
F0
F0
F0
F0
F0
F0
F0
F0
F0
F0
F0
F0
F0
F0
F0
F0
ENDCHAR
STARTCHAR 00A7
ENCODING 167
SWIDTH 558 0
DWIDTH 31 0
BBX 27 53 2 -12
BITMAP
007F8000
03FFE000
07FFF800
0FFFFC00
1FFFFC00
3FFFFE00
3FF3FE00
3FC0FF00
7F807F00
7F807F00
7F803F00
7FC00000
3FF00000
3FF80000
1FFE0000
1FFF8000
0FFFE000
07FFF000
0FFFFC00
3FFFFE00
7F3FFF80
7E0FFF80
FE03FFC0
FE01FFC0
FE007FE0
FE001FE0
FF001FE0
FF800FE0
FFE00FE0
7FF80FE0
7FFE1FC0
3FFF9F80
1FFFFF00
07FFFE00
01FFF800
00FFFE00
003FFF00
000FFF00
0007FF80
0001FF80
00007FC0
00003FC0
7F803FC0
7F803FC0
3F803FC0
3FC07F80
3FF3FF80
1FFFFF00
1FFFFF00
0FFFFE00
07FFFC00
03FFF000
007FC000
ENDCHAR
STARTCHAR 00A8
ENCODING 168
SWIDTH 324 0
DWIDTH 18 0
BBX 16 6 1 36
BITMAP
FC3F
FC3F
FC3F
FC3F
FC3F
FC3F
ENDCHAR
STARTCHAR 00A9
ENCODING 169
SWIDTH 720 0
DWIDTH 40 0
BBX 42 42 -1 0
BITMAP
0001FFE00000
000FFFFC0000
003FFFFF0000
007FFFFF8000
01FE001FC000
03F80007F000
07E00001F800
07C03F80F800
0F80FFE07C00
1F03FFF03E00
1E07FFF81E00
3E0FFFFC1F00
3C0FE0FE0F00
7C1F807E0F80
781F803E0780
781F003E0780
F83F003E07C0
F03E000003C0
F03E000003C0
F03E000003C0
F03E000003C0
F03E000003C0
F03E000003C0
F03E000003C0
F03E003E03C0
781F003E0780
781F003E0780
781F807E0780
7C0FE0FE0F80
3C0FFFFC0F00
3E07FFF81F00
1F03FFF83E00
1F81FFE07E00
0FC03F80FC00
07E00001F800
03F00003F000
01FC000FE000
00FF807FC000
007FFFFF8000
001FFFFE0000
0007FFF80000
0000FF800000
ENDCHAR
STARTCHAR 00AA
ENCODING 170
SWIDTH 378 0
DWIDTH 21 0
BBX 17 26 2 16
BITMAP
0FF000
1FF800
3FFC00
7FFE00
7C1E00
781E00
003E00
01FE00
1FFE00
3FFE00
7F9E00
FC1E00
F81E00
F81E00
F83E00
FC7E00
FFFE00
7FFF00
3FDF80
1F0000
000000
000000
FFFF00
FFFF00
FFFF00
FFFF00
ENDCHAR
STARTCHAR 00AB
ENCODING 171
SWIDTH 558 0
DWIDTH 31 0
BBX 21 23 5 5
BITMAP
008008
018018
038038
078078
0F80F8
1F81F8
3F83F8
7F07F0
FE0FE0
FC0FC0
F80F80
F00F00
F80F80
FC0FC0
FE0FE0
7F07F0
3F83F8
1F81F8
0F80F8
078078
038038
018018
008008
ENDCHAR
STARTCHAR 00AC
ENCODING 172
SWIDTH 576 0
DWIDTH 32 0
BBX 28 16 2 5
BITMAP
FFFFFFF0
FFFFFFF0
FFFFFFF0
FFFFFFF0
000000F0
000000F0
000000F0
000000F0
000000F0
000000F0
000000F0
000000F0
000000F0
000000F0
000000F0
000000F0
ENDCHAR
STARTCHAR 00AD
ENCODING 173
SWIDTH 324 0
DWIDTH 18 0
BBX 15 8 1 12
BITMAP
FFFE
FFFE
FFFE
FFFE
FFFE
FFFE
FFFE
FFFE
ENDCHAR
STARTCHAR 00AE
ENCODING 174
SWIDTH 720 0
DWIDTH 40 0
BBX 42 42 -1 0
BITMAP
0001FFE00000
000FFFFC0000
003FFFFF0000
007FFFFF8000
01FE001FC000
03F80007F000
07E00001F800
07C00000F800
0F8FFFE07C00
1F0FFFF83E00
1E0FFFFC1E00
3E0FFFFC1F00
3C0FFFFE0F00
7C0F807E0F80
780F803E0780
780F803E0780
F80F803E07C0
F00F807C03C0
F00FFFFC03C0
F00FFFF803C0
F00FFFE003C0
F00FFFF803C0
F00FFFFC03C0
F00F80FC03C0
F00F807C03C0
780F807C0780
780F807C0780
780F807C0780
7C0F807C0F80
3C0F807C0F00
3E0F807C1F00
1F0F807C3E00
1F8F807F7E00
0FC00000FC00
07E00001F800
03F00003F000
01FC000FE000
00FF807FC000
007FFFFF8000
001FFFFE0000
0007FFF80000
0000FF800000
ENDCHAR
STARTCHAR 00AF
ENCODING 175
SWIDTH 342 0
DWIDTH 19 0
BBX 17 4 1 36
BITMAP
FFFF80
FFFF80
FFFF80
FFFF80
ENDCHAR
STARTCHAR 00B0
ENCODING 176
SWIDTH 594 0
DWIDTH 33 0
BBX 17 17 8 22
BITMAP
03E000
0FF800
3FFE00
3FFE00
7C3F00
F00F80
F00F80
E00780
E00780
E00780
F00F80
700F00
7C3F00
3FFE00
3FFC00
0FF800
07E000
ENDCHAR
STARTCHAR 00B1
ENCODING 177
SWIDTH 576 0
DWIDTH 32 0
BBX 26 35 3 -1
BITMAP
003F8000
003F8000
003F8000
003F8000
003F8000
003F8000
003F8000
003F8000
003F8000
003F8000
FFFFFFC0
FFFFFFC0
FFFFFFC0
FFFFFFC0
FFFFFFC0
FFFFFFC0
003F8000
003F8000
003F8000
003F8000
003F8000
003F8000
003F8000
003F8000
003F8000
003F8000
003F8000
00000000
00000000
FFFFFFC0
FFFFFFC0
FFFFFFC0
FFFFFFC0
FFFFFFC0
FFFFFFC0
ENDCHAR
STARTCHAR 00B2
ENCODING 178
SWIDTH 342 0
DWIDTH 19 0
BBX 17 24 1 16
BITMAP
07F000
1FFC00
3FFE00
7FFF00
7E3F80
FC0F80
F80F80
F80F80
F80F80
000F80
001F00
003F00
007E00
01FC00
07F800
0FE000
1FC000
3F0000
7E0000
7FFF80
FFFF80
FFFF80
FFFF80
FFFF80
ENDCHAR
STARTCHAR 00B3
ENCODING 179
SWIDTH 342 0
DWIDTH 19 0
BBX 17 25 1 15
BITMAP
0FF000
3FFC00
7FFF00
7FFF00
FE1F80
FC0F80
F80F80
F80F80
000F80
003F00
03FE00
03FC00
03FE00
03FF00
003F00
001F80
000F80
F80F80
F80F80
F80F80
7E1F80
7FFF00
3FFE00
1FFE00
07F000
ENDCHAR
STARTCHAR 00B4
ENCODING 180
SWIDTH 324 0
DWIDTH 18 0
BBX 10 8 7 34
BITMAP
1FC0
1F80
3F00
3F00
7E00
7C00
F800
F000
ENDCHAR
STARTCHAR 00B5
ENCODING 181
SWIDTH 612 0
DWIDTH 34 0
BBX 29 43 3 -12
BITMAP
FF003FC0
FF003FC0
FF003FC0
FF003FC0
FF003FC0
FF003FC0
FF003FC0
FF003FC0
FF003FC0
FF003FC0
FF003FC0
FF003FC0
FF003FC0
FF003FC0
FF003FC0
FF003FC0
FF003FC0
FF003FC0
FF003FC0
FF003FC0
FF003FC0
FF003FC0
FF807FC0
FF807FC0
FFC0FFC0
FFF3FFC0
FFFFFFF8
FFFFFFF8
FFFFFFF8
FFFFEFF8
FF7FC7F8
FF3F03F0
FF000000
FF000000
FF000000
FF000000
FF000000
FF000000
FF000000
FF000000
FF000000
FF000000
FF000000
ENDCHAR
STARTCHAR 00B6
ENCODING 182
SWIDTH 576 0
DWIDTH 32 0
BBX 29 52 1 -11
BITMAP
007FFFF8
03FFFFF8
07FFFFF8
0FFFFFF8
1FFF87C0
3FFF87C0
3FFF87C0
7FFF87C0
7FFF87C0
7FFF87C0
7FFF87C0
7FFF87C0
FFFF87C0
FFFF87C0
FFFF87C0
7FFF87C0
7FFF87C0
7FFF87C0
7FFF87C0
3FFF87C0
3FFF87C0
1FFF87C0
0FFF87C0
07FF87C0
03FF87C0
007F87C0
000F87C0
000F87C0
000F87C0
000F87C0
000F87C0
000F87C0
000F87C0
000F87C0
000F87C0
000F87C0
000F87C0
000F87C0
000F87C0
000F87C0
000F87C0
000F87C0
000F87C0
000F87C0
000F87C0
000F87C0
000F87C0
000F87C0
000F87C0
000F87C0
000F87C0
000F87C0
ENDCHAR
STARTCHAR 00B7
ENCODING 183
SWIDTH 288 0
DWIDTH 16 0
BBX 7 6 4 11
BITMAP
FE
FE
FE
FE
FE
FE
ENDCHAR
STARTCHAR 00B8
ENCODING 184
SWIDTH 342 0
DWIDTH 19 0
BBX 15 12 2 -12
BITMAP
01C0
0180
0380
03F8
07FC
087E
003E
003E
707E
FFFC
FFF8
0FE0
ENDCHAR
STARTCHAR 00B9
ENCODING 185
SWIDTH 342 0
DWIDTH 19 0
BBX 11 23 2 16
BITMAP
01E0
01E0
03E0
0FE0
FFE0
FFE0
FFE0
03E0
03E0
03E0
03E0
03E0
03E0
03E0
03E0
03E0
03E0
03E0
03E0
03E0
03E0
03E0
03E0
ENDCHAR
STARTCHAR 00BA
ENCODING 186
SWIDTH 360 0
DWIDTH 20 0
BBX 18 26 1 15
BITMAP
03F000
0FFC00
1FFE00
3FFF00
7E1F80
7C0F80
FC0FC0
F807C0
F807C0
F807C0
F807C0
F807C0
F807C0
FC0FC0
7C0F80
7E1F80
3FFF00
1FFE00
0FFC00
03F000
000000
000000
FFFF80
FFFF80
FFFF80
FFFF80
ENDCHAR
STARTCHAR 00BB
ENCODING 187
SWIDTH 558 0
DWIDTH 31 0
BBX 21 23 5 5
BITMAP
800800
C00C00
E00E00
F00F00
F80F80
FC0FC0
FE0FE0
7F07F0
3F83F8
1F81F8
078078
078078
0F80F8
1F81F8
3F83F8
7F07F0
FE0FE0
FC0FC0
F80F80
F00F00
E00E00
C00C00
800800
ENDCHAR
STARTCHAR 00BC
ENCODING 188
SWIDTH 864 0
DWIDTH 48 0
BBX 45 41 2 0
BITMAP
01E00003E000
01E00003C000
03E00007C000
0FE0000F8000
FFE0000F8000
FFE0001F0000
FFE0001F0000
03E0003E0000
03E0003C0000
03E0007C0000
03E000F80000
03E000F80000
03E001F00000
03E001F00000
03E003E00000
03E003C00000
03E007C00FC0
03E00F800FC0
03E00F801FC0
03E01F003FC0
03E01F003FC0
03E03E007FC0
03E03C00F7C0
00007C00F7C0
00007801E7C0
0000F803C7C0
0001F003C7C0
0001F00787C0
0003E00787C0
0003C00F07C0
0007C01E07C0
0007801FFFF8
000F801FFFF8
001F001FFFF8
001F001FFFF8
003E000007C0
003C000007C0
007C000007C0
0078000007C0
00F8000007C0
01F000000000
ENDCHAR
STARTCHAR 00BD
ENCODING 189
SWIDTH 864 0
DWIDTH 48 0
BBX 45 42 2 -1
BITMAP
00000003E000
01E00003E000
01E00007C000
03E00007C000
0FE0000F8000
FFE0000F0000
FFE0001F0000
FFE0001E0000
03E0003E0000
03E0007C0000
03E0007C0000
03E000F80000
03E000F00000
03E001F00000
03E001E00000
03E003E00000
03E007C07F00
03E007C1FFC0
03E00F83FFE0
03E00F07FFF0
03E01F07E3F0
03E01E0FC1F8
03E03E0F80F8
03E07C0F80F8
00007C0F80F8
0000F80000F8
0000F00001F0
0001F00003F0
0001E00007E0
0003E0000FE0
0007C0003F80
0007C0007F00
000F8001FE00
000F0003F800
001F0003F000
001E0007E000
003E0007FFF8
007C000FFFF8
007C000FFFF8
00F8000FFFF8
00F0000FFFF8
01F000000000
ENDCHAR
STARTCHAR 00BE
ENCODING 190
SWIDTH 864 0
DWIDTH 48 0
BBX 46 41 1 -1
BITMAP
0FF000003E00
3FFC00007C00
7FFF0000FC00
7FFF0000F800
FE1F8001F800
FC0F8001F000
F80F8003E000
F80F8003E000
000F8007C000
003F000FC000
03FE000F8000
03FC001F8000
03FE001F0000
03FF003E0000
003F803E0000
000F807C0000
F80F807C03F0
F80F80F807F0
F80F81F007F0
7E1F81F00FF0
7FFF03E01FF0
3FFF03E01FF0
1FFE07C03DF0
07F007C079F0
00000F80F9F0
00000F00F1F0
00001F01E1F0
00003E03E1F0
00003E03C1F0
00007C0781F0
0000780F81F0
0000F80FFFFC
0000F00FFFFC
0001F00FFFFC
0003E00FFFFC
0003E00001F0
0007C00001F0
0007800001F0
000F800001F0
000F000001F0
001F00000000
ENDCHAR
STARTCHAR 00BF
ENCODING 191
SWIDTH 612 0
DWIDTH 34 0
BBX 27 42 3 -12
BITMAP
003FC000
003FC000
003FC000
003FC000
003FC000
003FC000
003FC000
003FC000
00000000
00000000
00000000
00000000
003F8000
003F8000
003F8000
003F8000
007F0000
00FF0000
03FE0000
07FE0000
0FFC0000
1FF80000
3FF00000
7FE00000
7FC00000
FF800000
FF000000
FF001FE0
FF001FE0
FF001FE0
FF001FE0
FF001FE0
FF803FC0
7F807FC0
7FC0FFC0
7FFBFF80
3FFFFF80
1FFFFF00
0FFFFE00
07FFFC00
01FFF800
007FC000
ENDCHAR
STARTCHAR 00C0
ENCODING 192
SWIDTH 720 0
DWIDTH 40 0
BBX 37 53 2 0
BITMAP
003F800000
001FC00000
000FC00000
0007E00000
0003E00000
0003F00000
0001F00000
0000F00000
0000780000
0000000000
0000000000
0000000000
0003FE0000
0007FF0000
0007FF0000
0007FF0000
000FFF8000
000FFF8000
000FFF8000
001FFFC000
001FFFC000
003FFFC000
003FDFE000
003FDFE000
007F9FE000
007F8FF000
007F8FF000
00FF0FF000
00FF0FF800
00FF07F800
01FE07F800
01FE07FC00
01FE03FC00
03FC03FC00
03FC03FE00
03FC01FE00
07FC01FE00
07F801FF00
07FFFFFF00
0FFFFFFF00
0FFFFFFF80
1FFFFFFF80
1FFFFFFF80
1FFFFFFFC0
3FFFFFFFC0
3FE0003FC0
3FC0003FE0
7FC0001FE0
7FC0001FF0
7F80001FF0
FF80000FF0
FF00000FF8
FF00000FF8
ENDCHAR
STARTCHAR 00C1
ENCODING 193
SWIDTH 720 0
DWIDTH 40 0
BBX 37 52 2 1
BITMAP
00001FC000
00003F8000
00003F0000
00003E0000
00007C0000
0000780000
0000F80000
0000F00000
0000000000
0000000000
0000000000
0003FE0000
0007FF0000
0007FF0000
0007FF0000
000FFF8000
000FFF8000
000FFF8000
001FFFC000
001FFFC000
003FFFC000
003FDFE000
003FDFE000
007F9FE000
007F8FF000
007F8FF000
00FF0FF000
00FF0FF800
00FF07F800
01FE07F800
01FE07FC00
01FE03FC00
03FC03FC00
03FC03FE00
03FC01FE00
07FC01FE00
07F801FF00
07FFFFFF00
0FFFFFFF00
0FFFFFFF80
1FFFFFFF80
1FFFFFFF80
1FFFFFFFC0
3FFFFFFFC0
3FE0003FC0
3FC0003FE0
7FC0001FE0
7FC0001FF0
7F80001FF0
FF80000FF0
FF00000FF8
FF00000FF8
ENDCHAR
STARTCHAR 00C2
ENCODING 194
SWIDTH 720 0
DWIDTH 40 0
BBX 37 53 2 0
BITMAP
0001F80000
0001FC0000
0003FE0000
0007FE0000
000F9F0000
000F0F8000
001F078000
003E07C000
003C03E000
0000000000
0000000000
0000000000
0003FE0000
0007FF0000
0007FF0000
0007FF0000
000FFF8000
000FFF8000
000FFF8000
001FFFC000
001FFFC000
003FFFC000
003FDFE000
003FDFE000
007F9FE000
007F8FF000
007F8FF000
00FF0FF000
00FF0FF800
00FF07F800
01FE07F800
01FE07FC00
01FE03FC00
03FC03FC00
03FC03FE00
03FC01FE00
07FC01FE00
07F801FF00
07FFFFFF00
0FFFFFFF00
0FFFFFFF80
1FFFFFFF80
1FFFFFFF80
1FFFFFFFC0
3FFFFFFFC0
3FE0003FC0
3FC0003FE0
7FC0001FE0
7FC0001FF0
7F80001FF0
FF80000FF0
FF00000FF8
FF00000FF8
ENDCHAR
STARTCHAR 00C3
ENCODING 195
SWIDTH 720 0
DWIDTH 40 0
BBX 37 53 2 0
BITMAP
000E007000
001F807000
003FE0F000
003FF8F000
007FFFE000
0078FFE000
00783FC000
0070078000
0000000000
0000000000
0000000000
0000000000
0003FE0000
0007FE0000
0007FF0000
0007FF0000
000FFF0000
000FFF8000
000FFF8000
001FFF8000
001FFFC000
001FFFC000
003FFFC000
003FDFE000
003F9FE000
007F9FF000
007F8FF000
00FF0FF000
00FF0FF800
00FF07F800
01FF07F800
01FE07FC00
01FE03FC00
03FE03FC00
03FC03FE00
03FC01FE00
07FC01FE00
07F801FF00
07FFFFFF00
0FFFFFFF00
0FFFFFFF80
0FFFFFFF80
1FFFFFFF80
1FFFFFFFC0
1FFFFFFFC0
3FE0003FC0
3FC0003FE0
7FC0003FE0
7FC0001FE0
7F80001FF0
FF80001FF0
FF80000FF0
FF00000FF8
ENDCHAR
STARTCHAR 00C4
ENCODING 196
SWIDTH 720 0
DWIDTH 40 0
BBX 36 52 2 0
BITMAP
003F0FC000
003F0FC000
003F0FC000
003F0FC000
003F0FC000
003F0FC000
0000000000
0000000000
0000000000
0000000000
0000000000
0003FE0000
0007FE0000
0007FF0000
0007FF0000
000FFF0000
000FFF8000
001FFF8000
001FFF8000
001FFFC000
003FFFC000
003FFFC000
003FDFE000
007F9FE000
007F9FE000
007F8FF000
00FF0FF000
00FF0FF000
00FF0FF800
01FE07F800
01FE07F800
01FE07FC00
03FC03FC00
03FC03FC00
03FC03FE00
07F801FE00
07F801FE00
0FFFFFFF00
0FFFFFFF00
0FFFFFFF00
1FFFFFFF80
1FFFFFFF80
1FFFFFFF80
3FFFFFFFC0
3FC0003FC0
3FC0003FC0
7FC0003FE0
7F80001FE0
7F80001FE0
FF80001FF0
FF00000FF0
FF00000FF0
ENDCHAR
STARTCHAR 00C5
ENCODING 197
SWIDTH 720 0
DWIDTH 40 0
BBX 38 54 1 0
BITMAP
0000780000
0000FC0000
0001FE0000
0003CF0000
0003870000
0003870000
0003870000
0003CF0000
0001FE0000
0000FC0000
0000780000
0000000000
0000000000
0001FF0000
0003FF0000
0003FF8000
0007FF8000
0007FF8000
0007FFC000
000FFFC000
000FFFC000
000FFFE000
001FFFE000
001FFFE000
001FEFF000
003FCFF000
003FCFF800
003FC7F800
007F87F800
007F87FC00
007F83FC00
00FF03FC00
00FF03FE00
01FF01FE00
01FE01FE00
01FE01FF00
03FE00FF00
03FC00FF00
03FC00FF80
07FFFFFF80
07FFFFFF80
07FFFFFFC0
0FFFFFFFC0
0FFFFFFFC0
0FFFFFFFE0
1FFFFFFFE0
1FE0001FE0
1FE0001FF0
3FE0000FF0
3FC0000FF0
7FC0000FF8
7FC00007F8
7F800007F8
FF800007FC
ENDCHAR
STARTCHAR 00C6
ENCODING 198
SWIDTH 990 0
DWIDTH 55 0
BBX 53 41 0 0
BITMAP
0001FFFFFFFFF8
0003FFFFFFFFF8
0003FFFFFFFFF8
0007FFFFFFFFF8
0007FFFFFFFFF8
0007FFFFFFFFF8
000FFFFFFFFFF8
000FF0FF000000
000FF0FF000000
001FE0FF000000
001FE0FF000000
001FE0FF000000
003FC0FF000000
003FC0FF000000
003FC0FF000000
007F80FF000000
007F80FFFFFFE0
007F80FFFFFFE0
00FF00FFFFFFE0
00FF00FFFFFFE0
01FF00FFFFFFE0
01FE00FFFFFFE0
01FE00FFFFFFE0
03FC00FF000000
03FC00FF000000
03FFFFFF000000
07FFFFFF000000
07FFFFFF000000
07FFFFFF000000
0FFFFFFF000000
0FFFFFFF000000
0FFFFFFF000000
1FE000FF000000
1FE000FF000000
3FE000FFFFFFF8
3FC000FFFFFFF8
3FC000FFFFFFF8
7FC000FFFFFFF8
7F8000FFFFFFF8
7F8000FFFFFFF8
FF8000FFFFFFF8
ENDCHAR
STARTCHAR 00C7
ENCODING 199
SWIDTH 720 0
DWIDTH 40 0
BBX 35 54 3 -12
BITMAP
0000400000
001FFF8000
007FFFE000
01FFFFF800
03FFFFFC00
07FFFFFE00
0FFFFFFF00
1FFFFFFF80
1FFC01FFC0
3FF0007FC0
3FE0003FC0
7FC0003FC0
7FC0001FE0
7F80001FE0
7F80000000
FF80000000
FF00000000
FF00000000
FF00000000
FF00000000
FF00000000
FF00000000
FF00000000
FF00000000
FF00000000
FF00000000
FF00000000
FF00001FE0
7F80001FE0
7F80001FE0
7F80003FE0
7FC0003FC0
3FE0007FC0
3FF0007FC0
1FF800FF80
1FFE03FF80
0FFFFFFF00
07FFFFFF00
03FFFFFE00
01FFFFFC00
00FFFFF000
003FFFC000
0007FE0000
0000C00000
0001C00000
0003FC0000
0003FE0000
00043F0000
00001F0000
00001F0000
00703F0000
007FFE0000
007FFC0000
0007F00000
ENDCHAR
STARTCHAR 00C8
ENCODING 200
SWIDTH 648 0
DWIDTH 36 0
BBX 30 53 4 0
BITMAP
01FC0000
00FC0000
00FE0000
007E0000
003E0000
001F0000
000F0000
000F8000
00078000
00000000
00000000
00000000
FFFFFFF8
FFFFFFF8
FFFFFFF8
FFFFFFF8
FFFFFFF8
FFFFFFF8
FFFFFFF8
FF000000
FF000000
FF000000
FF000000
FF000000
FF000000
FF000000
FF000000
FF000000
FFFFFFE0
FFFFFFE0
FFFFFFE0
FFFFFFE0
FFFFFFE0
FFFFFFE0
FFFFFFE0
FF000000
FF000000
FF000000
FF000000
FF000000
FF000000
FF000000
FF000000
FF000000
FF000000
FF000000
FFFFFFFC
FFFFFFFC
FFFFFFFC
FFFFFFFC
FFFFFFFC
FFFFFFFC
FFFFFFFC
ENDCHAR
STARTCHAR 00C9
ENCODING 201
SWIDTH 648 0
DWIDTH 36 0
BBX 30 53 4 0
BITMAP
0001FC00
0003F800
0003F000
0007E000
0007C000
000FC000
000F8000
000F0000
001E0000
00000000
00000000
00000000
FFFFFFF8
FFFFFFF8
FFFFFFF8
FFFFFFF8
FFFFFFF8
FFFFFFF8
FFFFFFF8
FF000000
FF000000
FF000000
FF000000
FF000000
FF000000
FF000000
FF000000
FF000000
FFFFFFE0
FFFFFFE0
FFFFFFE0
FFFFFFE0
FFFFFFE0
FFFFFFE0
FFFFFFE0
FF000000
FF000000
FF000000
FF000000
FF000000
FF000000
FF000000
FF000000
FF000000
FF000000
FF000000
FFFFFFFC
FFFFFFFC
FFFFFFFC
FFFFFFFC
FFFFFFFC
FFFFFFFC
FFFFFFFC
ENDCHAR
STARTCHAR 00CA
ENCODING 202
SWIDTH 648 0
DWIDTH 36 0
BBX 30 53 4 0
BITMAP
001F8000
001FC000
003FE000
007FE000
0079F000
00F0F800
01F07800
01E03C00
03C03E00
00000000
00000000
00000000
FFFFFFF8
FFFFFFF8
FFFFFFF8
FFFFFFF8
FFFFFFF8
FFFFFFF8
FFFFFFF8
FF000000
FF000000
FF000000
FF000000
FF000000
FF000000
FF000000
FF000000
FF000000
FFFFFFE0
FFFFFFE0
FFFFFFE0
FFFFFFE0
FFFFFFE0
FFFFFFE0
FFFFFFE0
FF000000
FF000000
FF000000
FF000000
FF000000
FF000000
FF000000
FF000000
FF000000
FF000000
FF000000
FFFFFFFC
FFFFFFFC
FFFFFFFC
FFFFFFFC
FFFFFFFC
FFFFFFFC
FFFFFFFC
ENDCHAR
STARTCHAR 00CB
ENCODING 203
SWIDTH 648 0
DWIDTH 36 0
BBX 30 52 4 0
BITMAP
01F87E00
01F87E00
01F87E00
01F87E00
01F87E00
01F87E00
00000000
00000000
00000000
00000000
00000000
FFFFFFF8
FFFFFFF8
FFFFFFF8
FFFFFFF8
FFFFFFF8
FFFFFFF8
FFFFFFF8
FF000000
FF000000
FF000000
FF000000
FF000000
FF000000
FF000000
FF000000
FF000000
FFFFFFE0
FFFFFFE0
FFFFFFE0
FFFFFFE0
FFFFFFE0
FFFFFFE0
FFFFFFE0
FF000000
FF000000
FF000000
FF000000
FF000000
FF000000
FF000000
FF000000
FF000000
FF000000
FF000000
FFFFFFFC
FFFFFFFC
FFFFFFFC
FFFFFFFC
FFFFFFFC
FFFFFFFC
FFFFFFFC
ENDCHAR
STARTCHAR 00CC
ENCODING 204
SWIDTH 270 0
DWIDTH 15 0
BBX 12 53 0 0
BITMAP
FE00
7E00
3F00
3F00
1F00
0F80
0780
03C0
03C0
0000
0000
0000
0FF0
0FF0
0FF0
0FF0
0FF0
0FF0
0FF0
0FF0
0FF0
0FF0
0FF0
0FF0
0FF0
0FF0
0FF0
0FF0
0FF0
0FF0
0FF0
0FF0
0FF0
0FF0
0FF0
0FF0
0FF0
0FF0
0FF0
0FF0
0FF0
0FF0
0FF0
0FF0
0FF0
0FF0
0FF0
0FF0
0FF0
0FF0
0FF0
0FF0
0FF0
ENDCHAR
STARTCHAR 00CD
ENCODING 205
SWIDTH 252 0
DWIDTH 14 0
BBX 12 53 3 0
BITMAP
07F0
07E0
0FC0
0FC0
1F80
1F00
1E00
3C00
3C00
0000
0000
0000
FF00
FF00
FF00
FF00
FF00
FF00
FF00
FF00
FF00
FF00
FF00
FF00
FF00
FF00
FF00
FF00
FF00
FF00
FF00
FF00
FF00
FF00
FF00
FF00
FF00
FF00
FF00
FF00
FF00
FF00
FF00
FF00
FF00
FF00
FF00
FF00
FF00
FF00
FF00
FF00
FF00
ENDCHAR
STARTCHAR 00CE
ENCODING 206
SWIDTH 252 0
DWIDTH 14 0
BBX 16 53 -1 0
BITMAP
07E0
07F0
0FF0
1FF8
3E7C
3C3C
7C3E
F81F
F00F
0000
0000
0000
0FF0
0FF0
0FF0
0FF0
0FF0
0FF0
0FF0
0FF0
0FF0
0FF0
0FF0
0FF0
0FF0
0FF0
0FF0
0FF0
0FF0
0FF0
0FF0
0FF0
0FF0
0FF0
0FF0
0FF0
0FF0
0FF0
0FF0
0FF0
0FF0
0FF0
0FF0
0FF0
0FF0
0FF0
0FF0
0FF0
0FF0
0FF0
0FF0
0FF0
0FF0
ENDCHAR
STARTCHAR 00CF
ENCODING 207
SWIDTH 288 0
DWIDTH 16 0
BBX 16 52 0 0
BITMAP
FC3F
FC3F
FC3F
FC3F
FC3F
FC3F
0000
0000
0000
0000
0000
0FF0
0FF0
0FF0
0FF0
0FF0
0FF0
0FF0
0FF0
0FF0
0FF0
0FF0
0FF0
0FF0
0FF0
0FF0
0FF0
0FF0
0FF0
0FF0
0FF0
0FF0
0FF0
0FF0
0FF0
0FF0
0FF0
0FF0
0FF0
0FF0
0FF0
0FF0
0FF0
0FF0
0FF0
0FF0
0FF0
0FF0
0FF0
0FF0
0FF0
0FF0
ENDCHAR
STARTCHAR 00D0
ENCODING 208
SWIDTH 720 0
DWIDTH 40 0
BBX 38 41 0 0
BITMAP
0FFFFFC000
0FFFFFF800
0FFFFFFE00
0FFFFFFF00
0FFFFFFF80
0FFFFFFFC0
0FFFFFFFC0
0FF001FFE0
0FF0003FE0
0FF0001FF0
0FF0000FF0
0FF0000FF0
0FF00007F8
0FF00007F8
0FF00007F8
0FF00003F8
0FF00003FC
FFFFF803FC
FFFFF803FC
FFFFF803FC
FFFFF803FC
FFFFF803FC
0FF00003FC
0FF00003FC
0FF00003F8
0FF00003F8
0FF00007F8
0FF00007F8
0FF00007F8
0FF0000FF0
0FF0000FF0
0FF0001FF0
0FF0003FE0
0FF001FFE0
0FFFFFFFC0
0FFFFFFF80
0FFFFFFF80
0FFFFFFF00
0FFFFFFC00
0FFFFFF800
0FFFFFC000
ENDCHAR
STARTCHAR 00D1
ENCODING 209
SWIDTH 720 0
DWIDTH 40 0
BBX 33 53 4 0
BITMAP
003801C000
007E01C000
00FF81C000
00FFE3C000
01FFFF8000
01E3FF8000
01C07F8000
01C01E0000
0000000000
0000000000
0000000000
0000000000
FF00007F80
FF80007F80
FFC0007F80
FFC0007F80
FFE0007F80
FFE0007F80
FFF0007F80
FFF8007F80
FFF8007F80
FFFC007F80
FFFC007F80
FFFE007F80
FFFF007F80
FFFF007F80
FF7F807F80
FF3F807F80
FF3FC07F80
FF1FE07F80
FF1FE07F80
FF0FF07F80
FF07F07F80
FF07F87F80
FF03FC7F80
FF03FC7F80
FF01FE7F80
FF00FF7F80
FF00FF7F80
FF007FFF80
FF007FFF80
FF003FFF80
FF001FFF80
FF001FFF80
FF000FFF80
FF000FFF80
FF0007FF80
FF0003FF80
FF0003FF80
FF0001FF80
FF0001FF80
FF0000FF80
FF00007F80
ENDCHAR
STARTCHAR 00D2
ENCODING 210
SWIDTH 774 0
DWIDTH 43 0
BBX 39 54 2 -1
BITMAP
001FE00000
000FE00000
0007F00000
0003F00000
0001F80000
0000F80000
00007C0000
00003E0000
0000000000
0000000000
0000000000
0000000000
0007FFC000
003FFFF000
00FFFFFC00
01FFFFFE00
03FFFFFF80
07FFFFFFC0
0FFFFFFFC0
1FFE00FFE0
1FF8003FF0
3FF0001FF0
3FE0000FF8
7FC00007F8
7FC00007FC
7F800003FC
7F800003FC
FF000003FC
FF000001FC
FF000001FE
FF000001FE
FF000001FE
FF000001FE
FF000001FE
FF000001FE
FF000001FE
FF000001FE
FF000003FC
7F800003FC
7F800003FC
7F800007FC
7FC00007F8
3FC0000FF8
3FE0001FF8
1FF0003FF0
1FFC007FF0
0FFF01FFE0
07FFFFFFC0
03FFFFFF80
01FFFFFF00
00FFFFFE00
003FFFFC00
000FFFF000
0001FF0000
ENDCHAR
STARTCHAR 00D3
ENCODING 211
SWIDTH 774 0
DWIDTH 43 0
BBX 39 54 2 -1
BITMAP
00000FE000
00000FC000
00001F8000
00003F8000
00003F0000
00007E0000
00007C0000
0000F80000
0000000000
0000000000
0000000000
0000000000
0007FFC000
003FFFF000
00FFFFFC00
01FFFFFE00
03FFFFFF80
07FFFFFFC0
0FFFFFFFC0
1FFE00FFE0
1FF8003FF0
3FF0001FF0
3FE0000FF8
7FC00007F8
7FC00007FC
7F800003FC
7F800003FC
FF000003FC
FF000001FC
FF000001FE
FF000001FE
FF000001FE
FF000001FE
FF000001FE
FF000001FE
FF000001FE
FF000001FE
FF000003FC
7F800003FC
7F800003FC
7F800007FC
7FC00007F8
3FC0000FF8
3FE0001FF8
1FF0003FF0
1FFC007FF0
0FFF01FFE0
07FFFFFFC0
03FFFFFF80
01FFFFFF00
00FFFFFE00
003FFFFC00
000FFFF000
0001FF0000
ENDCHAR
STARTCHAR 00D4
ENCODING 212
SWIDTH 774 0
DWIDTH 43 0
BBX 39 54 2 -1
BITMAP
0000FE0000
0000FE0000
0001FF0000
0003EF8000
0007C7C000
000F83E000
001F01E000
001E00F000
0000000000
0000000000
0000000000
0000000000
0007FFC000
003FFFF000
00FFFFFC00
01FFFFFE00
03FFFFFF80
07FFFFFFC0
0FFFFFFFC0
1FFE00FFE0
1FF8003FF0
3FF0001FF0
3FE0000FF8
7FC00007F8
7FC00007FC
7F800003FC
7F800003FC
FF000003FC
FF000001FC
FF000001FE
FF000001FE
FF000001FE
FF000001FE
FF000001FE
FF000001FE
FF000001FE
FF000001FE
FF000003FC
7F800003FC
7F800003FC
7F800007FC
7FC00007F8
3FC0000FF8
3FE0001FF8
1FF0003FF0
1FFC007FF0
0FFF01FFE0
07FFFFFFC0
03FFFFFF80
01FFFFFF00
00FFFFFE00
003FFFFC00
000FFFF000
0001FF0000
ENDCHAR
STARTCHAR 00D5
ENCODING 213
SWIDTH 774 0
DWIDTH 43 0
BBX 39 54 2 -1
BITMAP
0007803800
000FE07800
001FFC7800
003FFFF800
003FFFF000
003C3FF000
003807C000
0000000000
0000000000
0000000000
0000000000
0000000000
0007FFC000
003FFFF000
00FFFFFC00
01FFFFFE00
03FFFFFF80
07FFFFFFC0
0FFFFFFFC0
1FFE00FFE0
1FF8003FF0
3FF0001FF0
3FE0000FF8
7FC00007F8
7FC00007FC
7F800003FC
7F800003FC
FF000003FC
FF000001FC
FF000001FE
FF000001FE
FF000001FE
FF000001FE
FF000001FE
FF000001FE
FF000001FE
FF000001FE
FF000003FC
7F000003FC
7F800003FC
7F800007FC
7FC0000FF8
3FC0000FF8
3FE0001FF8
1FF0003FF0
1FF8007FF0
0FFF03FFE0
07FFFFFFC0
03FFFFFF80
01FFFFFF00
00FFFFFE00
007FFFFC00
001FFFE000
0001FF0000
ENDCHAR
STARTCHAR 00D6
ENCODING 214
SWIDTH 774 0
DWIDTH 43 0
BBX 39 53 2 -1
BITMAP
001F83F000
001F83F000
001F83F000
001F83F000
001F83F000
001F83F000
0000000000
0000000000
0000000000
0000000000
0000000000
0007FFC000
003FFFF000
00FFFFFC00
01FFFFFE00
03FFFFFF80
07FFFFFFC0
0FFFFFFFC0
1FFE00FFE0
1FF8003FF0
3FF0001FF0
3FE0000FF8
7FC00007F8
7FC00007F8
7F800003FC
7F800003FC
FF000003FC
FF000001FC
FF000001FE
FF000001FE
FF000001FE
FF000001FE
FF000001FE
FF000001FE
FF000001FE
FF000001FE
FF000003FC
7F800003FC
7F800003FC
7F800007FC
7FC00007F8
3FE0000FF8
3FE0000FF8
1FF0001FF0
1FFC007FF0
0FFF01FFE0
07FFFFFFC0
03FFFFFF80
01FFFFFF00
00FFFFFE00
003FFFFC00
000FFFF000
0001FF8000
ENDCHAR
STARTCHAR 00D7
ENCODING 215
SWIDTH 576 0
DWIDTH 32 0
BBX 23 24 5 2
BITMAP
180020
1C0070
3E00F8
7F01FC
FF83FE
FFC7FC
7FEFF8
3FFFF0
1FFFE0
0FFFC0
07FF80
03FF00
03FF00
07FF80
0FFFC0
1FFFE0
3FFFF0
7FCFF8
FF87FC
FF03FE
7E01FC
3E00F8
1C0070
080020
ENDCHAR
STARTCHAR 00D8
ENCODING 216
SWIDTH 774 0
DWIDTH 43 0
BBX 40 44 2 -2
BITMAP
0000000008
0007FFC00C
001FFFF81F
007FFFFE3E
00FFFFFF7C
03FFFFFFF8
07FFFFFFF0
07FFFFFFE0
0FFE00FFE0
1FF8003FF0
1FF0001FF0
3FE0001FF8
3FC0003FF8
7FC0007FF8
7F8000FBFC
7F8001F3FC
FF0003E3FC
FF0007C1FC
FF000FC1FE
FF001F81FE
FF003F01FE
FF007E01FE
FF00FC01FE
FF00F801FE
FF01F001FE
FF03E001FE
FF07C003FC
7F0F8003FC
7F9F0003FC
7FBE0007FC
7FFC0007F8
3FFC000FF8
3FF8001FF0
1FF0003FF0
1FF8007FE0
0FFF01FFE0
0FFFFFFFC0
1FFFFFFF80
3FFFFFFF00
7DFFFFFE00
F87FFFF800
F81FFFE000
7003FF0000
2000000000
ENDCHAR
STARTCHAR 00D9
ENCODING 217
SWIDTH 720 0
DWIDTH 40 0
BBX 32 54 4 -1
BITMAP
00FE0000
007F0000
003F0000
001F8000
000FC000
0007C000
0003E000
0001E000
00000000
00000000
00000000
00000000
FF0000FF
FF0000FF
FF0000FF
FF0000FF
FF0000FF
FF0000FF
FF0000FF
FF0000FF
FF0000FF
FF0000FF
FF0000FF
FF0000FF
FF0000FF
FF0000FF
FF0000FF
FF0000FF
FF0000FF
FF0000FF
FF0000FF
FF0000FF
FF0000FF
FF0000FF
FF0000FF
FF0000FF
FF0000FF
FF0000FF
FF0000FF
FF0000FF
FF0000FF
FF0000FF
FF0000FF
FF0001FE
7F8001FE
7FC003FE
7FF00FFC
3FFFFFFC
1FFFFFF8
1FFFFFF0
07FFFFE0
03FFFFC0
00FFFF00
001FF800
ENDCHAR
STARTCHAR 00DA
ENCODING 218
SWIDTH 720 0
DWIDTH 40 0
BBX 32 54 4 -1
BITMAP
0000FF00
0000FE00
0001FC00
0001F800
0003F000
0003E000
0007C000
00078000
00000000
00000000
00000000
00000000
FF0000FF
FF0000FF
FF0000FF
FF0000FF
FF0000FF
FF0000FF
FF0000FF
FF0000FF
FF0000FF
FF0000FF
FF0000FF
FF0000FF
FF0000FF
FF0000FF
FF0000FF
FF0000FF
FF0000FF
FF0000FF
FF0000FF
FF0000FF
FF0000FF
FF0000FF
FF0000FF
FF0000FF
FF0000FF
FF0000FF
FF0000FF
FF0000FF
FF0000FF
FF0000FF
FF0000FF
FF0001FE
7F8001FE
7FC003FE
7FF00FFC
3FFFFFFC
1FFFFFF8
1FFFFFF0
07FFFFE0
03FFFFC0
00FFFF00
001FF800
ENDCHAR
STARTCHAR 00DB
ENCODING 219
SWIDTH 720 0
DWIDTH 40 0
BBX 32 54 4 -1
BITMAP
0007F000
000FF000
001FF800
003E7C00
007C7C00
00783E00
00F01F00
01F00F80
00000000
00000000
00000000
00000000
FF0000FF
FF0000FF
FF0000FF
FF0000FF
FF0000FF
FF0000FF
FF0000FF
FF0000FF
FF0000FF
FF0000FF
FF0000FF
FF0000FF
FF0000FF
FF0000FF
FF0000FF
FF0000FF
FF0000FF
FF0000FF
FF0000FF
FF0000FF
FF0000FF
FF0000FF
FF0000FF
FF0000FF
FF0000FF
FF0000FF
FF0000FF
FF0000FF
FF0000FF
FF0000FF
FF0000FF
FF0001FE
7F8001FE
7FC003FE
7FF00FFC
3FFFFFFC
1FFFFFF8
1FFFFFF0
07FFFFE0
03FFFFC0
00FFFF00
001FF800
ENDCHAR
STARTCHAR 00DC
ENCODING 220
SWIDTH 720 0
DWIDTH 40 0
BBX 32 53 4 -1
BITMAP
00FC3F00
00FC3F00
00FC3F00
00FC3F00
00FC3F00
00FC3F00
00000000
00000000
00000000
00000000
00000000
FF0000FF
FF0000FF
FF0000FF
FF0000FF
FF0000FF
FF0000FF
FF0000FF
FF0000FF
FF0000FF
FF0000FF
FF0000FF
FF0000FF
FF0000FF
FF0000FF
FF0000FF
FF0000FF
FF0000FF
FF0000FF
FF0000FF
FF0000FF
FF0000FF
FF0000FF
FF0000FF
FF0000FF
FF0000FF
FF0000FF
FF0000FF
FF0000FF
FF0000FF
FF0000FF
FF0000FF
FF0001FE
7F8001FE
7FC003FE
7FF00FFC
3FFFFFFC
1FFFFFF8
1FFFFFF0
07FFFFE0
03FFFFC0
00FFFF00
001FF800
ENDCHAR
STARTCHAR 00DD
ENCODING 221
SWIDTH 666 0
DWIDTH 37 0
BBX 33 53 2 0
BITMAP
00007F0000
00007E0000
0000FC0000
0000F80000
0000F80000
0001F00000
0001E00000
0003C00000
0003C00000
0000000000
0000000000
0000000000
FF8000FF80
FF8000FF80
7FC001FF00
7FC001FF00
3FE003FE00
3FE003FE00
1FF003FC00
1FF007FC00
0FF807F800
0FF80FF800
07F80FF000
03FC0FF000
03FC1FE000
01FE1FE000
01FE3FC000
00FF3FC000
00FF7F8000
007FFF8000
007FFF0000
003FFF0000
003FFE0000
001FFE0000
001FFC0000
000FFC0000
000FF80000
0007F80000
0007F80000
0007F80000
0007F80000
0007F80000
0007F80000
0007F80000
0007F80000
0007F80000
0007F80000
0007F80000
0007F80000
0007F80000
0007F80000
0007F80000
0007F80000
ENDCHAR
STARTCHAR 00DE
ENCODING 222
SWIDTH 666 0
DWIDTH 37 0
BBX 31 41 4 0
BITMAP
FF000000
FF000000
FF000000
FF000000
FF000000
FF000000
FF000000
FFFFFC00
FFFFFF80
FFFFFFE0
FFFFFFF0
FFFFFFF8
FFFFFFF8
FFFFFFFC
FF000FFC
FF0007FC
FF0003FE
FF0001FE
FF0001FE
FF0001FE
FF0001FE
FF0001FE
FF0001FE
FF0003FC
FF0007FC
FF000FFC
FFFFFFF8
FFFFFFF8
FFFFFFF0
FFFFFFF0
FFFFFFE0
FFFFFF80
FFFFFE00
FF000000
FF000000
FF000000
FF000000
FF000000
FF000000
FF000000
FF000000
ENDCHAR
STARTCHAR 00DF
ENCODING 223
SWIDTH 612 0
DWIDTH 34 0
BBX 28 42 4 -1
BITMAP
00FF8000
07FFF000
0FFFFC00
1FFFFE00
3FFFFF00
7FFFFF00
7FE3FF80
7F80FF80
FF007FC0
FF003FC0
FF003FC0
FF003FC0
FF003FC0
FF007F80
FF007F80
FF01FF00
FF0FFE00
FF0FF800
FF0FFE00
FF0FFF80
FF0FFFC0
FF00FFE0
FF003FE0
FF001FE0
FF001FF0
FF000FF0
FF000FF0
FF000FF0
FF000FF0
FF000FF0
FF000FF0
FF000FF0
FF001FE0
FF001FE0
FF003FE0
FF01FFC0
FF0FFFC0
FF0FFF80
FF0FFF00
FF0FFE00
FF0FFC00
000FF000
ENDCHAR
STARTCHAR 00E0
ENCODING 224
SWIDTH 576 0
DWIDTH 32 0
BBX 28 44 2 -1
BITMAP
03F80000
01F80000
00FC0000
007C0000
003E0000
001E0000
001F0000
000F0000
00000000
00000000
00000000
00000000
007FE000
03FFFC00
0FFFFE00
1FFFFF00
3FFFFF80
3FFFFF80
7FF9FFC0
7F807FC0
7F803FC0
7F003FC0
7F003FC0
00007FC0
0001FFC0
007FFFC0
07FFFFC0
1FFFFFC0
3FFFFFC0
7FFC3FC0
7FC03FC0
FF803FC0
FF003FC0
FF003FC0
FF007FC0
FF007FC0
FF80FFC0
FFE7FFC0
7FFFFFC0
7FFFFFC0
3FFFBFE0
3FFF3FE0
0FFE1FF0
03F00000
ENDCHAR
STARTCHAR 00E1
ENCODING 225
SWIDTH 576 0
DWIDTH 32 0
BBX 28 44 2 -1
BITMAP
0003F800
0003F000
0007E000
0007C000
000F8000
000F8000
001F0000
001E0000
00000000
00000000
00000000
00000000
007FE000
03FFFC00
0FFFFE00
1FFFFF00
3FFFFF80
3FFFFF80
7FF9FFC0
7F807FC0
7F803FC0
7F003FC0
7F003FC0
00007FC0
0001FFC0
007FFFC0
07FFFFC0
1FFFFFC0
3FFFFFC0
7FFC3FC0
7FC03FC0
FF803FC0
FF003FC0
FF003FC0
FF007FC0
FF007FC0
FF80FFC0
FFE7FFC0
7FFFFFC0
7FFFFFC0
3FFFBFE0
3FFF3FE0
0FFE1FF0
03F00000
ENDCHAR
STARTCHAR 00E2
ENCODING 226
SWIDTH 576 0
DWIDTH 32 0
BBX 28 44 2 -1
BITMAP
003F8000
003FC000
007FC000
00FBE000
01F1F000
01E0F800
03C07800
07803C00
00000000
00000000
00000000
00000000
007FE000
03FFFC00
0FFFFE00
1FFFFF00
3FFFFF80
3FFFFF80
7FF9FFC0
7F807FC0
7F803FC0
7F003FC0
7F003FC0
00007FC0
0001FFC0
007FFFC0
07FFFFC0
1FFFFFC0
3FFFFFC0
7FFC3FC0
7FC03FC0
FF803FC0
FF003FC0
FF003FC0
FF007FC0
FF007FC0
FF80FFC0
FFE7FFC0
7FFFFFC0
7FFFFFC0
3FFFBFE0
3FFF3FE0
0FFE1FF0
03F00000
ENDCHAR
STARTCHAR 00E3
ENCODING 227
SWIDTH 576 0
DWIDTH 32 0
BBX 28 43 2 -1
BITMAP
00000E00
03FC1E00
07FFFE00
0FFFFC00
0FFFFC00
0FFFF800
00000000
00000000
00000000
00000000
00000000
007FE000
03FFFC00
0FFFFE00
1FFFFF00
3FFFFF80
3FFFFF80
7FF9FFC0
7F807FC0
7F803FC0
7F003FC0
7F003FC0
00007FC0
0001FFC0
007FFFC0
07FFFFC0
1FFFFFC0
3FFFFFC0
7FFC3FC0
7FC03FC0
FF803FC0
FF003FC0
FF003FC0
FF007FC0
FF007FC0
FF80FFC0
FFE7FFC0
7FFFFFC0
7FFFFFC0
3FFFBFE0
3FFF3FE0
0FFE1FF0
03F00000
ENDCHAR
STARTCHAR 00E4
ENCODING 228
SWIDTH 576 0
DWIDTH 32 0
BBX 28 43 2 -1
BITMAP
07E0FC00
07E0FC00
07E0FC00
07E0FC00
07E0FC00
07E0FC00
00000000
00000000
00000000
00000000
00000000
007FE000
03FFFC00
0FFFFE00
1FFFFF00
3FFFFF80
3FFFFF80
7FF1FFC0
7F807FC0
7F803FC0
7F003FC0
7F003FC0
00007FC0
0001FFC0
00FFFFC0
07FFFFC0
1FFFFFC0
3FFFFFC0
7FFE3FC0
7FC03FC0
FF803FC0
FF003FC0
FF003FC0
FF007FC0
FF007FC0
FF80FFC0
FFE7FFC0
7FFFFFC0
7FFFFFC0
3FFFBFE0
3FFF3FE0
0FFE1FF0
03F00000
ENDCHAR
STARTCHAR 00E5
ENCODING 229
SWIDTH 576 0
DWIDTH 32 0
BBX 28 45 2 -1
BITMAP
000E0000
003F8000
007FC000
00F1C000
00E0E000
00E0E000
00E0E000
0071C000
007FC000
003F8000
000E0000
00000000
00000000
007FE000
03FFFC00
0FFFFE00
1FFFFF00
3FFFFF80
3FFFFF80
7FF1FFC0
7F807FC0
7F003FC0
7F003FC0
7F003FC0
00007FC0
0001FFC0
007FFFC0
07FFFFC0
1FFFFFC0
3FFFFFC0
7FFE3FC0
7FC03FC0
FF003FC0
FF003FC0
FF003FC0
FF007FC0
FF007FC0
FF80FFC0
FFE7FFC0
7FFFFFC0
7FFFFFC0
3FFFBFE0
3FFF3FE0
0FFE1FF0
03F00000
ENDCHAR
STARTCHAR 00E6
ENCODING 230
SWIDTH 882 0
DWIDTH 49 0
BBX 46 32 1 -1
BITMAP
007FC00FF000
03FFF87FFE00
0FFFFEFFFF00
1FFFFFFFFFC0
3FFFFFFFFFE0
3FFFFFFFFFE0
7FF1FFFE7FF0
7F803FF00FF0
7F803FE007F8
7F003FE007F8
00003FC003FC
00007FC003FC
0007FFC003FC
00FFFFFFFFFC
07FFFFFFFFFC
1FFFFFFFFFFC
3FFFBFFFFFFC
7FF83FFFFFFC
7FC03FC00000
FF803FC00000
FF003FC00000
FF003FC00000
FF007FE003FC
FF007FE007F8
FF80FFF00FF8
FFE7FFFC7FF0
7FFFF7FFFFF0
7FFFE3FFFFE0
3FFFC1FFFFC0
1FFF80FFFF00
0FFF007FFE00
03F8000FF000
ENDCHAR
STARTCHAR 00E7
ENCODING 231
SWIDTH 558 0
DWIDTH 31 0
BBX 27 43 2 -12
BITMAP
003FC000
01FFF800
03FFFE00
0FFFFF00
0FFFFF80
1FFFFF80
3FF9FFC0
3FE03FC0
7FC03FE0
7F801FE0
7F801FE0
FF000FE0
FF000000
FF000000
FF000000
FF000000
FF000000
FF000000
FF000000
FF000000
FF000FE0
7F801FE0
7F801FE0
7FC03FC0
3FE07FC0
3FFDFFC0
1FFFFF80
1FFFFF00
0FFFFE00
03FFFC00
01FFF800
003FC000
000C0000
001C0000
001FC000
003FE000
0003F000
0001F000
0001F000
0383F000
07FFE000
07FFC000
007F0000
ENDCHAR
STARTCHAR 00E8
ENCODING 232
SWIDTH 540 0
DWIDTH 30 0
BBX 28 44 1 -1
BITMAP
03F80000
01FC0000
00FC0000
007E0000
003F0000
001F0000
000F8000
00078000
00000000
00000000
00000000
00000000
003FC000
01FFF000
03FFFC00
07FFFE00
0FFFFF00
1FFFFF80
3FF9FF80
3FC03FC0
7F801FC0
7F801FE0
7F000FE0
FF000FE0
FF000FE0
FFFFFFF0
FFFFFFF0
FFFFFFF0
FFFFFFF0
FFFFFFF0
FF000000
FF000000
FF000000
7F000000
7F000FE0
7F801FE0
3FC03FE0
3FF9FFC0
1FFFFF80
1FFFFF00
0FFFFE00
07FFFC00
01FFF000
003FC000
ENDCHAR
STARTCHAR 00E9
ENCODING 233
SWIDTH 540 0
DWIDTH 30 0
BBX 28 44 1 -1
BITMAP
0001FC00
0001F800
0003F000
0003E000
0007C000
000FC000
000F8000
001F0000
00000000
00000000
00000000
00000000
003FC000
01FFF000
03FFFC00
07FFFE00
0FFFFF00
1FFFFF80
3FF9FF80
3FC03FC0
7F801FC0
7F801FE0
7F000FE0
FF000FE0
FF000FE0
FFFFFFF0
FFFFFFF0
FFFFFFF0
FFFFFFF0
FFFFFFF0
FF000000
FF000000
FF000000
7F000000
7F000FE0
7F801FE0
3FC03FE0
3FF9FFC0
1FFFFF80
1FFFFF00
0FFFFE00
07FFFC00
01FFF000
003FC000
ENDCHAR
STARTCHAR 00EA
ENCODING 234
SWIDTH 540 0
DWIDTH 30 0
BBX 28 44 1 -1
BITMAP
001FC000
001FE000
003FE000
007DF000
00F8F800
01F07800
01E03C00
03C01E00
00000000
00000000
00000000
00000000
003FC000
01FFF000
03FFFC00
07FFFE00
0FFFFF00
1FFFFF80
3FF9FF80
3FC03FC0
7F801FC0
7F801FE0
7F000FE0
FF000FE0
FF000FE0
FFFFFFF0
FFFFFFF0
FFFFFFF0
FFFFFFF0
FFFFFFF0
FF000000
FF000000
FF000000
7F000000
7F000FE0
7F801FE0
3FC03FE0
3FF9FFC0
1FFFFF80
1FFFFF00
0FFFFE00
07FFFC00
01FFF000
003FC000
ENDCHAR
STARTCHAR 00EB
ENCODING 235
SWIDTH 540 0
DWIDTH 30 0
BBX 28 43 1 -1
BITMAP
03F0FC00
03F0FC00
03F0FC00
03F0FC00
03F0FC00
03F0FC00
00000000
00000000
00000000
00000000
00000000
003FC000
01FFF000
03FFFC00
07FFFE00
0FFFFF00
1FFFFF80
3FF9FF80
3FC03FC0
7F801FC0
7F801FE0
7F000FE0
FF000FE0
FF000FE0
FFFFFFF0
FFFFFFF0
FFFFFFF0
FFFFFFF0
FFFFFFF0
FF000000
FF000000
FF000000
7F000000
7F000FE0
7F801FE0
3FC03FC0
3FF9FFC0
1FFFFF80
1FFFFF00
0FFFFE00
07FFFC00
01FFF000
003FC000
ENDCHAR
STARTCHAR 00EC
ENCODING 236
SWIDTH 288 0
DWIDTH 16 0
BBX 12 43 0 1
BITMAP
FE00
7E00
3F00
1F00
1F80
0F80
07C0
03C0
03C0
0000
0000
0000
0FF0
0FF0
0FF0
0FF0
0FF0
0FF0
0FF0
0FF0
0FF0
0FF0
0FF0
0FF0
0FF0
0FF0
0FF0
0FF0
0FF0
0FF0
0FF0
0FF0
0FF0
0FF0
0FF0
0FF0
0FF0
0FF0
0FF0
0FF0
0FF0
0FF0
0FF0
ENDCHAR
STARTCHAR 00ED
ENCODING 237
SWIDTH 288 0
DWIDTH 16 0
BBX 12 43 4 1
BITMAP
07F0
07E0
0FC0
0FC0
1F80
1F00
1E00
3E00
3C00
0000
0000
0000
FF00
FF00
FF00
FF00
FF00
FF00
FF00
FF00
FF00
FF00
FF00
FF00
FF00
FF00
FF00
FF00
FF00
FF00
FF00
FF00
FF00
FF00
FF00
FF00
FF00
FF00
FF00
FF00
FF00
FF00
FF00
ENDCHAR
STARTCHAR 00EE
ENCODING 238
SWIDTH 288 0
DWIDTH 16 0
BBX 17 43 0 1
BITMAP
07F000
0FF000
1FF800
1F7800
3E7C00
7C3E00
781E00
F81F00
F00F80
000000
000000
000000
0FF000
0FF000
0FF000
0FF000
0FF000
0FF000
0FF000
0FF000
0FF000
0FF000
0FF000
0FF000
0FF000
0FF000
0FF000
0FF000
0FF000
0FF000
0FF000
0FF000
0FF000
0FF000
0FF000
0FF000
0FF000
0FF000
0FF000
0FF000
0FF000
0FF000
0FF000
ENDCHAR
STARTCHAR 00EF
ENCODING 239
SWIDTH 288 0
DWIDTH 16 0
BBX 16 42 0 0
BITMAP
FC3F
FC3F
FC3F
FC3F
FC3F
FC3F
0000
0000
0000
0000
0000
0FF0
0FF0
0FF0
0FF0
0FF0
0FF0
0FF0
0FF0
0FF0
0FF0
0FF0
0FF0
0FF0
0FF0
0FF0
0FF0
0FF0
0FF0
0FF0
0FF0
0FF0
0FF0
0FF0
0FF0
0FF0
0FF0
0FF0
0FF0
0FF0
0FF0
0FF0
ENDCHAR
STARTCHAR 00F0
ENCODING 240
SWIDTH 612 0
DWIDTH 34 0
BBX 30 43 2 -1
BITMAP
00801000
01F07C00
07F9F800
03FFF000
00FFC000
003FC000
007FF000
01FFF800
01E3FC00
00C1FE00
0000FF00
00007F80
007F3F80
01FFFFC0
07FFFFE0
0FFFFFE0
1FFFFFF0
1FFFFFF0
3FFCFFF8
7FE01FF8
7FC00FF8
7F800FF8
FF8007F8
FF0007FC
FF0003FC
FF0003FC
FF0003FC
FF0003FC
FF0003FC
FF0003FC
FF0003FC
FF0007F8
7F8007F8
7F800FF8
7FC00FF0
3FE01FF0
3FFCFFE0
1FFFFFE0
0FFFFFC0
07FFFF80
03FFFF00
00FFFC00
003FE000
ENDCHAR
STARTCHAR 00F1
ENCODING 241
SWIDTH 594 0
DWIDTH 33 0
BBX 27 42 3 0
BITMAP
00000E00
03F01E00
07FE1E00
07FFFE00
0FFFFC00
0FFFFC00
0E03F000
00000000
00000000
00000000
00000000
FF0FF000
FF3FFE00
FF7FFF00
FFFFFF80
FFFFFF80
FFFFFFC0
FFF9FFC0
FFC07FC0
FF803FE0
FF001FE0
FF001FE0
FF001FE0
FF001FE0
FF001FE0
FF001FE0
FF001FE0
FF001FE0
FF001FE0
FF001FE0
FF001FE0
FF001FE0
FF001FE0
FF001FE0
FF001FE0
FF001FE0
FF001FE0
FF001FE0
FF001FE0
FF001FE0
FF001FE0
FF001FE0
ENDCHAR
STARTCHAR 00F2
ENCODING 242
SWIDTH 612 0
DWIDTH 34 0
BBX 30 44 2 -1
BITMAP
01FC0000
00FE0000
007E0000
003F0000
001F0000
000F8000
00078000
0003C000
00000000
00000000
00000000
00000000
001FE000
00FFFC00
03FFFF00
07FFFF80
0FFFFFC0
1FFFFFE0
3FFCFFE0
3FE03FF0
7FC00FF0
7F800FF8
7F8007F8
FF0007F8
FF0003F8
FF0003FC
FF0003FC
FF0003FC
FF0003FC
FF0003FC
FF0003FC
FF0003FC
FF0007F8
7F8007F8
7F800FF8
7FC00FF0
3FE01FF0
3FFCFFE0
1FFFFFE0
0FFFFFC0
07FFFF80
03FFFF00
00FFFC00
001FE000
ENDCHAR
STARTCHAR 00F3
ENCODING 243
SWIDTH 612 0
DWIDTH 34 0
BBX 30 44 2 -1
BITMAP
0001FC00
0001FC00
0003F800
0003F000
0007E000
0007C000
000F8000
000F0000
00000000
00000000
00000000
00000000
001FE000
00FFFC00
03FFFF00
07FFFF80
0FFFFFC0
1FFFFFE0
3FFCFFE0
3FE03FF0
7FC00FF0
7F800FF8
7F8007F8
FF0007F8
FF0003F8
FF0003FC
FF0003FC
FF0003FC
FF0003FC
FF0003FC
FF0003FC
FF0003FC
FF0007F8
7F8007F8
7F800FF8
7FC00FF0
3FE01FF0
3FFCFFE0
1FFFFFE0
0FFFFFC0
07FFFF80
03FFFF00
00FFFC00
001FE000
ENDCHAR
STARTCHAR 00F4
ENCODING 244
SWIDTH 612 0
DWIDTH 34 0
BBX 30 44 2 -1
BITMAP
000FC000
001FE000
003FF000
007DF000
0078F800
00F07C00
01F03E00
03E01E00
00000000
00000000
00000000
00000000
001FE000
00FFFC00
03FFFF00
07FFFF80
0FFFFFC0
1FFFFFE0
3FFCFFE0
3FE03FF0
7FC00FF0
7F800FF8
7F8007F8
FF0007F8
FF0003F8
FF0003FC
FF0003FC
FF0003FC
FF0003FC
FF0003FC
FF0003FC
FF0003FC
FF0007F8
7F8007F8
7F800FF8
7FC00FF0
3FE01FF0
3FFCFFE0
1FFFFFE0
0FFFFFC0
07FFFF80
03FFFF00
00FFFC00
001FE000
ENDCHAR
STARTCHAR 00F5
ENCODING 245
SWIDTH 612 0
DWIDTH 34 0
BBX 30 43 2 -1
BITMAP
00000700
01FF0700
03FFFF00
07FFFF00
07FFFE00
07FFFC00
00000000
00000000
00000000
00000000
00000000
001FE000
00FFFC00
03FFFF00
07FFFF80
0FFFFFC0
1FFFFFE0
3FFCFFE0
3FE03FF0
7FC00FF0
7F800FF8
7F8007F8
FF0007F8
FF0003F8
FF0003FC
FF0003FC
FF0003FC
FF0003FC
FF0003FC
FF0003FC
FF0003FC
FF0007F8
7F8007F8
7F800FF8
7FC00FF0
3FE01FF0
3FFCFFE0
1FFFFFE0
0FFFFFC0
07FFFF80
03FFFF00
00FFFC00
001FE000
ENDCHAR
STARTCHAR 00F6
ENCODING 246
SWIDTH 612 0
DWIDTH 34 0
BBX 30 43 2 -1
BITMAP
01F87E00
01F87E00
01F87E00
01F87E00
01F87E00
01F87E00
00000000
00000000
00000000
00000000
00000000
001FE000
00FFFC00
03FFFF00
07FFFF80
0FFFFFC0
1FFFFFE0
3FFCFFE0
3FE03FF0
7FC00FF0
7F800FF8
7F8007F8
FF0007F8
FF0003F8
FF0003FC
FF0003FC
FF0003FC
FF0003FC
FF0003FC
FF0003FC
FF0003FC
FF0007F8
7F8007F8
7F800FF8
7FC00FF0
3FE01FF0
3FFCFFE0
1FFFFFE0
0FFFFFC0
07FFFF80
03FFFF00
00FFFC00
001FE000
ENDCHAR
STARTCHAR 00F7
ENCODING 247
SWIDTH 594 0
DWIDTH 33 0
BBX 27 27 3 -1
BITMAP
003F8000
003F8000
003F8000
003F8000
003F8000
003F8000
00000000
00000000
00000000
00000000
FFFFFFE0
FFFFFFE0
FFFFFFE0
FFFFFFE0
FFFFFFE0
FFFFFFE0
00000000
00000000
00000000
00000000
00000000
003F8000
003F8000
003F8000
003F8000
003F8000
003F8000
ENDCHAR
STARTCHAR 00F8
ENCODING 248
SWIDTH 612 0
DWIDTH 34 0
BBX 32 32 1 -1
BITMAP
000FF006
007FFE0F
01FFFF9F
03FFFFFE
07FFFFFC
0FFFFFF8
1FFE7FF0
1FF01FF8
3FE00FF8
3FC00FFC
3FC01FFC
7F803FFC
7F807FFC
7F80F9FE
7F81F1FE
7F83E1FE
7F87C1FE
7F8F81FE
7F9F01FE
7FBE01FE
7FFC03FC
3FF803FC
3FF007FC
3FE007F8
1FF01FF8
1FFE7FF0
1FFFFFF0
1FFFFFE0
3FFFFFC0
79FFFF80
F07FFE00
600FF000
ENDCHAR
STARTCHAR 00F9
ENCODING 249
SWIDTH 612 0
DWIDTH 34 0
BBX 27 44 3 -1
BITMAP
03F80000
01F80000
00FC0000
007C0000
003E0000
001E0000
001F0000
000F0000
00000000
00000000
00000000
00000000
FF001FE0
FF001FE0
FF001FE0
FF001FE0
FF001FE0
FF001FE0
FF001FE0
FF001FE0
FF001FE0
FF001FE0
FF001FE0
FF001FE0
FF001FE0
FF001FE0
FF001FE0
FF001FE0
FF001FE0
FF001FE0
FF001FE0
FF001FE0
FF001FE0
FF001FE0
FF003FE0
FF003FE0
FF807FE0
7FF3FFE0
7FFFFFE0
7FFFFFE0
3FFFDFE0
1FFF9FE0
0FFF1FE0
03FC0000
ENDCHAR
STARTCHAR 00FA
ENCODING 250
SWIDTH 612 0
DWIDTH 34 0
BBX 27 44 3 0
BITMAP
0003F800
0007F000
0007E000
000FC000
000F8000
001F0000
001E0000
003E0000
00000000
00000000
00000000
00000000
FF001FE0
FF001FE0
FF001FE0
FF001FE0
FF001FE0
FF001FE0
FF001FE0
FF001FE0
FF001FE0
FF001FE0
FF001FE0
FF001FE0
FF001FE0
FF001FE0
FF001FE0
FF001FE0
FF001FE0
FF001FE0
FF001FE0
FF001FE0
FF001FE0
FF001FE0
FF003FE0
FF003FE0
FF807FE0
7FF3FFE0
7FFFFFE0
7FFFFFE0
3FFFDFE0
1FFF9FE0
0FFF1FE0
03FC0000
ENDCHAR
STARTCHAR 00FB
ENCODING 251
SWIDTH 612 0
DWIDTH 34 0
BBX 27 44 3 -1
BITMAP
003F8000
003F8000
007FC000
00FBE000
01F1F000
03E0F000
03C07800
07807C00
00000000
00000000
00000000
00000000
FF001FE0
FF001FE0
FF001FE0
FF001FE0
FF001FE0
FF001FE0
FF001FE0
FF001FE0
FF001FE0
FF001FE0
FF001FE0
FF001FE0
FF001FE0
FF001FE0
FF001FE0
FF001FE0
FF001FE0
FF001FE0
FF001FE0
FF001FE0
FF001FE0
FF001FE0
FF003FE0
FF003FE0
FF807FE0
7FF3FFE0
7FFFFFE0
7FFFFFE0
3FFFDFE0
1FFF9FE0
0FFF1FE0
03FC0000
ENDCHAR
STARTCHAR 00FC
ENCODING 252
SWIDTH 612 0
DWIDTH 34 0
BBX 27 43 3 -1
BITMAP
07E1F800
07E1F800
07E1F800
07E1F800
07E1F800
07E1F800
00000000
00000000
00000000
00000000
00000000
FF001FE0
FF001FE0
FF001FE0
FF001FE0
FF001FE0
FF001FE0
FF001FE0
FF001FE0
FF001FE0
FF001FE0
FF001FE0
FF001FE0
FF001FE0
FF001FE0
FF001FE0
FF001FE0
FF001FE0
FF001FE0
FF001FE0
FF001FE0
FF001FE0
FF001FE0
FF003FE0
FF003FE0
FF807FE0
7FF3FFE0
7FFFFFE0
7FFFFFE0
3FFFDFE0
1FFF9FE0
0FFF1FE0
03FC0000
ENDCHAR
STARTCHAR 00FD
ENCODING 253
SWIDTH 558 0
DWIDTH 31 0
BBX 29 55 1 -12
BITMAP
0001FC00
0003F800
0003F000
0007E000
0007C000
000F8000
000F0000
000F0000
00000000
00000000
00000000
00000000
FF8007F8
FF8007F8
7F800FF0
7FC00FF0
7FC00FF0
3FC00FE0
3FC01FE0
1FE01FE0
1FE01FC0
1FE03FC0
0FF03FC0
0FF03F80
0FF03F80
07F87F80
07F87F00
07F87F00
03F8FE00
03FCFE00
03FCFE00
01FCFC00
01FFFC00
00FFFC00
00FFF800
00FFF800
007FF800
007FF000
007FF000
003FF000
003FE000
003FE000
001FE000
001FC000
001FC000
001FC000
003F8000
007F8000
09FF8000
0FFF0000
0FFF0000
0FFE0000
0FFE0000
0FF80000
0FE00000
ENDCHAR
STARTCHAR 00FE
ENCODING 254
SWIDTH 612 0
DWIDTH 34 0
BBX 29 53 3 -12
BITMAP
FF000000
FF000000
FF000000
FF000000
FF000000
FF000000
FF000000
FF000000
FF000000
FF000000
FF07F000
FF1FFC00
FF7FFE00
FF7FFF00
FFFFFF80
FFFFFFC0
FFF9FFE0
FFE03FE0
FFC01FE0
FF801FF0
FF800FF0
FF000FF0
FF0007F0
FF0007F8
FF0007F8
FF0007F8
FF0007F8
FF0007F8
FF0007F8
FF0007F8
FF000FF0
FF800FF0
FF801FF0
FFC01FE0
FFE03FE0
FFFDFFC0
FFFFFFC0
FFFFFF80
FF7FFF00
FF7FFE00
FF1FFC00
FF07E000
FF000000
FF000000
FF000000
FF000000
FF000000
FF000000
FF000000
FF000000
FF000000
FF000000
FF000000
ENDCHAR
STARTCHAR 00FF
ENCODING 255
SWIDTH 540 0
DWIDTH 30 0
BBX 28 54 1 -12
BITMAP
03F0FC00
03F0FC00
03F0FC00
03F0FC00
03F0FC00
03F0FC00
00000000
00000000
00000000
00000000
00000000
FF000FF0
FF800FF0
7F800FF0
7F801FE0
7FC01FE0
3FC01FE0
3FC01FC0
1FC03FC0
1FE03FC0
1FE03F80
0FE07F80
0FF07F80
0FF07F00
07F07F00
07F0FF00
07F8FE00
03F8FE00
03F8FE00
03FDFC00
01FDFC00
01FDFC00
00FFF800
00FFF800
00FFF800
007FF000
007FF000
007FF000
003FE000
003FE000
003FE000
001FC000
001FC000
001FC000
001F8000
003F8000
007F8000
09FF0000
0FFF0000
0FFF0000
0FFE0000
0FFC0000
0FF80000
0FE00000
ENDCHAR
STARTCHAR 0100
ENCODING 256
SWIDTH 738 0
DWIDTH 41 0
BBX 37 51 2 0
BITMAP
003FFFE000
003FFFE000
003FFFE000
003FFFE000
0000000000
0000000000
0000000000
0000000000
0000000000
0000000000
0003FF0000
0007FF0000
0007FF0000
0007FF8000
000FFF8000
000FFF8000
000FFFC000
001FFFC000
001FFFC000
001FFFE000
003FDFE000
003FDFE000
003FDFF000
007F8FF000
007F8FF000
00FF8FF800
00FF07F800
00FF07F800
01FF07FC00
01FE03FC00
01FE03FC00
03FE03FE00
03FC01FE00
03FC01FE00
07FC01FF00
07F800FF00
07FFFFFF80
0FFFFFFF80
0FFFFFFF80
0FFFFFFFC0
1FFFFFFFC0
1FFFFFFFC0
3FFFFFFFE0
3FE0003FE0
3FC0001FE0
7FC0001FF0
7FC0001FF0
7F80000FF0
FF80000FF8
FF80000FF8
FF000007F8
ENDCHAR
STARTCHAR 0101
ENCODING 257
SWIDTH 576 0
DWIDTH 32 0
BBX 28 42 2 -1
BITMAP
07FFFC00
07FFFC00
07FFFC00
07FFFC00
00000000
00000000
00000000
00000000
00000000
00000000
007FE000
03FFFC00
0FFFFE00
1FFFFF00
3FFFFF80
3FFFFF80
7FF9FFC0
7F807FC0
7F803FC0
7F003FC0
7F003FC0
00007FC0
0001FFC0
007FFFC0
07FFFFC0
1FFFFFC0
3FFFFFC0
7FFC3FC0
7FC03FC0
FF803FC0
FF003FC0
FF003FC0
FF007FC0
FF007FC0
FF80FFC0
FFE7FFC0
7FFFFFC0
7FFFFFC0
3FFFBFE0
3FFF3FE0
0FFE1FF0
03F00000
ENDCHAR
STARTCHAR 0102
ENCODING 258
SWIDTH 738 0
DWIDTH 41 0
BBX 38 52 2 0
BITMAP
001C01C000
001E03C000
001E03C000
001F078000
000FFF8000
0007FF0000
0003FE0000
0000F80000
0000000000
0000000000
0000000000
0003FF0000
0003FF0000
0007FF0000
0007FF8000
0007FF8000
000FFFC000
000FFFC000
000FFFC000
001FFFE000
001FFFE000
003FFFE000
003FDFF000
003FCFF000
007FCFF000
007F8FF800
007F87F800
00FF87F800
00FF07FC00
00FF03FC00
01FF03FC00
01FE03FE00
01FE01FE00
03FE01FE00
03FC01FF00
03FC00FF00
07FC00FF00
07FFFFFF80
0FFFFFFF80
0FFFFFFF80
0FFFFFFFC0
1FFFFFFFC0
1FFFFFFFC0
1FFFFFFFE0
3FE0001FE0
3FC0001FE0
3FC0001FF0
7FC0000FF0
7F80000FF0
7F80000FF8
FF800007F8
FF000007FC
ENDCHAR
STARTCHAR 0103
ENCODING 259
SWIDTH 576 0
DWIDTH 32 0
BBX 28 43 2 0
BITMAP
03C03800
03C07800
03E0F800
01FFF000
00FFE000
007FC000
001F8000
00000000
00000000
00000000
00000000
007FE000
03FFFC00
0FFFFE00
1FFFFF00
3FFFFF80
3FFFFF80
7FF9FFC0
7F807FC0
7F803FC0
7F003FC0
7F003FC0
00007FC0
0001FFC0
007FFFC0
07FFFFC0
1FFFFFC0
3FFFFFC0
7FFC3FC0
7FC03FC0
FF803FC0
FF003FC0
FF003FC0
FF007FC0
FF007FC0
FF80FFC0
FFE7FFC0
7FFFFFC0
7FFFFFC0
3FFFBFE0
3FFF3FE0
0FFE1FF0
03F00000
ENDCHAR
STARTCHAR 0104
ENCODING 260
SWIDTH 720 0
DWIDTH 40 0
BBX 38 54 2 -13
BITMAP
0003FF0000
0003FF0000
0007FF0000
0007FF8000
000FFF8000
000FFF8000
000FFFC000
001FFFC000
001FFFC000
001FFFE000
003FDFE000
003FDFE000
003FDFE000
007F8FF000
007F8FF000
007F8FF000
00FF07F800
00FF07F800
00FF07F800
01FE03FC00
01FE03FC00
03FE03FC00
03FC01FE00
03FC01FE00
07FC01FE00
07F800FF00
07FFFFFF00
0FFFFFFF00
0FFFFFFF80
0FFFFFFF80
1FFFFFFF80
1FFFFFFFC0
1FFFFFFFC0
3FE0003FC0
3FC0001FE0
3FC0001FE0
7FC0001FE0
7F80000FF0
7F80000FF0
FF80000FF0
FF000007F8
00000000F0
00000003C0
0000000F80
0000000F00
0000001F00
0000003E00
0000003E00
0000003E00
0000003E00
0000003F00
0000001FFC
0000000FFC
00000003FC
ENDCHAR
STARTCHAR 0105
ENCODING 261
SWIDTH 558 0
DWIDTH 31 0
BBX 29 44 2 -13
BITMAP
007FE000
03FFFC00
0FFFFE00
1FFFFF00
3FFFFF80
3FFFFF80
7FF9FFC0
7F807FC0
7F803FC0
7F003FC0
7F003FC0
00007FC0
0001FFC0
007FFFC0
07FFFFC0
0FFFFFC0
3FFFFFC0
7FFE3FC0
7FC03FC0
7F803FC0
FF003FC0
FF003FC0
FF003FC0
FF007FC0
FF80FFC0
FFF7FFC0
7FFFFFC0
7FFFFFC0
3FFFBFE0
3FFF3FE0
0FFE1FF0
03F003E0
000007C0
00001F00
00003E00
00003E00
00007C00
00007C00
00007C00
00007C00
00007E00
00003FF8
00001FF8
000007F0
ENDCHAR
STARTCHAR 0106
ENCODING 262
SWIDTH 720 0
DWIDTH 40 0
BBX 35 54 3 -1
BITMAP
00003F8000
00003F0000
00007E0000
00007C0000
0000FC0000
0000F80000
0001F00000
0001E00000
0000000000
0000000000
0000000000
0000400000
001FFF8000
007FFFE000
01FFFFF800
03FFFFFC00
07FFFFFE00
0FFFFFFF00
1FFFFFFF80
1FFC01FF80
3FF000FFC0
3FE0007FC0
7FC0003FC0
7FC0003FE0
7F80001FE0
7F80000000
FF80000000
FF00000000
FF00000000
FF00000000
FF00000000
FF00000000
FF00000000
FF00000000
FF00000000
FF00000000
FF00000000
FF00000000
FF00000000
FF80001FE0
7F80001FE0
7F80003FE0
7FC0003FE0
3FE0007FC0
3FF0007FC0
1FF800FFC0
1FFE07FF80
0FFFFFFF00
07FFFFFE00
03FFFFFE00
01FFFFF800
00FFFFF000
003FFFC000
0007FE0000
ENDCHAR
STARTCHAR 0107
ENCODING 263
SWIDTH 558 0
DWIDTH 31 0
BBX 27 44 2 -1
BITMAP
0001FC00
0003F800
0003F000
0007E000
0007C000
000F8000
000F0000
001E0000
00000000
00000000
00000000
00000000
003FC000
01FFF800
03FFFE00
0FFFFF00
0FFFFF80
1FFFFF80
3FF9FFC0
3FE03FC0
7FC03FE0
7F801FE0
7F801FE0
FF000FE0
FF000000
FF000000
FF000000
FF000000
FF000000
FF000000
FF000000
FF000000
FF000FE0
7F801FE0
7F801FE0
7FC03FC0
3FE07FC0
3FF9FFC0
1FFFFF80
1FFFFF00
0FFFFE00
07FFFC00
01FFF800
003FC000
ENDCHAR
STARTCHAR 0108
ENCODING 264
SWIDTH 720 0
DWIDTH 40 0
BBX 35 55 3 -1
BITMAP
0001F80000
0003FC0000
0003FE0000
0007BE0000
000F9F0000
001F0F8000
003E07C000
003C03C000
0000000000
0000000000
0000000000
0000000000
0000400000
001FFF8000
007FFFE000
01FFFFF800
03FFFFFC00
07FFFFFE00
0FFFFFFF00
1FFFFFFF80
1FFC01FF80
3FF000FFC0
3FE0007FC0
7FC0003FC0
7FC0003FE0
7F80001FE0
7F80000000
FF80000000
FF00000000
FF00000000
FF00000000
FF00000000
FF00000000
FF00000000
FF00000000
FF00000000
FF00000000
FF00000000
FF00000000
FF00000000
FF80001FE0
7F80001FE0
7F80003FE0
7FC0003FE0
3FE0007FC0
3FF0007FC0
1FF800FFC0
1FFE07FF80
0FFFFFFF00
07FFFFFE00
03FFFFFE00
01FFFFF800
00FFFFF000
003FFFC000
0007FE0000
ENDCHAR
STARTCHAR 0109
ENCODING 265
SWIDTH 558 0
DWIDTH 31 0
BBX 27 44 2 -1
BITMAP
001FC000
003FC000
003FE000
0079F000
00F8F000
01F07800
03E07C00
03C03E00
00000000
00000000
00000000
00000000
003FC000
01FFF800
03FFFE00
0FFFFF00
0FFFFF80
1FFFFF80
3FF9FFC0
3FE03FC0
7FC03FE0
7F801FE0
7F801FE0
FF000FE0
FF000000
FF000000
FF000000
FF000000
FF000000
FF000000
FF000000
FF000000
FF000FE0
7F801FE0
7F801FE0
7FC03FC0
3FE07FC0
3FF9FFC0
1FFFFF80
1FFFFF00
0FFFFE00
07FFFC00
01FFF800
003FC000
ENDCHAR
STARTCHAR 010A
ENCODING 266
SWIDTH 720 0
DWIDTH 40 0
BBX 35 53 3 -1
BITMAP
0001F80000
0001F80000
0001F80000
0001F80000
0001F80000
0001F80000
0000000000
0000000000
0000000000
0000000000
0000400000
001FFF8000
007FFFE000
01FFFFF800
03FFFFFC00
07FFFFFE00
0FFFFFFF00
1FFFFFFF80
1FFC01FF80
3FF000FFC0
3FE0007FC0
7FC0003FC0
7FC0003FE0
7F80001FE0
7F80000000
FF80000000
FF00000000
FF00000000
FF00000000
FF00000000
FF00000000
FF00000000
FF00000000
FF00000000
FF00000000
FF00000000
FF00000000
FF00000000
FF80001FE0
7F80001FE0
7F80003FE0
7FC0003FE0
3FE0007FC0
3FF0007FC0
1FF801FF80
1FFE07FF80
0FFFFFFF00
07FFFFFE00
03FFFFFC00
01FFFFF800
00FFFFF000
003FFFC000
0007FE0000
ENDCHAR
STARTCHAR 010B
ENCODING 267
SWIDTH 558 0
DWIDTH 31 0
BBX 27 42 2 -1
BITMAP
001F8000
001F8000
001F8000
001F8000
001F8000
001F8000
00000000
00000000
00000000
00000000
003FC000
01FFF800
03FFFE00
0FFFFF00
0FFFFF80
1FFFFF80
3FF9FFC0
3FE07FC0
7FC03FE0
7F801FE0
7F801FE0
FF001FE0
FF000000
FF000000
FF000000
FF000000
FF000000
FF000000
FF000000
FF000000
FF001FE0
7F801FE0
7F801FE0
7FC03FC0
3FE07FC0
3FF9FFC0
1FFFFF80
1FFFFF00
0FFFFE00
07FFFC00
01FFF800
003FC000
ENDCHAR
STARTCHAR 010C
ENCODING 268
SWIDTH 720 0
DWIDTH 40 0
BBX 35 54 3 -1
BITMAP
007C03E000
003C07C000
001E0F8000
001F0F0000
000F9E0000
0007FE0000
0003FC0000
0003F80000
0000000000
0000000000
0000000000
0000400000
001FFF8000
007FFFE000
01FFFFF800
03FFFFFC00
07FFFFFE00
0FFFFFFF00
1FFFFFFF80
1FFC01FF80
3FF000FFC0
3FE0007FC0
7FC0003FC0
7FC0003FE0
7F80001FE0
7F80000000
FF80000000
FF00000000
FF00000000
FF00000000
FF00000000
FF00000000
FF00000000
FF00000000
FF00000000
FF00000000
FF00000000
FF00000000
FF00000000
FF80001FE0
7F80001FE0
7F80003FE0
7FC0003FE0
3FE0007FC0
3FF0007FC0
1FF800FFC0
1FFE07FF80
0FFFFFFF00
07FFFFFE00
03FFFFFE00
01FFFFF800
00FFFFF000
003FFFC000
0007FE0000
ENDCHAR
STARTCHAR 010D
ENCODING 269
SWIDTH 558 0
DWIDTH 31 0
BBX 27 44 2 -1
BITMAP
03C01E00
03E03C00
01F07800
00F8F800
007DF000
007FE000
003FC000
001F8000
00000000
00000000
00000000
00000000
003FC000
01FFF800
03FFFE00
0FFFFF00
0FFFFF80
1FFFFF80
3FF9FFC0
3FE03FC0
7FC03FE0
7F801FE0
7F801FE0
FF000FE0
FF000000
FF000000
FF000000
FF000000
FF000000
FF000000
FF000000
FF000000
FF000FE0
7F801FE0
7F801FE0
7FC03FC0
3FE07FC0
3FF9FFC0
1FFFFF80
1FFFFF00
0FFFFE00
07FFFC00
01FFF800
003FC000
ENDCHAR
STARTCHAR 010E
ENCODING 270
SWIDTH 720 0
DWIDTH 40 0
BBX 33 53 4 0
BITMAP
07C01E0000
03E03E0000
01E07C0000
01F0F80000
00F9F00000
007DF00000
007FE00000
003FC00000
001FC00000
0000000000
0000000000
0000000000
FFFFF80000
FFFFFF0000
FFFFFFC000
FFFFFFE000
FFFFFFF000
FFFFFFF800
FFFFFFFC00
FF003FFE00
FF0007FE00
FF0003FE00
FF0001FF00
FF0000FF00
FF0000FF00
FF0000FF80
FF00007F80
FF00007F80
FF00007F80
FF00007F80
FF00007F80
FF00007F80
FF00007F80
FF00007F80
FF00007F80
FF00007F80
FF00007F80
FF00007F80
FF00007F80
FF0000FF00
FF0000FF00
FF0001FF00
FF0001FF00
FF0003FE00
FF0007FE00
FF001FFC00
FFFFFFFC00
FFFFFFF800
FFFFFFF000
FFFFFFE000
FFFFFFC000
FFFFFF0000
FFFFF80000
ENDCHAR
STARTCHAR 010F
ENCODING 271
SWIDTH 612 0
DWIDTH 34 0
BBX 38 42 2 -1
BITMAP
000007F9FC
000007F9FC
000007F9FC
000007F9FC
000007F9FC
000007F9FC
000007F81C
000007F81C
000007F81C
000007F838
007F07F878
01FFC7F9F0
03FFE7F9E0
07FFF7F9C0
0FFFFFF800
1FFFFFF800
3FF9FFF800
3FE03FF800
7FC01FF800
7F801FF800
7F800FF800
FF000FF800
FF0007F800
FF0007F800
FF0007F800
FF0007F800
FF0007F800
FF0007F800
FF0007F800
FF0007F800
FF000FF800
7F800FF800
7F801FF800
7FC01FF800
3FE03FF800
3FFDFFF800
1FFFFFF800
0FFFFFF800
0FFFFFF800
03FFF7F800
01FFE7F800
007F800000
ENDCHAR
STARTCHAR 0110
ENCODING 272
SWIDTH 720 0
DWIDTH 40 0
BBX 38 41 0 0
BITMAP
0FFFFFC000
0FFFFFF800
0FFFFFFE00
0FFFFFFF00
0FFFFFFF80
0FFFFFFFC0
0FFFFFFFC0
0FF001FFE0
0FF0003FE0
0FF0001FF0
0FF0000FF0
0FF0000FF0
0FF00007F8
0FF00007F8
0FF00007F8
0FF00003F8
0FF00003FC
FFFFF803FC
FFFFF803FC
FFFFF803FC
FFFFF803FC
FFFFF803FC
0FF00003FC
0FF00003FC
0FF00003F8
0FF00003F8
0FF00007F8
0FF00007F8
0FF00007F8
0FF0000FF0
0FF0000FF0
0FF0001FF0
0FF0003FE0
0FF001FFE0
0FFFFFFFC0
0FFFFFFF80
0FFFFFFF80
0FFFFFFF00
0FFFFFFC00
0FFFFFF800
0FFFFFC000
ENDCHAR
STARTCHAR 0111
ENCODING 273
SWIDTH 612 0
DWIDTH 34 0
BBX 32 42 2 -1
BITMAP
000007F8
000007F8
000007F8
0007FFFF
0007FFFF
0007FFFF
0007FFFF
000007F8
000007F8
000007F8
007F07F8
01FFC7F8
03FFE7F8
0FFFF7F8
0FFFFFF8
1FFFFFF8
3FF9FFF8
3FE03FF8
7FC01FF8
7F801FF8
7F800FF8
FF000FF8
FF0007F8
FF0007F8
FF0007F8
FF0007F8
FF0007F8
FF0007F8
FF0007F8
FF0007F8
FF000FF8
7F800FF8
7F801FF8
7FC01FF8
3FE03FF8
3FFDFFF8
1FFFFFF8
0FFFFFF8
07FFFFF8
03FFF7F8
01FFC7F8
007F8000
ENDCHAR
STARTCHAR 0112
ENCODING 274
SWIDTH 648 0
DWIDTH 36 0
BBX 30 51 4 0
BITMAP
03FFFE00
03FFFE00
03FFFE00
03FFFE00
00000000
00000000
00000000
00000000
00000000
00000000
FFFFFFF8
FFFFFFF8
FFFFFFF8
FFFFFFF8
FFFFFFF8
FFFFFFF8
FFFFFFF8
FF000000
FF000000
FF000000
FF000000
FF000000
FF000000
FF000000
FF000000
FF000000
FFFFFFE0
FFFFFFE0
FFFFFFE0
FFFFFFE0
FFFFFFE0
FFFFFFE0
FFFFFFE0
FF000000
FF000000
FF000000
FF000000
FF000000
FF000000
FF000000
FF000000
FF000000
FF000000
FF000000
FFFFFFFC
FFFFFFFC
FFFFFFFC
FFFFFFFC
FFFFFFFC
FFFFFFFC
FFFFFFFC
ENDCHAR
STARTCHAR 0113
ENCODING 275
SWIDTH 540 0
DWIDTH 30 0
BBX 28 42 1 -1
BITMAP
03FFFE00
03FFFE00
03FFFE00
03FFFE00
00000000
00000000
00000000
00000000
00000000
00000000
003FC000
01FFF000
03FFFC00
07FFFE00
0FFFFF00
1FFFFF80
3FF9FF80
3FC03FC0
7F801FC0
7F801FE0
7F000FE0
FF000FE0
FF000FE0
FFFFFFF0
FFFFFFF0
FFFFFFF0
FFFFFFF0
FFFFFFF0
FF000000
FF000000
FF000000
7F000000
7F000FE0
7F801FE0
3FC03FE0
3FF9FFC0
1FFFFF80
1FFFFF00
0FFFFE00
07FFFC00
01FFF000
003FC000
ENDCHAR
STARTCHAR 0114
ENCODING 276
SWIDTH 648 0
DWIDTH 36 0
BBX 30 55 4 0
BITMAP
01C01C00
01C03C00
01E03C00
01F07C00
00FFF800
00FFF000
007FE000
001F8000
00000000
00000000
00000000
00000000
00000000
00000000
FFFFFFF8
FFFFFFF8
FFFFFFF8
FFFFFFF8
FFFFFFF8
FFFFFFF8
FFFFFFF8
FF000000
FF000000
FF000000
FF000000
FF000000
FF000000
FF000000
FF000000
FF000000
FFFFFFE0
FFFFFFE0
FFFFFFE0
FFFFFFE0
FFFFFFE0
FFFFFFE0
FFFFFFE0
FF000000
FF000000
FF000000
FF000000
FF000000
FF000000
FF000000
FF000000
FF000000
FF000000
FF000000
FFFFFFFC
FFFFFFFC
FFFFFFFC
FFFFFFFC
FFFFFFFC
FFFFFFFC
FFFFFFFC
ENDCHAR
STARTCHAR 0115
ENCODING 277
SWIDTH 540 0
DWIDTH 30 0
BBX 28 45 1 0
BITMAP
03803800
03C07800
03E0F800
01FFF000
01FFE000
007FC000
003F0000
00000000
00000000
00000000
00000000
00000000
00000000
003FC000
01FFF000
03FFFC00
07FFFE00
0FFFFF00
1FFFFF80
3FF9FF80
3FC03FC0
7F801FC0
7F801FE0
7F000FE0
FF000FE0
FF000FE0
FFFFFFF0
FFFFFFF0
FFFFFFF0
FFFFFFF0
FFFFFFF0
FF000000
FF000000
FF000000
7F000000
7F000FE0
7F801FE0
3FC03FE0
3FF9FFC0
1FFFFF80
1FFFFF00
0FFFFE00
07FFFC00
01FFF000
003FC000
ENDCHAR
STARTCHAR 0116
ENCODING 278
SWIDTH 648 0
DWIDTH 36 0
BBX 30 52 4 0
BITMAP
000FC000
000FC000
000FC000
000FC000
000FC000
000FC000
00000000
00000000
00000000
00000000
00000000
FFFFFFF8
FFFFFFF8
FFFFFFF8
FFFFFFF8
FFFFFFF8
FFFFFFF8
FFFFFFF8
FF000000
FF000000
FF000000
FF000000
FF000000
FF000000
FF000000
FF000000
FF000000
FFFFFFE0
FFFFFFE0
FFFFFFE0
FFFFFFE0
FFFFFFE0
FFFFFFE0
FFFFFFE0
FF000000
FF000000
FF000000
FF000000
FF000000
FF000000
FF000000
FF000000
FF000000
FF000000
FF000000
FFFFFFFC
FFFFFFFC
FFFFFFFC
FFFFFFFC
FFFFFFFC
FFFFFFFC
FFFFFFFC
ENDCHAR
STARTCHAR 0117
ENCODING 279
SWIDTH 540 0
DWIDTH 30 0
BBX 28 43 1 -1
BITMAP
001F8000
001F8000
001F8000
001F8000
001F8000
001F8000
00000000
00000000
00000000
00000000
00000000
003FC000
01FFF000
03FFFC00
07FFFE00
0FFFFF00
1FFFFF80
3FF9FF80
3FC03FC0
7F801FC0
7F801FE0
7F000FE0
FF000FE0
FF000FE0
FFFFFFF0
FFFFFFF0
FFFFFFF0
FFFFFFF0
FFFFFFF0
FF000000
FF000000
FF000000
7F000000
7F000FE0
7F801FE0
3FC03FE0
3FF9FFC0
1FFFFF80
1FFFFF00
0FFFFE00
07FFFC00
01FFF000
003FC000
ENDCHAR
STARTCHAR 0118
ENCODING 280
SWIDTH 666 0
DWIDTH 37 0
BBX 32 54 4 -13
BITMAP
FFFFFFF8
FFFFFFF8
FFFFFFF8
FFFFFFF8
FFFFFFF8
FFFFFFF8
FFFFFFF8
FF000000
FF000000
FF000000
FF000000
FF000000
FF000000
FF000000
FF000000
FF000000
FFFFFFE0
FFFFFFE0
FFFFFFE0
FFFFFFE0
FFFFFFE0
FFFFFFE0
FFFFFFE0
FF000000
FF000000
FF000000
FF000000
FF000000
FF000000
FF000000
FF000000
FF000000
FF000000
FF000000
FFFFFFFC
FFFFFFFC
FFFFFFFC
FFFFFFFC
FFFFFFFC
FFFFFFFC
FFFFFFFC
00000078
000001E0
000003C0
00000780
00000F80
00001F00
00001F00
00001F00
00001F00
00001F80
00000FFF
000007FF
000001FF
ENDCHAR
STARTCHAR 0119
ENCODING 281
SWIDTH 558 0
DWIDTH 31 0
BBX 28 44 1 -13
BITMAP
003FC000
01FFF000
03FFFC00
07FFFE00
0FFFFF00
1FFFFF80
3FFBFFC0
3FC07FC0
7F803FE0
7F801FE0
7F001FE0
FF001FE0
FF000FF0
FFFFFFF0
FFFFFFF0
FFFFFFF0
FFFFFFF0
FFFFFFF0
FF000000
FF000000
FF000000
7F000000
7F000FE0
7F801FE0
3FC03FC0
3FF9FFC0
1FFFFF80
1FFFFF00
0FFFFE00
07FFFE00
01FFFC00
003FB800
00007000
0001E000
0003E000
0003C000
0007C000
0007C000
0007C000
0007C000
0007E000
0003FF80
0001FF80
00007F00
ENDCHAR
STARTCHAR 011A
ENCODING 282
SWIDTH 648 0
DWIDTH 36 0
BBX 30 53 4 0
BITMAP
03C01E00
03E03C00
01E07800
00F0F800
00F9F000
007DE000
007FE000
003FC000
001F8000
00000000
00000000
00000000
FFFFFFF8
FFFFFFF8
FFFFFFF8
FFFFFFF8
FFFFFFF8
FFFFFFF8
FFFFFFF8
FF000000
FF000000
FF000000
FF000000
FF000000
FF000000
FF000000
FF000000
FF000000
FFFFFFE0
FFFFFFE0
FFFFFFE0
FFFFFFE0
FFFFFFE0
FFFFFFE0
FFFFFFE0
FF000000
FF000000
FF000000
FF000000
FF000000
FF000000
FF000000
FF000000
FF000000
FF000000
FF000000
FFFFFFFC
FFFFFFFC
FFFFFFFC
FFFFFFFC
FFFFFFFC
FFFFFFFC
FFFFFFFC
ENDCHAR
STARTCHAR 011B
ENCODING 283
SWIDTH 540 0
DWIDTH 30 0
BBX 28 44 1 -1
BITMAP
03C01E00
03E03C00
01F07C00
00F8F800
007DF000
007FE000
003FE000
001FC000
00000000
00000000
00000000
00000000
003FC000
01FFF000
03FFFC00
07FFFE00
0FFFFF00
1FFFFF80
3FF9FF80
3FC03FC0
7F801FC0
7F801FE0
7F000FE0
FF000FE0
FF000FE0
FFFFFFF0
FFFFFFF0
FFFFFFF0
FFFFFFF0
FFFFFFF0
FF000000
FF000000
FF000000
7F000000
7F000FE0
7F801FE0
3FC03FE0
3FF9FFC0
1FFFFF80
1FFFFF00
0FFFFE00
07FFFC00
01FFF000
003FC000
ENDCHAR
STARTCHAR 011C
ENCODING 284
SWIDTH 774 0
DWIDTH 43 0
BBX 37 56 2 -1
BITMAP
0001FC0000
0001FE0000
0003FF0000
0007DF0000
000F8F8000
001F07C000
001E03E000
003C01E000
0000000000
0000000000
0000000000
0000000000
0000000000
0000000000
0007FFC000
003FFFF800
007FFFFE00
01FFFFFF00
03FFFFFF80
07FFFFFFC0
0FFFFFFFE0
0FFFEFFFE0
1FFC007FF0
3FF8001FF0
3FE0000FF0
3FE0000FF8
7FC00007F8
7F80000000
7F80000000
FF80000000
FF00000000
FF00000000
FF00000000
FF0007FFF8
FF0007FFF8
FF0007FFF8
FF0007FFF8
FF0007FFF8
FF0007FFF8
FF0007FFF8
7F000003F8
7F800003F8
7F800007F8
7FC00007F8
3FC00007F8
3FE0000FF8
1FF0001FF8
1FFC007FF8
0FFF01FFF8
07FFFFFFF8
03FFFFFDF8
01FFFFFDF8
00FFFFF8F8
003FFFE0F8
001FFFC0F8
0001FE0000
ENDCHAR
STARTCHAR 011D
ENCODING 285
SWIDTH 612 0
DWIDTH 34 0
BBX 28 57 2 -12
BITMAP
0001F800
0003F800
0007FC00
0007BE00
000FBE00
001F1F00
001E0F80
003C0780
007803C0
00000000
00000000
00000000
00000000
00000000
007E0FF0
03FF8FF0
07FFCFF0
0FFFEFF0
1FFFFFF0
3FFFFFF0
3FF9FFF0
3FE07FF0
7FC03FF0
7F801FF0
7F801FF0
FF000FF0
FF000FF0
FF000FF0
FF000FF0
FF000FF0
FF000FF0
FF000FF0
FF000FF0
FF000FF0
FF000FF0
7F801FF0
7F801FF0
7FC03FF0
7FE07FF0
3FF9FFF0
3FFFFFF0
1FFFFFF0
0FFFFFF0
07FFEFF0
03FF8FF0
007E0FF0
00000FF0
00000FF0
00000FF0
FF801FE0
FF803FE0
7FE07FC0
7FFFFFC0
3FFFFF80
1FFFFF00
07FFFC00
00FFE000
ENDCHAR
STARTCHAR 011E
ENCODING 286
SWIDTH 774 0
DWIDTH 43 0
BBX 37 53 2 -1
BITMAP
000E00E000
000F01E000
000F83E000
0007FFC000
0003FFC000
0001FF0000
00007E0000
0000000000
0000000000
0000000000
0000000000
0007FFC000
003FFFF800
007FFFFE00
01FFFFFF00
03FFFFFF80
07FFFFFFC0
0FFFFFFFE0
0FFFEFFFE0
1FFC007FF0
3FF8001FF0
3FE0000FF0
3FE0000FF8
7FC00007F8
7F80000000
7F80000000
FF80000000
FF00000000
FF00000000
FF00000000
FF0007FFF8
FF0007FFF8
FF0007FFF8
FF0007FFF8
FF0007FFF8
FF0007FFF8
FF0007FFF8
7F000003F8
7F800003F8
7F800007F8
7FC00007F8
3FC00007F8
3FE0000FF8
1FF0001FF8
1FFC007FF8
0FFF01FFF8
07FFFFFFF8
03FFFFFDF8
01FFFFFDF8
00FFFFF8F8
003FFFE0F8
001FFFC0F8
0001FE0000
ENDCHAR
STARTCHAR 011F
ENCODING 287
SWIDTH 612 0
DWIDTH 34 0
BBX 28 54 2 -11
BITMAP
00E01E00
00E03E00
00F87C00
007FFC00
007FF800
003FF000
000FC000
00000000
00000000
00000000
00000000
007E0FF0
03FF8FF0
07FFCFF0
0FFFEFF0
1FFFFFF0
3FFFFFF0
3FF9FFF0
7FE07FF0
7FC03FF0
7F801FF0
7F801FF0
FF000FF0
FF000FF0
FF000FF0
FF000FF0
FF000FF0
FF000FF0
FF000FF0
FF000FF0
FF000FF0
FF000FF0
7F801FF0
7F801FF0
7FC03FF0
7FE07FF0
3FF9FFF0
3FFFFFF0
1FFFFFF0
0FFFFFF0
07FFEFF0
03FF8FF0
007E0FF0
00000FF0
00000FF0
00000FF0
FF801FE0
FF803FE0
7FE07FC0
7FFFFFC0
3FFFFF80
1FFFFF00
07FFFC00
00FFE000
ENDCHAR
STARTCHAR 0120
ENCODING 288
SWIDTH 774 0
DWIDTH 43 0
BBX 37 55 2 -1
BITMAP
0000FC0000
0000FC0000
0000FC0000
0000FC0000
0000FC0000
0000FC0000
0000000000
0000000000
0000000000
0000000000
0000000000
0000000000
0000000000
0007FFE000
001FFFF800
007FFFFE00
01FFFFFF00
03FFFFFF80
07FFFFFFC0
0FFFFFFFE0
0FFFE7FFE0
1FFC007FF0
3FF8001FF0
3FE0000FF0
3FE0000FF8
7FC00007F8
7F80000000
7F80000000
FF80000000
FF00000000
FF00000000
FF00000000
FF0007FFF8
FF0007FFF8
FF0007FFF8
FF0007FFF8
FF0007FFF8
FF0007FFF8
FF0007FFF8
7F800003F8
7F800003F8
7F800007F8
7FC00007F8
3FE00007F8
3FF0000FF8
1FF8001FF8
1FFC007FF8
0FFF01FFF8
07FFFFFFF8
03FFFFFDF8
01FFFFFDF8
00FFFFF8F8
003FFFF0F8
001FFFC0F8
0001FE0000
ENDCHAR
STARTCHAR 0121
ENCODING 289
SWIDTH 630 0
DWIDTH 35 0
BBX 29 55 2 -12
BITMAP
0001F800
0001F800
0001F800
0001F800
0001F800
0001F800
00000000
00000000
00000000
00000000
00000000
00000000
007E07F8
01FFC7F8
07FFE7F8
0FFFF7F8
1FFFFFF8
1FFFFFF8
3FF9FFF8
3FE07FF8
7FC03FF8
7F801FF8
7F800FF8
FF000FF8
FF0007F8
FF0007F8
FF0007F8
FF0007F8
FF0007F8
FF0007F8
FF0007F8
FF0007F8
FF000FF8
7F800FF8
7F801FF8
7FC01FF8
7FE03FF8
3FF9FFF8
1FFFFFF8
1FFFFFF8
0FFFF7F8
07FFE7F8
01FFC7F8
007F07F8
000007F8
000007F8
00000FF0
7F800FF0
7FC01FF0
7FE07FE0
3FFFFFE0
1FFFFFC0
0FFFFF00
03FFFC00
007FE000
ENDCHAR
STARTCHAR 0122
ENCODING 290
SWIDTH 774 0
DWIDTH 43 0
BBX 37 58 2 -16
BITMAP
0007FFE000
001FFFF800
007FFFFE00
01FFFFFF00
03FFFFFF80
07FFFFFFC0
0FFFFFFFE0
0FFFE7FFE0
1FFC007FF0
3FF8001FF0
3FE0000FF0
3FE0000FF8
7FC00007F8
7F80000000
7F80000000
FF80000000
FF00000000
FF00000000
FF00000000
FF0007FFF8
FF0007FFF8
FF0007FFF8
FF0007FFF8
FF0007FFF8
FF0007FFF8
FF0007FFF8
7F800003F8
7F800003F8
7F800007F8
7FC00007F8
3FE00007F8
3FE0000FF8
1FF0001FF8
1FFC007FF8
0FFF01FFF8
07FFFFFFF8
03FFFFFDF8
01FFFFFDF8
00FFFFF8F8
003FFFF0F8
001FFFC0F8
0003FE0000
0000000000
0000000000
0000FE0000
0000FE0000
0000FE0000
0000FE0000
0000FE0000
0000FE0000
00000E0000
00000E0000
00000E0000
00001C0000
00003C0000
0000F80000
0000F00000
0000E00000
ENDCHAR
STARTCHAR 0123
ENCODING 291
SWIDTH 612 0
DWIDTH 34 0
BBX 28 61 2 -12
BITMAP
00002000
0001E000
0003E000
00078000
00070000
000E0000
000E0000
000E0000
000FE000
000FE000
000FE000
000FE000
000FE000
000FE000
00000000
00000000
00000000
00000000
007E0FF0
01FF8FF0
07FFEFF0
0FFFEFF0
1FFFFFF0
3FFFFFF0
3FF9FFF0
3FE07FF0
7FC03FF0
7F801FF0
7F801FF0
FF000FF0
FF000FF0
FF000FF0
FF000FF0
FF000FF0
FF000FF0
FF000FF0
FF000FF0
FF000FF0
FF000FF0
7F801FF0
7F801FF0
7FC03FF0
3FE07FF0
3FF9FFF0
1FFFFFF0
1FFFFFF0
0FFFFFF0
07FFEFF0
01FFCFF0
007F0FF0
00000FF0
00000FF0
00000FF0
FF801FE0
FFC03FE0
7FE07FC0
7FFFFFC0
3FFFFF80
1FFFFF00
07FFFC00
00FFE000
ENDCHAR
STARTCHAR 0124
ENCODING 292
SWIDTH 738 0
DWIDTH 41 0
BBX 33 56 4 0
BITMAP
0007F00000
0007F80000
000FF80000
001F7C0000
003E7E0000
003E3E0000
007C1F0000
00F80F8000
01F007C000
0000000000
0000000000
0000000000
0000000000
0000000000
0000000000
FF00007F80
FF00007F80
FF00007F80
FF00007F80
FF00007F80
FF00007F80
FF00007F80
FF00007F80
FF00007F80
FF00007F80
FF00007F80
FF00007F80
FF00007F80
FF00007F80
FF00007F80
FFFFFFFF80
FFFFFFFF80
FFFFFFFF80
FFFFFFFF80
FFFFFFFF80
FFFFFFFF80
FFFFFFFF80
FF00007F80
FF00007F80
FF00007F80
FF00007F80
FF00007F80
FF00007F80
FF00007F80
FF00007F80
FF00007F80
FF00007F80
FF00007F80
FF00007F80
FF00007F80
FF00007F80
FF00007F80
FF00007F80
FF00007F80
FF00007F80
FF00007F80
ENDCHAR
STARTCHAR 0125
ENCODING 293
SWIDTH 612 0
DWIDTH 34 0
BBX 26 53 4 1
BITMAP
003F0000
007F8000
00FFC000
00F3E000
01E1E000
03E1F000
07C0F800
07807800
00000000
00000000
00000000
00000000
FF000000
FF000000
FF000000
FF000000
FF000000
FF000000
FF000000
FF000000
FF000000
FF000000
FF07F000
FF1FFC00
FF3FFE00
FF7FFF00
FFFFFF80
FFFFFF80
FFF3FFC0
FFC07FC0
FF807FC0
FF003FC0
FF003FC0
FF003FC0
FF003FC0
FF003FC0
FF003FC0
FF003FC0
FF003FC0
FF003FC0
FF003FC0
FF003FC0
FF003FC0
FF003FC0
FF003FC0
FF003FC0
FF003FC0
FF003FC0
FF003FC0
FF003FC0
FF003FC0
FF003FC0
FF003FC0
ENDCHAR
STARTCHAR 0126
ENCODING 294
SWIDTH 702 0
DWIDTH 39 0
BBX 39 41 0 0
BITMAP
1FE0000FF0
1FE0000FF0
1FE0000FF0
1FE0000FF0
1FE0000FF0
1FE0000FF0
1FE0000FF0
FFFFFFFFFE
FFFFFFFFFE
FFFFFFFFFE
FFFFFFFFFE
1FE0000FF0
1FE0000FF0
1FE0000FF0
1FE0000FF0
1FFFFFFFF0
1FFFFFFFF0
1FFFFFFFF0
1FFFFFFFF0
1FFFFFFFF0
1FFFFFFFF0
1FFFFFFFF0
1FE0000FF0
1FE0000FF0
1FE0000FF0
1FE0000FF0
1FE0000FF0
1FE0000FF0
1FE0000FF0
1FE0000FF0
1FE0000FF0
1FE0000FF0
1FE0000FF0
1FE0000FF0
1FE0000FF0
1FE0000FF0
1FE0000FF0
1FE0000FF0
1FE0000FF0
1FE0000FF0
1FE0000FF0
ENDCHAR
STARTCHAR 0127
ENCODING 295
SWIDTH 612 0
DWIDTH 34 0
BBX 30 41 0 0
BITMAP
1FE00000
1FE00000
1FE00000
FFFFE000
FFFFE000
FFFFE000
FFFFE000
1FE00000
1FE00000
1FE00000
1FE07F00
1FE3FFC0
1FE7FFE0
1FEFFFF0
1FFFFFF8
1FFFFFF8
1FFF3FF8
1FF80FF8
1FF007FC
1FF003FC
1FE003FC
1FE003FC
1FE003FC
1FE003FC
1FE003FC
1FE003FC
1FE003FC
1FE003FC
1FE003FC
1FE003FC
1FE003FC
1FE003FC
1FE003FC
1FE003FC
1FE003FC
1FE003FC
1FE003FC
1FE003FC
1FE003FC
1FE003FC
1FE003FC
ENDCHAR
STARTCHAR 0128
ENCODING 296
SWIDTH 270 0
DWIDTH 15 0
BBX 19 54 -2 0
BITMAP
1E00E0
3FC0E0
7FF1E0
FFFFE0
FFFFC0
F0FFC0
F01F00
000000
000000
000000
000000
000000
000000
03FC00
03FC00
03FC00
03FC00
03FC00
03FC00
03FC00
03FC00
03FC00
03FC00
03FC00
03FC00
03FC00
03FC00
03FC00
03FC00
03FC00
03FC00
03FC00
03FC00
03FC00
03FC00
03FC00
03FC00
03FC00
03FC00
03FC00
03FC00
03FC00
03FC00
03FC00
03FC00
03FC00
03FC00
03FC00
03FC00
03FC00
03FC00
03FC00
03FC00
03FC00
ENDCHAR
STARTCHAR 0129
ENCODING 297
SWIDTH 270 0
DWIDTH 15 0
BBX 19 44 -2 0
BITMAP
1E00E0
3F80E0
7FC0E0
7FF1E0
FFFFC0
F0FFC0
F03FC0
F00F00
000000
000000
000000
000000
000000
03FC00
03FC00
03FC00
03FC00
03FC00
03FC00
03FC00
03FC00
03FC00
03FC00
03FC00
03FC00
03FC00
03FC00
03FC00
03FC00
03FC00
03FC00
03FC00
03FC00
03FC00
03FC00
03FC00
03FC00
03FC00
03FC00
03FC00
03FC00
03FC00
03FC00
03FC00
ENDCHAR
STARTCHAR 012A
ENCODING 298
SWIDTH 270 0
DWIDTH 15 0
BBX 15 51 0 0
BITMAP
FFFE
FFFE
FFFE
FFFE
0000
0000
0000
0000
0000
0000
0FF0
0FF0
0FF0
0FF0
0FF0
0FF0
0FF0
0FF0
0FF0
0FF0
0FF0
0FF0
0FF0
0FF0
0FF0
0FF0
0FF0
0FF0
0FF0
0FF0
0FF0
0FF0
0FF0
0FF0
0FF0
0FF0
0FF0
0FF0
0FF0
0FF0
0FF0
0FF0
0FF0
0FF0
0FF0
0FF0
0FF0
0FF0
0FF0
0FF0
0FF0
ENDCHAR
STARTCHAR 012B
ENCODING 299
SWIDTH 270 0
DWIDTH 15 0
BBX 14 40 0 0
BITMAP
FFFC
FFFC
FFFC
FFFC
0000
0000
0000
0000
0000
1FE0
1FE0
1FE0
1FE0
1FE0
1FE0
1FE0
1FE0
1FE0
1FE0
1FE0
1FE0
1FE0
1FE0
1FE0
1FE0
1FE0
1FE0
1FE0
1FE0
1FE0
1FE0
1FE0
1FE0
1FE0
1FE0
1FE0
1FE0
1FE0
1FE0
1FE0
ENDCHAR
STARTCHAR 012C
ENCODING 300
SWIDTH 270 0
DWIDTH 15 0
BBX 15 55 0 0
BITMAP
E01E
F01E
F03E
F87C
7FFC
3FF8
1FF0
0FC0
0000
0000
0000
0000
0000
0000
1FE0
1FE0
1FE0
1FE0
1FE0
1FE0
1FE0
1FE0
1FE0
1FE0
1FE0
1FE0
1FE0
1FE0
1FE0
1FE0
1FE0
1FE0
1FE0
1FE0
1FE0
1FE0
1FE0
1FE0
1FE0
1FE0
1FE0
1FE0
1FE0
1FE0
1FE0
1FE0
1FE0
1FE0
1FE0
1FE0
1FE0
1FE0
1FE0
1FE0
1FE0
ENDCHAR
STARTCHAR 012D
ENCODING 301
SWIDTH 270 0
DWIDTH 15 0
BBX 15 44 0 0
BITMAP
E01E
E01E
F03E
F87C
7FFC
3FF8
1FF0
0FC0
0000
0000
0000
0000
0000
1FE0
1FE0
1FE0
1FE0
1FE0
1FE0
1FE0
1FE0
1FE0
1FE0
1FE0
1FE0
1FE0
1FE0
1FE0
1FE0
1FE0
1FE0
1FE0
1FE0
1FE0
1FE0
1FE0
1FE0
1FE0
1FE0
1FE0
1FE0
1FE0
1FE0
1FE0
ENDCHAR
STARTCHAR 012E
ENCODING 302
SWIDTH 270 0
DWIDTH 15 0
BBX 11 54 2 -13
BITMAP
3FC0
3FC0
3FC0
3FC0
3FC0
3FC0
3FC0
3FC0
3FC0
3FC0
3FC0
3FC0
3FC0
3FC0
3FC0
3FC0
3FC0
3FC0
3FC0
3FC0
3FC0
3FC0
3FC0
3FC0
3FC0
3FC0
3FC0
3FC0
3FC0
3FC0
3FC0
3FC0
3FC0
3FC0
3FC0
3FC0
3FC0
3FC0
3FC0
3FC0
3FC0
0780
0F00
1E00
3C00
7C00
F800
F800
F800
F800
FC00
7FE0
3FE0
0FE0
ENDCHAR
STARTCHAR 012F
ENCODING 303
SWIDTH 288 0
DWIDTH 16 0
BBX 11 54 2 -13
BITMAP
3FC0
3FC0
3FC0
3FC0
3FC0
3FC0
3FC0
0000
0000
0000
3FC0
3FC0
3FC0
3FC0
3FC0
3FC0
3FC0
3FC0
3FC0
3FC0
3FC0
3FC0
3FC0
3FC0
3FC0
3FC0
3FC0
3FC0
3FC0
3FC0
3FC0
3FC0
3FC0
3FC0
3FC0
3FC0
3FC0
3FC0
3FC0
3FC0
3FC0
0780
0F00
1E00
3C00
7800
F800
F800
F800
F800
FC00
7FE0
3FE0
0FE0
ENDCHAR
STARTCHAR 0130
ENCODING 304
SWIDTH 252 0
DWIDTH 14 0
BBX 8 52 3 0
BITMAP
7E
7E
7E
7E
7E
7E
00
00
00
00
00
FF
FF
FF
FF
FF
FF
FF
FF
FF
FF
FF
FF
FF
FF
FF
FF
FF
FF
FF
FF
FF
FF
FF
FF
FF
FF
FF
FF
FF
FF
FF
FF
FF
FF
FF
FF
FF
FF
FF
FF
FF
ENDCHAR
STARTCHAR 0131
ENCODING 305
SWIDTH 288 0
DWIDTH 16 0
BBX 8 31 4 0
BITMAP
FF
FF
FF
FF
FF
FF
FF
FF
FF
FF
FF
FF
FF
FF
FF
FF
FF
FF
FF
FF
FF
FF
FF
FF
FF
FF
FF
FF
FF
FF
FF
ENDCHAR
STARTCHAR 0132
ENCODING 306
SWIDTH 792 0
DWIDTH 44 0
BBX 37 42 3 -1
BITMAP
FF000007F8
FF000007F8
FF000007F8
FF000007F8
FF000007F8
FF000007F8
FF000007F8
FF000007F8
FF000007F8
FF000007F8
FF000007F8
FF000007F8
FF000007F8
FF000007F8
FF000007F8
FF000007F8
FF000007F8
FF000007F8
FF000007F8
FF000007F8
FF000007F8
FF000007F8
FF000007F8
FF000007F8
FF000007F8
FF000007F8
FF0FF007F8
FF0FF007F8
FF0FF007F8
FF0FF007F8
FF0FF007F8
FF0FF007F8
FF0FF007F8
FF07F80FF0
FF07FC1FF0
FF07FFFFF0
FF03FFFFE0
FF03FFFFE0
FF01FFFFC0
FF00FFFF80
FF003FFE00
00000FF800
ENDCHAR
STARTCHAR 0133
ENCODING 307
SWIDTH 504 0
DWIDTH 28 0
BBX 20 53 4 -12
BITMAP
FF0FF0
FF0FF0
FF0FF0
FF0FF0
FF0FF0
FF0FF0
FF0FF0
000000
000000
000000
FF0FF0
FF0FF0
FF0FF0
FF0FF0
FF0FF0
FF0FF0
FF0FF0
FF0FF0
FF0FF0
FF0FF0
FF0FF0
FF0FF0
FF0FF0
FF0FF0
FF0FF0
FF0FF0
FF0FF0
FF0FF0
FF0FF0
FF0FF0
FF0FF0
FF0FF0
FF0FF0
FF0FF0
FF0FF0
FF0FF0
FF0FF0
FF0FF0
FF0FF0
FF0FF0
FF0FF0
000FF0
000FF0
000FF0
000FF0
000FF0
00BFF0
00FFF0
00FFF0
00FFE0
00FFE0
00FFC0
00FF00
ENDCHAR
STARTCHAR 0134
ENCODING 308
SWIDTH 558 0
DWIDTH 31 0
BBX 30 57 1 -1
BITMAP
00001F80
00003FC0
00003FE0
00007FE0
0000F9F0
0001F0F0
0001F078
0003E07C
0007C03C
00000000
00000000
00000000
00000000
00000000
00000000
00003FC0
00003FC0
00003FC0
00003FC0
00003FC0
00003FC0
00003FC0
00003FC0
00003FC0
00003FC0
00003FC0
00003FC0
00003FC0
00003FC0
00003FC0
00003FC0
00003FC0
00003FC0
00003FC0
00003FC0
00003FC0
00003FC0
00003FC0
00003FC0
00003FC0
00003FC0
FF003FC0
FF003FC0
FF003FC0
FF003FC0
FF003FC0
FF003FC0
FF003FC0
FF807FC0
7FC0FF80
7FFFFF80
3FFFFF80
3FFFFF00
1FFFFE00
0FFFFC00
03FFF000
007F8000
ENDCHAR
STARTCHAR 0135
ENCODING 309
SWIDTH 288 0
DWIDTH 16 0
BBX 17 57 -1 -12
BITMAP
03F000
07F800
07F800
0FFC00
1F3E00
1E1E00
3C1F00
7C0F80
F80780
000000
000000
000000
000000
000000
07F800
07F800
07F800
07F800
07F800
07F800
07F800
07F800
07F800
07F800
07F800
07F800
07F800
07F800
07F800
07F800
07F800
07F800
07F800
07F800
07F800
07F800
07F800
07F800
07F800
07F800
07F800
07F800
07F800
07F800
07F800
07F800
07F800
07F800
07F800
07F800
5FF800
7FF800
7FF800
7FF000
7FF000
7FE000
7F8000
ENDCHAR
STARTCHAR 0136
ENCODING 310
SWIDTH 720 0
DWIDTH 40 0
BBX 35 59 4 -18
BITMAP
FF0000FF80
FF0001FF00
FF0003FF00
FF0007FE00
FF000FFC00
FF001FF800
FF003FF000
FF007FE000
FF00FFC000
FF01FF8000
FF03FF0000
FF03FE0000
FF07FC0000
FF0FFC0000
FF1FF80000
FF3FF00000
FF7FE00000
FFFFC00000
FFFFC00000
FFFFE00000
FFFFF00000
FFFFF80000
FFFFF80000
FFF7FC0000
FFE7FE0000
FFC3FF0000
FF81FF0000
FF00FF8000
FF00FFC000
FF007FE000
FF003FF000
FF001FF000
FF001FF800
FF000FFC00
FF0007FE00
FF0003FE00
FF0003FF00
FF0001FF80
FF0000FFC0
FF00007FC0
FF00007FE0
0000000000
0000000000
0000000000
0000000000
0007F00000
0007F00000
0007F00000
0007F00000
0007F00000
0007F00000
0000700000
0000700000
0000700000
0000E00000
0001E00000
0007C00000
0007800000
0004000000
ENDCHAR
STARTCHAR 0137
ENCODING 311
SWIDTH 540 0
DWIDTH 30 0
BBX 27 59 3 -18
BITMAP
FF000000
FF000000
FF000000
FF000000
FF000000
FF000000
FF000000
FF000000
FF000000
FF000000
FF007FC0
FF00FF80
FF01FF00
FF01FE00
FF03FC00
FF07F800
FF0FF800
FF1FF000
FF1FE000
FF3FC000
FF7F8000
FFFF0000
FFFF0000
FFFF8000
FFFFC000
FFFFC000
FFFFE000
FFFFE000
FFDFF000
FF8FF000
FF0FF800
FF07FC00
FF07FC00
FF03FE00
FF03FE00
FF01FF00
FF01FF00
FF00FF80
FF007FC0
FF007FC0
FF003FE0
00000000
00000000
00000000
00000000
007F0000
007F0000
007F0000
007F0000
007F0000
007F0000
00070000
00070000
00070000
000E0000
001E0000
007C0000
00780000
00400000
ENDCHAR
STARTCHAR 0138
ENCODING 312
SWIDTH 558 0
DWIDTH 31 0
BBX 27 31 3 0
BITMAP
FF00FF80
FF01FF00
FF01FE00
FF03FC00
FF07F800
FF0FF000
FF1FE000
FF1FE000
FF3FC000
FF7F8000
FFFF0000
FFFE0000
FFFC0000
FFFC0000
FFF80000
FFFC0000
FFFE0000
FFFF0000
FFFF8000
FFFFC000
FFFFC000
FF7FE000
FF3FF000
FF1FF800
FF0FFC00
FF07FE00
FF07FE00
FF03FF00
FF01FF80
FF00FFC0
FF007FE0
ENDCHAR
STARTCHAR 0139
ENCODING 313
SWIDTH 594 0
DWIDTH 33 0
BBX 27 53 4 0
BITMAP
07E00000
0FE00000
0FC00000
1F800000
1F000000
1E000000
3E000000
3C000000
78000000
00000000
00000000
00000000
FF000000
FF000000
FF000000
FF000000
FF000000
FF000000
FF000000
FF000000
FF000000
FF000000
FF000000
FF000000
FF000000
FF000000
FF000000
FF000000
FF000000
FF000000
FF000000
FF000000
FF000000
FF000000
FF000000
FF000000
FF000000
FF000000
FF000000
FF000000
FF000000
FF000000
FF000000
FF000000
FF000000
FF000000
FFFFFFE0
FFFFFFE0
FFFFFFE0
FFFFFFE0
FFFFFFE0
FFFFFFE0
FFFFFFE0
ENDCHAR
STARTCHAR 013A
ENCODING 314
SWIDTH 288 0
DWIDTH 16 0
BBX 12 53 4 0
BITMAP
07F0
0FE0
0FC0
1F80
1F00
3F00
3E00
7C00
7800
0000
0000
0000
FF00
FF00
FF00
FF00
FF00
FF00
FF00
FF00
FF00
FF00
FF00
FF00
FF00
FF00
FF00
FF00
FF00
FF00
FF00
FF00
FF00
FF00
FF00
FF00
FF00
FF00
FF00
FF00
FF00
FF00
FF00
FF00
FF00
FF00
FF00
FF00
FF00
FF00
FF00
FF00
FF00
ENDCHAR
STARTCHAR 013B
ENCODING 315
SWIDTH 594 0
DWIDTH 33 0
BBX 27 59 4 -18
BITMAP
FF000000
FF000000
FF000000
FF000000
FF000000
FF000000
FF000000
FF000000
FF000000
FF000000
FF000000
FF000000
FF000000
FF000000
FF000000
FF000000
FF000000
FF000000
FF000000
FF000000
FF000000
FF000000
FF000000
FF000000
FF000000
FF000000
FF000000
FF000000
FF000000
FF000000
FF000000
FF000000
FF000000
FF000000
FFFFFFE0
FFFFFFE0
FFFFFFE0
FFFFFFE0
FFFFFFE0
FFFFFFE0
FFFFFFE0
00000000
00000000
00000000
00000000
003F8000
003F8000
003F8000
003F8000
003F8000
003F8000
00038000
00038000
00038000
00070000
000F0000
003E0000
003C0000
00200000
ENDCHAR
STARTCHAR 013C
ENCODING 316
SWIDTH 288 0
DWIDTH 16 0
BBX 8 59 4 -18
BITMAP
FF
FF
FF
FF
FF
FF
FF
FF
FF
FF
FF
FF
FF
FF
FF
FF
FF
FF
FF
FF
FF
FF
FF
FF
FF
FF
FF
FF
FF
FF
FF
FF
FF
FF
FF
FF
FF
FF
FF
FF
FF
00
00
00
00
FE
FE
FE
FE
FE
FE
0E
0E
0E
1C
3C
F8
F0
80
ENDCHAR
STARTCHAR 013D
ENCODING 317
SWIDTH 594 0
DWIDTH 33 0
BBX 27 41 4 0
BITMAP
FF03F800
FF03F800
FF03F800
FF03F800
FF03F800
FF03F800
FF003800
FF003800
FF003800
FF007000
FF00F000
FF03E000
FF03C000
FF038000
FF000000
FF000000
FF000000
FF000000
FF000000
FF000000
FF000000
FF000000
FF000000
FF000000
FF000000
FF000000
FF000000
FF000000
FF000000
FF000000
FF000000
FF000000
FF000000
FF000000
FFFFFFE0
FFFFFFE0
FFFFFFE0
FFFFFFE0
FFFFFFE0
FFFFFFE0
FFFFFFE0
ENDCHAR
STARTCHAR 013E
ENCODING 318
SWIDTH 270 0
DWIDTH 15 0
BBX 17 41 4 0
BITMAP
FF3F80
FF3F80
FF3F80
FF3F80
FF3F80
FF3F80
FF0380
FF0380
FF0380
FF0700
FF0F00
FF3E00
FF3C00
FF3800
FF0000
FF0000
FF0000
FF0000
FF0000
FF0000
FF0000
FF0000
FF0000
FF0000
FF0000
FF0000
FF0000
FF0000
FF0000
FF0000
FF0000
FF0000
FF0000
FF0000
FF0000
FF0000
FF0000
FF0000
FF0000
FF0000
FF0000
ENDCHAR
STARTCHAR 013F
ENCODING 319
SWIDTH 594 0
DWIDTH 33 0
BBX 27 41 4 0
BITMAP
FF000000
FF000000
FF000000
FF000000
FF000000
FF000000
FF000000
FF000000
FF000000
FF000000
FF000000
FF000000
FF000000
FF000000
FF000000
FF000000
FF000000
FF03F800
FF03F800
FF03F800
FF03F800
FF03F800
FF03F800
FF000000
FF000000
FF000000
FF000000
FF000000
FF000000
FF000000
FF000000
FF000000
FF000000
FF000000
FFFFFFE0
FFFFFFE0
FFFFFFE0
FFFFFFE0
FFFFFFE0
FFFFFFE0
FFFFFFE0
ENDCHAR
STARTCHAR 0140
ENCODING 320
SWIDTH 558 0
DWIDTH 31 0
BBX 21 41 4 0
BITMAP
FF0000
FF0000
FF0000
FF0000
FF0000
FF0000
FF0000
FF0000
FF0000
FF0000
FF0000
FF0000
FF0000
FF0000
FF0000
FF0000
FF0000
FF03F8
FF03F8
FF03F8
FF03F8
FF03F8
FF03F8
FF0000
FF0000
FF0000
FF0000
FF0000
FF0000
FF0000
FF0000
FF0000
FF0000
FF0000
FF0000
FF0000
FF0000
FF0000
FF0000
FF0000
FF0000
ENDCHAR
STARTCHAR 0141
ENCODING 321
SWIDTH 612 0
DWIDTH 34 0
BBX 32 41 1 0
BITMAP
0FF00000
0FF00000
0FF00000
0FF00000
0FF00000
0FF00000
0FF00000
0FF00000
0FF00000
0FF00000
0FF00000
0FF00800
0FF01800
0FF07800
0FF0F800
0FF3F800
0FF7F000
0FFFE000
0FFF8000
0FFF0000
0FFC0000
0FF80000
1FF00000
7FF00000
FFF00000
FFF00000
FFF00000
EFF00000
8FF00000
0FF00000
0FF00000
0FF00000
0FF00000
0FF00000
0FFFFFFF
0FFFFFFF
0FFFFFFF
0FFFFFFF
0FFFFFFF
0FFFFFFF
0FFFFFFF
ENDCHAR
STARTCHAR 0142
ENCODING 322
SWIDTH 270 0
DWIDTH 15 0
BBX 14 41 0 0
BITMAP
1FE0
1FE0
1FE0
1FE0
1FE0
1FE0
1FE0
1FE0
1FE0
1FE0
1FE0
1FE0
1FE0
1FE0
1FE4
1FEC
1FFC
1FFC
1FFC
1FF0
3FE0
7FE0
FFE0
FFE0
FFE0
DFE0
1FE0
1FE0
1FE0
1FE0
1FE0
1FE0
1FE0
1FE0
1FE0
1FE0
1FE0
1FE0
1FE0
1FE0
1FE0
ENDCHAR
STARTCHAR 0143
ENCODING 323
SWIDTH 720 0
DWIDTH 40 0
BBX 33 53 4 0
BITMAP
00007F0000
0000FE0000
0000FC0000
0001FC0000
0001F80000
0003F00000
0003E00000
0003C00000
0007800000
0000000000
0000000000
0000000000
FF00007F80
FF80007F80
FFC0007F80
FFC0007F80
FFE0007F80
FFE0007F80
FFF0007F80
FFF8007F80
FFF8007F80
FFFC007F80
FFFC007F80
FFFE007F80
FFFF007F80
FFFF007F80
FF7F807F80
FF3F807F80
FF3FC07F80
FF1FE07F80
FF1FE07F80
FF0FF07F80
FF07F07F80
FF07F87F80
FF03FC7F80
FF03FC7F80
FF01FE7F80
FF00FF7F80
FF00FF7F80
FF007FFF80
FF007FFF80
FF003FFF80
FF001FFF80
FF001FFF80
FF000FFF80
FF000FFF80
FF0007FF80
FF0003FF80
FF0003FF80
FF0001FF80
FF0001FF80
FF0000FF80
FF00007F80
ENDCHAR
STARTCHAR 0144
ENCODING 324
SWIDTH 594 0
DWIDTH 33 0
BBX 27 43 3 0
BITMAP
0003F800
0007F000
0007E000
0007C000
000FC000
000F8000
001F0000
001E0000
003C0000
00000000
00000000
00000000
FF0FF000
FF3FFE00
FF7FFF00
FFFFFF80
FFFFFF80
FFFFFFC0
FFF9FFC0
FFC07FC0
FF803FE0
FF001FE0
FF001FE0
FF001FE0
FF001FE0
FF001FE0
FF001FE0
FF001FE0
FF001FE0
FF001FE0
FF001FE0
FF001FE0
FF001FE0
FF001FE0
FF001FE0
FF001FE0
FF001FE0
FF001FE0
FF001FE0
FF001FE0
FF001FE0
FF001FE0
FF001FE0
ENDCHAR
STARTCHAR 0145
ENCODING 325
SWIDTH 720 0
DWIDTH 40 0
BBX 33 59 4 -18
BITMAP
FF00007F80
FF80007F80
FFC0007F80
FFC0007F80
FFE0007F80
FFE0007F80
FFF0007F80
FFF8007F80
FFF8007F80
FFFC007F80
FFFC007F80
FFFE007F80
FFFF007F80
FFFF007F80
FF7F807F80
FF3F807F80
FF3FC07F80
FF1FE07F80
FF1FE07F80
FF0FF07F80
FF07F07F80
FF07F87F80
FF03FC7F80
FF03FC7F80
FF01FE7F80
FF00FF7F80
FF00FF7F80
FF007FFF80
FF007FFF80
FF003FFF80
FF001FFF80
FF001FFF80
FF000FFF80
FF000FFF80
FF0007FF80
FF0003FF80
FF0003FF80
FF0001FF80
FF0001FF80
FF0000FF80
FF00007F80
0000000000
0000000000
0000000000
0000000000
0007F00000
0007F00000
0007F00000
0007F00000
0007F00000
0007F00000
0000700000
0000700000
0000700000
0000E00000
0001E00000
0007C00000
0007800000
0004000000
ENDCHAR
STARTCHAR 0146
ENCODING 326
SWIDTH 594 0
DWIDTH 33 0
BBX 27 49 3 -18
BITMAP
FF07F000
FF1FFE00
FF7FFF00
FF7FFF80
FFFFFF80
FFFFFFC0
FFF9FFC0
FFC07FC0
FF803FE0
FF001FE0
FF001FE0
FF001FE0
FF001FE0
FF001FE0
FF001FE0
FF001FE0
FF001FE0
FF001FE0
FF001FE0
FF001FE0
FF001FE0
FF001FE0
FF001FE0
FF001FE0
FF001FE0
FF001FE0
FF001FE0
FF001FE0
FF001FE0
FF001FE0
FF001FE0
00000000
00000000
00000000
00000000
003F8000
003F8000
003F8000
003F8000
003F8000
003F8000
00038000
00038000
00038000
00070000
000F0000
003E0000
003C0000
00200000
ENDCHAR
STARTCHAR 0147
ENCODING 327
SWIDTH 720 0
DWIDTH 40 0
BBX 33 53 4 0
BITMAP
01F007C000
00F80F8000
007C1F0000
007C1E0000
003E3E0000
001F7C0000
001FF80000
000FF80000
0007F00000
0000000000
0000000000
0000000000
FF00007F80
FF80007F80
FFC0007F80
FFC0007F80
FFE0007F80
FFE0007F80
FFF0007F80
FFF8007F80
FFF8007F80
FFFC007F80
FFFC007F80
FFFE007F80
FFFF007F80
FFFF007F80
FF7F807F80
FF3F807F80
FF3FC07F80
FF1FE07F80
FF1FE07F80
FF0FF07F80
FF07F07F80
FF07F87F80
FF03FC7F80
FF03FC7F80
FF01FE7F80
FF00FF7F80
FF00FF7F80
FF007FFF80
FF007FFF80
FF003FFF80
FF001FFF80
FF001FFF80
FF000FFF80
FF000FFF80
FF0007FF80
FF0003FF80
FF0003FF80
FF0001FF80
FF0001FF80
FF0000FF80
FF00007F80
ENDCHAR
STARTCHAR 0148
ENCODING 328
SWIDTH 594 0
DWIDTH 33 0
BBX 27 43 3 0
BITMAP
0F803C00
07C07800
03C0F000
03E1F000
01F3E000
00FFC000
00FFC000
007F8000
003F0000
00000000
00000000
00000000
FF0FF000
FF3FFE00
FF7FFF00
FFFFFF80
FFFFFF80
FFFFFFC0
FFF9FFC0
FFC07FC0
FF803FE0
FF001FE0
FF001FE0
FF001FE0
FF001FE0
FF001FE0
FF001FE0
FF001FE0
FF001FE0
FF001FE0
FF001FE0
FF001FE0
FF001FE0
FF001FE0
FF001FE0
FF001FE0
FF001FE0
FF001FE0
FF001FE0
FF001FE0
FF001FE0
FF001FE0
FF001FE0
ENDCHAR
STARTCHAR 0149
ENCODING 329
SWIDTH 594 0
DWIDTH 33 0
BBX 27 31 3 0
BITMAP
FF0FF000
FF3FFE00
FF7FFF00
FFFFFF80
FFFFFF80
FFFFFFC0
FFF9FFC0
FFC07FC0
FF803FE0
FF001FE0
FF001FE0
FF001FE0
FF001FE0
FF001FE0
FF001FE0
FF001FE0
FF001FE0
FF001FE0
FF001FE0
FF001FE0
FF001FE0
FF001FE0
FF001FE0
FF001FE0
FF001FE0
FF001FE0
FF001FE0
FF001FE0
FF001FE0
FF001FE0
FF001FE0
ENDCHAR
STARTCHAR 014A
ENCODING 330
SWIDTH 720 0
DWIDTH 40 0
BBX 33 53 4 -12
BITMAP
FF00007F80
FF80007F80
FFC0007F80
FFC0007F80
FFE0007F80
FFE0007F80
FFF0007F80
FFF8007F80
FFF8007F80
FFFC007F80
FFFC007F80
FFFE007F80
FFFF007F80
FFFF007F80
FF7F807F80
FF3F807F80
FF3FC07F80
FF1FE07F80
FF1FE07F80
FF0FF07F80
FF07F07F80
FF07F87F80
FF03FC7F80
FF03FC7F80
FF01FE7F80
FF00FF7F80
FF00FF7F80
FF007FFF80
FF007FFF80
FF003FFF80
FF001FFF80
FF001FFF80
FF000FFF80
FF000FFF80
FF0007FF80
FF0003FF80
FF0003FF80
FF0001FF80
FF0001FF80
FF0000FF80
FF00007F80
0000007F80
0000007F80
0000007F80
0000007F80
0000007F80
000000FF80
000003FF80
000003FF80
000003FF00
000003FF00
000003FE00
000003FC00
ENDCHAR
STARTCHAR 014B
ENCODING 331
SWIDTH 594 0
DWIDTH 33 0
BBX 27 43 3 -12
BITMAP
FF0FF000
FF3FFE00
FF7FFF00
FFFFFF80
FFFFFF80
FFFFFFC0
FFF9FFC0
FFC07FC0
FF803FE0
FF001FE0
FF001FE0
FF001FE0
FF001FE0
FF001FE0
FF001FE0
FF001FE0
FF001FE0
FF001FE0
FF001FE0
FF001FE0
FF001FE0
FF001FE0
FF001FE0
FF001FE0
FF001FE0
FF001FE0
FF001FE0
FF001FE0
FF001FE0
FF001FE0
FF001FE0
00001FE0
00001FE0
00001FE0
00001FE0
00001FE0
00017FE0
0001FFE0
0001FFE0
0001FFC0
0001FFC0
0001FF80
0001FE00
ENDCHAR
STARTCHAR 014C
ENCODING 332
SWIDTH 774 0
DWIDTH 43 0
BBX 39 52 2 -1
BITMAP
001FFFF000
001FFFF000
001FFFF000
001FFFF000
0000000000
0000000000
0000000000
0000000000
0000000000
0000000000
0007FFC000
003FFFF000
00FFFFFC00
01FFFFFE00
03FFFFFF80
07FFFFFFC0
0FFFFFFFC0
1FFE00FFE0
1FF8003FF0
3FF0001FF0
3FE0000FF8
7FC00007F8
7FC00007FC
7F800003FC
7F800003FC
FF000003FC
FF000001FC
FF000001FE
FF000001FE
FF000001FE
FF000001FE
FF000001FE
FF000001FE
FF000001FE
FF000001FE
FF000003FC
7F800003FC
7F800003FC
7F800007FC
7FC00007F8
3FC0000FF8
3FE0001FF8
1FF0003FF0
1FFC007FF0
0FFF01FFE0
07FFFFFFC0
03FFFFFF80
01FFFFFF00
00FFFFFE00
003FFFFC00
000FFFF000
0001FF0000
ENDCHAR
STARTCHAR 014D
ENCODING 333
SWIDTH 612 0
DWIDTH 34 0
BBX 30 42 2 -1
BITMAP
03FFFE00
03FFFE00
03FFFE00
03FFFE00
00000000
00000000
00000000
00000000
00000000
00000000
001FE000
00FFFC00
03FFFF00
07FFFF80
0FFFFFC0
1FFFFFE0
3FFCFFE0
3FE03FF0
7FC00FF0
7F800FF8
7F8007F8
FF0007F8
FF0003F8
FF0003FC
FF0003FC
FF0003FC
FF0003FC
FF0003FC
FF0003FC
FF0003FC
FF0007F8
7F8007F8
7F800FF8
7FC00FF0
3FE01FF0
3FFCFFE0
1FFFFFE0
0FFFFFC0
07FFFF80
03FFFF00
00FFFC00
001FE000
ENDCHAR
STARTCHAR 014E
ENCODING 334
SWIDTH 774 0
DWIDTH 43 0
BBX 39 56 2 -1
BITMAP
000E00E000
000E00E000
000F01E000
000F83E000
0007FFC000
0003FF8000
0001FF0000
00007C0000
0000000000
0000000000
0000000000
0000000000
0000000000
0000000000
0007FFC000
003FFFF000
00FFFFFC00
01FFFFFE00
03FFFFFF80
07FFFFFFC0
0FFFFFFFC0
1FFE00FFE0
1FF8003FF0
3FF0001FF0
3FE0000FF8
7FC00007F8
7FC00007FC
7F800003FC
7F800003FC
FF000003FC
FF000001FC
FF000001FE
FF000001FE
FF000001FE
FF000001FE
FF000001FE
FF000001FE
FF000001FE
FF000001FE
FF000003FC
7F800003FC
7F800003FC
7F800007FC
7FC00007F8
3FC0000FF8
3FE0001FF8
1FF0003FF0
1FFC007FF0
0FFF01FFE0
07FFFFFFC0
03FFFFFF80
01FFFFFF00
00FFFFFE00
003FFFFC00
000FFFF000
0001FF0000
ENDCHAR
STARTCHAR 014F
ENCODING 335
SWIDTH 612 0
DWIDTH 34 0
BBX 30 46 2 -1
BITMAP
01E01C00
01E01C00
01E03C00
00F87C00
00FFF800
007FF000
003FE000
000FC000
00000000
00000000
00000000
00000000
00000000
00000000
001FE000
00FFFC00
03FFFF00
07FFFF80
0FFFFFC0
1FFFFFE0
3FFCFFE0
3FE03FF0
7FC00FF0
7F800FF8
7F8007F8
FF0007F8
FF0003F8
FF0003FC
FF0003FC
FF0003FC
FF0003FC
FF0003FC
FF0003FC
FF0003FC
FF0007F8
7F8007F8
7F800FF8
7FC00FF0
3FE01FF0
3FFCFFE0
1FFFFFE0
0FFFFFC0
07FFFF80
03FFFF00
00FFFC00
001FE000
ENDCHAR
STARTCHAR 0150
ENCODING 336
SWIDTH 774 0
DWIDTH 43 0
BBX 39 54 2 -1
BITMAP
0000FE1FC0
0001FC3F80
0001F83F00
0003F07E00
0003E07C00
0007C0F800
0007C0F000
000F81E000
0000000000
0000000000
0000000000
0000000000
0007FFC000
003FFFF000
00FFFFFC00
01FFFFFE00
03FFFFFF80
07FFFFFFC0
0FFFFFFFC0
1FFE00FFE0
1FF8003FF0
3FF0001FF0
3FE0000FF8
7FC00007F8
7FC00007FC
7F800003FC
7F800003FC
FF000003FC
FF000001FC
FF000001FE
FF000001FE
FF000001FE
FF000001FE
FF000001FE
FF000001FE
FF000001FE
FF000001FE
FF000003FC
7F800003FC
7F800003FC
7F800007FC
7FC00007F8
3FC0000FF8
3FE0001FF8
1FF0003FF0
1FFC007FF0
0FFF01FFE0
07FFFFFFC0
03FFFFFF80
01FFFFFF00
00FFFFFE00
003FFFFC00
000FFFF000
0001FF0000
ENDCHAR
STARTCHAR 0151
ENCODING 337
SWIDTH 612 0
DWIDTH 34 0
BBX 30 44 2 -1
BITMAP
001FC3F8
001F87F0
003F87E0
003F0FC0
007E0F80
007C0F00
00781F00
00F01E00
00000000
00000000
00000000
00000000
001FE000
00FFFC00
03FFFF00
07FFFF80
0FFFFFC0
1FFFFFE0
3FFCFFE0
3FE03FF0
7FC00FF0
7F800FF8
7F8007F8
FF0007F8
FF0003F8
FF0003FC
FF0003FC
FF0003FC
FF0003FC
FF0003FC
FF0003FC
FF0003FC
FF0007F8
7F8007F8
7F800FF8
7FC00FF0
3FE01FF0
3FFCFFE0
1FFFFFE0
0FFFFFC0
07FFFF80
03FFFF00
00FFFC00
001FE000
ENDCHAR
STARTCHAR 0152
ENCODING 338
SWIDTH 1008 0
DWIDTH 56 0
BBX 52 42 2 0
BITMAP
001FFC7FFFFFE0
007FFF7FFFFFE0
00FFFFFFFFFFE0
03FFFFFFFFFFE0
07FFFFFFFFFFE0
07FFFFFFFFFFE0
0FFFFFFFFFFFE0
1FFC03FF800000
1FF001FF800000
3FE000FF800000
3FE0007F800000
7FC0007F800000
7F80007F800000
7F80007F800000
7F80007F800000
FF00007F800000
FF00007FFFFF80
FF00007FFFFF80
FF00007FFFFF80
FF00007FFFFF80
FF00007FFFFF80
FF00007FFFFF80
FF00007FFFFF80
FF00007F800000
FF00007F800000
FF00007F800000
7F00007F800000
7F80007F800000
7F80007F800000
7FC0007F800000
3FC0007F800000
3FE0007F800000
3FF000FF800000
1FF801FF800000
0FFE07FFFFFFF0
0FFFFFFFFFFFF0
07FFFFFFFFFFF0
03FFFFFFFFFFF0
01FFFF7FFFFFF0
00FFFE7FFFFFF0
003FFC7FFFFFF0
0007F000000000
ENDCHAR
STARTCHAR 0153
ENCODING 339
SWIDTH 936 0
DWIDTH 52 0
BBX 50 32 1 -1
BITMAP
001FE000FF0000
00FFFC07FFC000
03FFFE0FFFF000
07FFFF9FFFF800
0FFFFFFFFFFC00
1FFFFFFFFFFE00
3FFCFFFFE3FF00
3FE03FFF00FF00
7FC00FFE00FF00
7F800FFE007F80
7F8007FC007F80
FF0007FC007F80
FF0003FC003FC0
FF0003FFFFFFC0
FF0003FFFFFFC0
FF0003FFFFFFC0
FF0003FFFFFFC0
FF0003FFFFFFC0
FF0003FC000000
FF0003FC000000
FF0007FC000000
7F8007FC000000
7F800FFE003F80
7FC00FFE007F80
3FE01FFF00FF80
3FFCFFFFE7FF00
1FFFFFFFFFFE00
0FFFFFFFFFFC00
07FFFF9FFFF800
03FFFF0FFFF000
00FFFC07FFC000
001FE000FF0000
ENDCHAR
STARTCHAR 0154
ENCODING 340
SWIDTH 702 0
DWIDTH 39 0
BBX 33 53 4 0
BITMAP
0000FE0000
0001FC0000
0001F80000
0003F80000
0003F00000
0007E00000
0007C00000
0007800000
000F000000
0000000000
0000000000
0000000000
FFFFFF8000
FFFFFFE000
FFFFFFF000
FFFFFFF800
FFFFFFFC00
FFFFFFFE00
FFFFFFFE00
FF0003FE00
FF0001FF00
FF0000FF00
FF0000FF00
FF0000FF00
FF0000FF00
FF0000FF00
FF0000FE00
FF0001FE00
FF0001FE00
FF0007FC00
FFFFFFFC00
FFFFFFF800
FFFFFFE000
FFFFFFC000
FFFFFFF000
FFFFFFF800
FFFFFFFC00
FF0007FC00
FF0003FE00
FF0001FE00
FF0001FE00
FF0001FE00
FF0001FE00
FF0001FE00
FF0001FE00
FF0001FE00
FF0001FE00
FF0001FE00
FF0001FE00
FF0001FE00
FF0001FE00
FF0001FF80
FF0000FF80
ENDCHAR
STARTCHAR 0155
ENCODING 341
SWIDTH 378 0
DWIDTH 21 0
BBX 17 43 3 0
BITMAP
007F00
00FE00
00FC00
01F800
01F000
01F000
03E000
03C000
078000
000000
000000
000000
FF0F80
FF1F80
FF3F80
FF7F80
FF7F80
FFFF80
FFFF80
FFFF80
FFE000
FFC000
FF8000
FF0000
FF0000
FF0000
FF0000
FF0000
FF0000
FF0000
FF0000
FF0000
FF0000
FF0000
FF0000
FF0000
FF0000
FF0000
FF0000
FF0000
FF0000
FF0000
FF0000
ENDCHAR
STARTCHAR 0156
ENCODING 342
SWIDTH 702 0
DWIDTH 39 0
BBX 33 59 4 -18
BITMAP
FFFFFF8000
FFFFFFE000
FFFFFFF000
FFFFFFF800
FFFFFFFC00
FFFFFFFE00
FFFFFFFE00
FF0003FE00
FF0001FF00
FF0000FF00
FF0000FF00
FF0000FF00
FF0000FF00
FF0000FF00
FF0000FE00
FF0001FE00
FF0001FE00
FF0007FC00
FFFFFFFC00
FFFFFFF800
FFFFFFE000
FFFFFFC000
FFFFFFF000
FFFFFFF800
FFFFFFFC00
FF0007FC00
FF0003FE00
FF0001FE00
FF0001FE00
FF0001FE00
FF0001FE00
FF0001FE00
FF0001FE00
FF0001FE00
FF0001FE00
FF0001FE00
FF0001FE00
FF0001FE00
FF0001FE00
FF0001FF80
FF0000FF80
0000000000
0000000000
0000000000
0000000000
0007F00000
0007F00000
0007F00000
0007F00000
0007F00000
0007F00000
0000700000
0000700000
0000700000
0000E00000
0001E00000
0007C00000
0007800000
0004000000
ENDCHAR
STARTCHAR 0157
ENCODING 343
SWIDTH 378 0
DWIDTH 21 0
BBX 17 49 3 -18
BITMAP
FF0F80
FF1F80
FF3F80
FF7F80
FF7F80
FFFF80
FFFF80
FFFF80
FFE000
FFC000
FF8000
FF0000
FF0000
FF0000
FF0000
FF0000
FF0000
FF0000
FF0000
FF0000
FF0000
FF0000
FF0000
FF0000
FF0000
FF0000
FF0000
FF0000
FF0000
FF0000
FF0000
000000
000000
000000
000000
FE0000
FE0000
FE0000
FE0000
FE0000
FE0000
0E0000
0E0000
0E0000
1C0000
3C0000
F80000
F00000
800000
ENDCHAR
STARTCHAR 0158
ENCODING 344
SWIDTH 702 0
DWIDTH 39 0
BBX 33 53 4 0
BITMAP
03E00F0000
01F01E0000
00F03E0000
00F87C0000
007C780000
003EF80000
003FF00000
001FE00000
000FE00000
0000000000
0000000000
0000000000
FFFFFF8000
FFFFFFE000
FFFFFFF000
FFFFFFF800
FFFFFFFC00
FFFFFFFE00
FFFFFFFE00
FF0003FE00
FF0001FF00
FF0000FF00
FF0000FF00
FF0000FF00
FF0000FF00
FF0000FF00
FF0000FE00
FF0001FE00
FF0001FE00
FF0007FC00
FFFFFFFC00
FFFFFFF800
FFFFFFE000
FFFFFFC000
FFFFFFF000
FFFFFFF800
FFFFFFFC00
FF0007FC00
FF0003FE00
FF0001FE00
FF0001FE00
FF0001FE00
FF0001FE00
FF0001FE00
FF0001FE00
FF0001FE00
FF0001FE00
FF0001FE00
FF0001FE00
FF0001FE00
FF0001FE00
FF0001FF80
FF0000FF80
ENDCHAR
STARTCHAR 0159
ENCODING 345
SWIDTH 378 0
DWIDTH 21 0
BBX 17 43 3 0
BITMAP
F00780
F80F00
7C1F00
3C3E00
3E3C00
1F7C00
0FF800
0FF000
07F000
000000
000000
000000
FF0F80
FF1F80
FF3F80
FF7F80
FF7F80
FFFF80
FFFF80
FFFF80
FFE000
FFC000
FF8000
FF0000
FF0000
FF0000
FF0000
FF0000
FF0000
FF0000
FF0000
FF0000
FF0000
FF0000
FF0000
FF0000
FF0000
FF0000
FF0000
FF0000
FF0000
FF0000
FF0000
ENDCHAR
STARTCHAR 015A
ENCODING 346
SWIDTH 666 0
DWIDTH 37 0
BBX 33 54 2 -1
BITMAP
00007F0000
00007E0000
0000FC0000
0000F80000
0001F00000
0003E00000
0003C00000
0007C00000
0000000000
0000000000
0000000000
0000000000
007FFE0000
01FFFFC000
07FFFFE000
0FFFFFF800
1FFFFFF800
1FFFFFFC00
3FF00FFE00
3FC003FE00
7F8001FE00
7F8000FF00
7F8000FF00
7F8000FF00
7F80000000
7FC0000000
7FE0000000
7FFC000000
3FFFC00000
3FFFFE0000
1FFFFFC000
0FFFFFF000
07FFFFFC00
01FFFFFE00
001FFFFF00
0001FFFF00
00000FFF00
000001FF80
000000FF80
0000007F80
0000007F80
FF00007F80
FF00007F80
FF00007F80
FF80007F80
7FC000FF00
7FE003FF00
3FFE1FFE00
3FFFFFFE00
1FFFFFFC00
0FFFFFF800
03FFFFE000
00FFFF8000
001FFC0000
ENDCHAR
STARTCHAR 015B
ENCODING 347
SWIDTH 558 0
DWIDTH 31 0
BBX 27 44 2 -1
BITMAP
0001F800
0003F800
0003F000
0007E000
0007C000
000F8000
001F0000
001E0000
00000000
00000000
00000000
00000000
007FC000
03FFF800
07FFFE00
1FFFFF00
1FFFFF80
3FFFFFC0
3FF9FFC0
7FC03FC0
7F801FE0
7F801FE0
7F800000
7FF00000
7FFE0000
3FFFE000
3FFFFC00
1FFFFF00
07FFFF80
00FFFFC0
001FFFC0
0001FFE0
00003FE0
00001FE0
FF001FE0
FF001FE0
FF803FE0
FFF1FFC0
7FFFFFC0
3FFFFF80
3FFFFF00
0FFFFE00
07FFFC00
00FFE000
ENDCHAR
STARTCHAR 015C
ENCODING 348
SWIDTH 666 0
DWIDTH 37 0
BBX 33 56 2 -1
BITMAP
0003F00000
0007F80000
000FFC0000
001F7C0000
003E3E0000
007C1F0000
00780F0000
00F8078000
0000000000
0000000000
0000000000
0000000000
0000000000
0000000000
007FFE0000
01FFFFC000
07FFFFE000
0FFFFFF800
1FFFFFF800
1FFFFFFC00
3FF00FFE00
3FC003FE00
7F8001FE00
7F8000FF00
7F8000FF00
7F8000FF00
7F80000000
7FC0000000
7FE0000000
7FFC000000
3FFFC00000
3FFFFE0000
1FFFFFC000
0FFFFFF000
07FFFFFC00
01FFFFFE00
001FFFFF00
0001FFFF00
00000FFF00
000001FF80
000000FF80
0000007F80
0000007F80
FF00007F80
FF00007F80
FF00007F80
FF80007F80
7FC000FF00
7FE003FF00
3FFE1FFE00
3FFFFFFE00
1FFFFFFC00
0FFFFFF800
03FFFFE000
00FFFF8000
001FFC0000
ENDCHAR
STARTCHAR 015D
ENCODING 349
SWIDTH 558 0
DWIDTH 31 0
BBX 27 46 2 -1
BITMAP
001F8000
003FC000
003FC000
007FE000
00F9F000
01F0F000
01E0F800
03C07C00
07C03C00
00000000
00000000
00000000
00000000
00000000
007FC000
03FFF800
07FFFE00
1FFFFF00
1FFFFF80
3FFFFFC0
3FF9FFC0
7FC03FC0
7F801FE0
7F801FE0
7F800000
7FF00000
7FFE0000
3FFFE000
3FFFFC00
1FFFFF00
07FFFF80
00FFFFC0
001FFFC0
0001FFE0
00003FE0
00001FE0
FF001FE0
FF001FE0
FF803FE0
FFF1FFC0
7FFFFFC0
3FFFFF80
3FFFFF00
0FFFFE00
07FFFC00
00FFE000
ENDCHAR
STARTCHAR 015E
ENCODING 350
SWIDTH 666 0
DWIDTH 37 0
BBX 33 53 2 -11
BITMAP
007FFE0000
01FFFFC000
07FFFFE000
0FFFFFF800
1FFFFFF800
3FFFFFFC00
3FF00FFE00
3FC003FE00
7F8001FE00
7F8000FF00
7F8000FF00
7F8000FF00
7F80000000
7FC0000000
7FE0000000
3FFC000000
3FFFF00000
3FFFFF0000
1FFFFFE000
0FFFFFF800
03FFFFFC00
007FFFFE00
0007FFFF00
00003FFF00
000003FF00
000001FF80
000000FF80
0000007F80
FF00007F80
FF00007F80
FF00007F80
FF00007F80
7F8000FF80
7FC000FF00
7FE003FF00
3FFE1FFF00
3FFFFFFE00
1FFFFFFC00
0FFFFFF800
03FFFFF000
01FFFFC000
003FFE0000
0001800000
0003800000
0003F80000
0007FC0000
0004FE0000
00003E0000
00003E0000
00607E0000
00FFFC0000
00FFF80000
001FE00000
ENDCHAR
STARTCHAR 015F
ENCODING 351
SWIDTH 558 0
DWIDTH 31 0
BBX 27 43 2 -12
BITMAP
00FF8000
07FFF000
0FFFFC00
3FFFFE00
3FFFFF00
7FFFFF80
7FF3FF80
FF807F80
FF003FC0
FF003FC0
FF000000
FFC00000
FFFC0000
7FFFC000
7FFFF800
3FFFFE00
1FFFFF80
03FFFFC0
007FFFC0
0007FFC0
0000FFE0
00003FE0
FE001FE0
FE001FE0
FF003FC0
FFE3FFC0
FFFFFFC0
7FFFFF80
3FFFFF00
1FFFFE00
07FFF800
00FFE000
00380000
00380000
007F8000
007FC000
0087E000
0003E000
0003E000
0E07E000
0FFFC000
0FFF8000
01FE0000
ENDCHAR
STARTCHAR 0160
ENCODING 352
SWIDTH 666 0
DWIDTH 37 0
BBX 33 54 2 -1
BITMAP
00F0078000
00F80F0000
007C1E0000
003E3E0000
001F7C0000
001FF80000
000FF00000
0007F00000
0000000000
0000000000
0000000000
0000000000
007FFE0000
01FFFFC000
07FFFFE000
0FFFFFF800
1FFFFFF800
1FFFFFFC00
3FF00FFE00
3FC003FE00
7F8001FE00
7F8000FF00
7F8000FF00
7F8000FF00
7F80000000
7FC0000000
7FE0000000
7FFC000000
3FFFC00000
3FFFFE0000
1FFFFFC000
0FFFFFF000
07FFFFFC00
01FFFFFE00
001FFFFF00
0001FFFF00
00000FFF00
000001FF80
000000FF80
0000007F80
0000007F80
FF00007F80
FF00007F80
FF00007F80
FF80007F80
7FC000FF00
7FE003FF00
3FFE1FFE00
3FFFFFFE00
1FFFFFFC00
0FFFFFF800
03FFFFE000
00FFFF8000
001FFC0000
ENDCHAR
STARTCHAR 0161
ENCODING 353
SWIDTH 558 0
DWIDTH 31 0
BBX 27 44 2 -1
BITMAP
07C03E00
03E03C00
01F07800
01F0F000
00F9F000
007FE000
003FC000
003F8000
00000000
00000000
00000000
00000000
007FC000
03FFF800
07FFFE00
1FFFFF00
1FFFFF80
3FFFFFC0
3FF9FFC0
7FC03FC0
7F801FE0
7F801FE0
7F800000
7FF00000
7FFE0000
3FFFE000
3FFFFC00
1FFFFF00
07FFFF80
00FFFFC0
001FFFC0
0001FFE0
00003FE0
00001FE0
FF001FE0
FF001FE0
FF803FE0
FFF1FFC0
7FFFFFC0
3FFFFF80
3FFFFF00
0FFFFE00
07FFFC00
00FFE000
ENDCHAR
STARTCHAR 0162
ENCODING 354
SWIDTH 612 0
DWIDTH 34 0
BBX 32 53 1 -12
BITMAP
FFFFFFFF
FFFFFFFF
FFFFFFFF
FFFFFFFF
FFFFFFFF
FFFFFFFF
FFFFFFFF
000FF000
000FF000
000FF000
000FF000
000FF000
000FF000
000FF000
000FF000
000FF000
000FF000
000FF000
000FF000
000FF000
000FF000
000FF000
000FF000
000FF000
000FF000
000FF000
000FF000
000FF000
000FF000
000FF000
000FF000
000FF000
000FF000
000FF000
000FF000
000FF000
000FF000
000FF000
000FF000
000FF000
000FF000
0000E000
0000C000
0001C000
0001FC00
0003FE00
00023F00
00001F00
00001F00
00303F00
007FFE00
007FFC00
0007F000
ENDCHAR
STARTCHAR 0163
ENCODING 355
SWIDTH 324 0
DWIDTH 18 0
BBX 17 51 1 -12
BITMAP
0FF000
0FF000
0FF000
0FF000
0FF000
0FF000
0FF000
0FF000
FFFF00
FFFF00
FFFF00
FFFF00
FFFF00
0FF000
0FF000
0FF000
0FF000
0FF000
0FF000
0FF000
0FF000
0FF000
0FF000
0FF000
0FF000
0FF000
0FF000
0FF000
0FF000
0FF000
0FF000
0FF000
0FF000
0FFF00
0FFF00
07FF00
07FF00
03FF00
00FF00
003000
007000
006000
00FE00
00FF00
011F80
000F80
000F80
1C1F80
1FFF00
1FFE00
03FC00
ENDCHAR
STARTCHAR 0164
ENCODING 356
SWIDTH 612 0
DWIDTH 34 0
BBX 32 53 1 0
BITMAP
00F00F00
00F81F00
00781E00
007C3C00
003E7C00
001FF800
001FF000
000FF000
0007E000
00000000
00000000
00000000
FFFFFFFF
FFFFFFFF
FFFFFFFF
FFFFFFFF
FFFFFFFF
FFFFFFFF
FFFFFFFF
000FF000
000FF000
000FF000
000FF000
000FF000
000FF000
000FF000
000FF000
000FF000
000FF000
000FF000
000FF000
000FF000
000FF000
000FF000
000FF000
000FF000
000FF000
000FF000
000FF000
000FF000
000FF000
000FF000
000FF000
000FF000
000FF000
000FF000
000FF000
000FF000
000FF000
000FF000
000FF000
000FF000
000FF000
ENDCHAR
STARTCHAR 0165
ENCODING 357
SWIDTH 324 0
DWIDTH 18 0
BBX 21 48 1 -1
BITMAP
0003F8
0003F8
0003F8
0003F8
0003F8
0003F8
000038
000038
0FF038
0FF070
0FF0F0
0FF3E0
0FF3C0
0FF380
0FF000
0FF000
0FF000
FFFF00
FFFF00
FFFF00
FFFF00
FFFF00
0FF000
0FF000
0FF000
0FF000
0FF000
0FF000
0FF000
0FF000
0FF000
0FF000
0FF000
0FF000
0FF000
0FF000
0FF000
0FF000
0FF000
0FF000
0FF000
0FFC00
0FFF00
0FFF00
07FF00
07FF00
03FF00
00FE00
ENDCHAR
STARTCHAR 0166
ENCODING 358
SWIDTH 612 0
DWIDTH 34 0
BBX 32 41 1 0
BITMAP
FFFFFFFF
FFFFFFFF
FFFFFFFF
FFFFFFFF
FFFFFFFF
FFFFFFFF
FFFFFFFF
000FF000
000FF000
000FF000
000FF000
000FF000
000FF000
000FF000
000FF000
000FF000
000FF000
000FF000
000FF000
000FF000
000FF000
000FF000
000FF000
000FF000
000FF000
000FF000
000FF000
000FF000
000FF000
000FF000
000FF000
000FF000
000FF000
000FF000
000FF000
000FF000
000FF000
000FF000
000FF000
000FF000
000FF000
ENDCHAR
STARTCHAR 0167
ENCODING 359
SWIDTH 342 0
DWIDTH 19 0
BBX 16 40 1 -1
BITMAP
0FF0
0FF0
0FF0
0FF0
0FF0
0FF0
0FF0
0FF0
0FF0
FFFF
FFFF
FFFF
FFFF
FFFF
0FF0
0FF0
0FF0
0FF0
0FF0
0FF0
0FF0
0FF0
0FF0
0FF0
0FF0
0FF0
0FF0
0FF0
0FF0
0FF0
0FF0
0FF0
0FF0
0FFC
0FFF
0FFF
07FF
07FF
03FF
00FE
ENDCHAR
STARTCHAR 0168
ENCODING 360
SWIDTH 720 0
DWIDTH 40 0
BBX 32 55 4 -1
BITMAP
007803C0
00FE03C0
00FFC3C0
01FFFFC0
01FFFF80
01C3FF00
01803E00
00000000
00000000
00000000
00000000
00000000
00000000
FF0000FF
FF0000FF
FF0000FF
FF0000FF
FF0000FF
FF0000FF
FF0000FF
FF0000FF
FF0000FF
FF0000FF
FF0000FF
FF0000FF
FF0000FF
FF0000FF
FF0000FF
FF0000FF
FF0000FF
FF0000FF
FF0000FF
FF0000FF
FF0000FF
FF0000FF
FF0000FF
FF0000FF
FF0000FF
FF0000FF
FF0000FF
FF0000FF
FF0000FF
FF0000FF
FF0000FF
FF0001FE
7F8001FE
7FC003FE
7FF00FFC
3FFFFFFC
1FFFFFF8
1FFFFFF0
07FFFFE0
03FFFFC0
00FFFF00
001FF800
ENDCHAR
STARTCHAR 0169
ENCODING 361
SWIDTH 612 0
DWIDTH 34 0
BBX 27 45 3 -1
BITMAP
01E00E00
03F81E00
07FF1E00
0FFFFE00
0FFFFC00
0F0FFC00
0E01F000
00000000
00000000
00000000
00000000
00000000
00000000
FF001FE0
FF001FE0
FF001FE0
FF001FE0
FF001FE0
FF001FE0
FF001FE0
FF001FE0
FF001FE0
FF001FE0
FF001FE0
FF001FE0
FF001FE0
FF001FE0
FF001FE0
FF001FE0
FF001FE0
FF001FE0
FF001FE0
FF001FE0
FF001FE0
FF001FE0
FF003FE0
FF003FE0
FF807FE0
7FF3FFE0
7FFFFFE0
7FFFFFE0
3FFFDFE0
1FFF9FE0
0FFF1FE0
03FC0000
ENDCHAR
STARTCHAR 016A
ENCODING 362
SWIDTH 720 0
DWIDTH 40 0
BBX 32 52 4 -1
BITMAP
00FFFF80
00FFFF80
00FFFF80
00FFFF80
00000000
00000000
00000000
00000000
00000000
00000000
FF0000FF
FF0000FF
FF0000FF
FF0000FF
FF0000FF
FF0000FF
FF0000FF
FF0000FF
FF0000FF
FF0000FF
FF0000FF
FF0000FF
FF0000FF
FF0000FF
FF0000FF
FF0000FF
FF0000FF
FF0000FF
FF0000FF
FF0000FF
FF0000FF
FF0000FF
FF0000FF
FF0000FF
FF0000FF
FF0000FF
FF0000FF
FF0000FF
FF0000FF
FF0000FF
FF0000FF
FF0001FE
7F8001FE
7FC003FE
7FF00FFC
3FFFFFFC
1FFFFFF8
1FFFFFF0
07FFFFE0
03FFFFC0
00FFFF00
001FF800
ENDCHAR
STARTCHAR 016B
ENCODING 363
SWIDTH 612 0
DWIDTH 34 0
BBX 27 42 3 -1
BITMAP
07FFFC00
07FFFC00
07FFFC00
07FFFC00
00000000
00000000
00000000
00000000
00000000
00000000
FF001FE0
FF001FE0
FF001FE0
FF001FE0
FF001FE0
FF001FE0
FF001FE0
FF001FE0
FF001FE0
FF001FE0
FF001FE0
FF001FE0
FF001FE0
FF001FE0
FF001FE0
FF001FE0
FF001FE0
FF001FE0
FF001FE0
FF001FE0
FF001FE0
FF001FE0
FF003FE0
FF003FE0
FF807FE0
7FF3FFE0
7FFFFFE0
7FFFFFE0
3FFFDFE0
1FFF9FE0
0FFF1FE0
03FC0000
ENDCHAR
STARTCHAR 016C
ENCODING 364
SWIDTH 720 0
DWIDTH 40 0
BBX 32 56 4 -1
BITMAP
00700700
00780F00
00780F00
007C1E00
003FFE00
001FFC00
000FF800
0003E000
00000000
00000000
00000000
00000000
00000000
00000000
FF0000FF
FF0000FF
FF0000FF
FF0000FF
FF0000FF
FF0000FF
FF0000FF
FF0000FF
FF0000FF
FF0000FF
FF0000FF
FF0000FF
FF0000FF
FF0000FF
FF0000FF
FF0000FF
FF0000FF
FF0000FF
FF0000FF
FF0000FF
FF0000FF
FF0000FF
FF0000FF
FF0000FF
FF0000FF
FF0000FF
FF0000FF
FF0000FF
FF0000FF
FF0000FF
FF0000FF
FF0001FE
7F8001FE
7FC003FE
7FF00FFC
3FFFFFFC
1FFFFFF8
1FFFFFF0
07FFFFE0
03FFFFC0
00FFFF00
001FF800
ENDCHAR
STARTCHAR 016D
ENCODING 365
SWIDTH 612 0
DWIDTH 34 0
BBX 27 46 3 -1
BITMAP
03807800
03807800
03C07800
03E0F800
01FFF000
00FFE000
007FC000
003F0000
00000000
00000000
00000000
00000000
00000000
00000000
FF001FE0
FF001FE0
FF001FE0
FF001FE0
FF001FE0
FF001FE0
FF001FE0
FF001FE0
FF001FE0
FF001FE0
FF001FE0
FF001FE0
FF001FE0
FF001FE0
FF001FE0
FF001FE0
FF001FE0
FF001FE0
FF001FE0
FF001FE0
FF001FE0
FF001FE0
FF003FE0
FF003FE0
FF807FE0
7FF3FFE0
7FFFFFE0
7FFFFFE0
3FFFDFE0
1FFF9FE0
0FFF1FE0
03FC0000
ENDCHAR
STARTCHAR 016E
ENCODING 366
SWIDTH 720 0
DWIDTH 40 0
BBX 32 55 4 -1
BITMAP
0003C000
0007F000
000FF000
001C3800
001C3800
001C3800
001C3800
000FF000
000FF000
0003C000
00000000
00000000
00000000
FF0000FF
FF0000FF
FF0000FF
FF0000FF
FF0000FF
FF0000FF
FF0000FF
FF0000FF
FF0000FF
FF0000FF
FF0000FF
FF0000FF
FF0000FF
FF0000FF
FF0000FF
FF0000FF
FF0000FF
FF0000FF
FF0000FF
FF0000FF
FF0000FF
FF0000FF
FF0000FF
FF0000FF
FF0000FF
FF0000FF
FF0000FF
FF0000FF
FF0000FF
FF0000FF
FF0000FF
FF0001FE
7F8001FE
7FC003FE
7FF00FFC
3FFFFFFC
1FFFFFF8
1FFFFFF0
07FFFFE0
03FFFFC0
00FFFF00
001FF800
ENDCHAR
STARTCHAR 016F
ENCODING 367
SWIDTH 612 0
DWIDTH 34 0
BBX 27 45 3 -1
BITMAP
000E0000
003F8000
007FC000
00F1C000
00E0E000
00E0E000
00E0E000
0071C000
007FC000
003F8000
000E0000
00000000
00000000
FF001FE0
FF001FE0
FF001FE0
FF001FE0
FF001FE0
FF001FE0
FF001FE0
FF001FE0
FF001FE0
FF001FE0
FF001FE0
FF001FE0
FF001FE0
FF001FE0
FF001FE0
FF001FE0
FF001FE0
FF001FE0
FF001FE0
FF001FE0
FF001FE0
FF001FE0
FF003FE0
FF003FE0
FF807FE0
7FF3FFE0
7FFFFFE0
7FFFFFE0
3FFFDFE0
1FFF9FE0
0FFF1FE0
03FC0000
ENDCHAR
STARTCHAR 0170
ENCODING 368
SWIDTH 720 0
DWIDTH 40 0
BBX 32 54 4 -1
BITMAP
000FE1FC
000FC1F8
001FC3F0
001F83E0
003F07C0
003E07C0
007C0F80
00780F00
00000000
00000000
00000000
00000000
FF0000FF
FF0000FF
FF0000FF
FF0000FF
FF0000FF
FF0000FF
FF0000FF
FF0000FF
FF0000FF
FF0000FF
FF0000FF
FF0000FF
FF0000FF
FF0000FF
FF0000FF
FF0000FF
FF0000FF
FF0000FF
FF0000FF
FF0000FF
FF0000FF
FF0000FF
FF0000FF
FF0000FF
FF0000FF
FF0000FF
FF0000FF
FF0000FF
FF0000FF
FF0000FF
FF0000FF
FF0001FE
7F8001FE
7FC003FE
7FF00FFC
3FFFFFFC
1FFFFFF8
1FFFFFF0
07FFFFE0
03FFFFC0
00FFFF00
001FF800
ENDCHAR
STARTCHAR 0171
ENCODING 369
SWIDTH 612 0
DWIDTH 34 0
BBX 27 44 3 -1
BITMAP
003F8FE0
003F0FC0
007E1FC0
007C1F80
00F81F00
00F03E00
01F03C00
01E07800
00000000
00000000
00000000
00000000
FF001FE0
FF001FE0
FF001FE0
FF001FE0
FF001FE0
FF001FE0
FF001FE0
FF001FE0
FF001FE0
FF001FE0
FF001FE0
FF001FE0
FF001FE0
FF001FE0
FF001FE0
FF001FE0
FF001FE0
FF001FE0
FF001FE0
FF001FE0
FF001FE0
FF001FE0
FF003FE0
FF003FE0
FF807FE0
7FF3FFE0
7FFFFFE0
7FFFFFE0
3FFFDFE0
1FFF9FE0
0FFF1FE0
03FC0000
ENDCHAR
STARTCHAR 0172
ENCODING 370
SWIDTH 720 0
DWIDTH 40 0
BBX 32 54 4 -13
BITMAP
FF0000FF
FF0000FF
FF0000FF
FF0000FF
FF0000FF
FF0000FF
FF0000FF
FF0000FF
FF0000FF
FF0000FF
FF0000FF
FF0000FF
FF0000FF
FF0000FF
FF0000FF
FF0000FF
FF0000FF
FF0000FF
FF0000FF
FF0000FF
FF0000FF
FF0000FF
FF0000FF
FF0000FF
FF0000FF
FF0000FF
FF0000FF
FF0000FF
FF0000FF
FF0000FF
FF0000FF
FF0001FE
7F8001FE
7FC003FE
7FF00FFC
3FFFFFFC
3FFFFFF8
1FFFFFF8
0FFFFFF0
03FFFFE0
01FFFFC0
001FFF80
00000F00
00001E00
00003C00
00007C00
0000F800
0000F800
0000F800
0000F800
0000FC00
00007FF8
00003FF8
00000FF8
ENDCHAR
STARTCHAR 0173
ENCODING 371
SWIDTH 612 0
DWIDTH 34 0
BBX 28 44 3 -13
BITMAP
FF001FE0
FF001FE0
FF001FE0
FF001FE0
FF001FE0
FF001FE0
FF001FE0
FF001FE0
FF001FE0
FF001FE0
FF001FE0
FF001FE0
FF001FE0
FF001FE0
FF001FE0
FF001FE0
FF001FE0
FF001FE0
FF001FE0
FF001FE0
FF001FE0
FF001FE0
FF003FE0
FF003FE0
FF807FE0
7FF3FFE0
7FFFFFE0
7FFFFFE0
3FFFDFE0
1FFF9FE0
0FFF1FE0
03FC03C0
00000F00
00003E00
00007C00
00007C00
0000F800
0000F800
0000F800
0000F800
0000FC00
00007FF0
00003FF0
00000FE0
ENDCHAR
STARTCHAR 0174
ENCODING 372
SWIDTH 936 0
DWIDTH 52 0
BBX 51 55 1 0
BITMAP
000003F8000000
000007F8000000
000007FC000000
00000FBE000000
00001F1F000000
00003E0F000000
00003C07800000
00007807C00000
00000000000000
00000000000000
00000000000000
00000000000000
00000000000000
00000000000000
FF8007F8003FE0
FF8007FC003FC0
FF8007FC007FC0
7F800FFC007FC0
7F800FFC007FC0
7FC00FFC007F80
3FC00FFE007F80
3FC00FFE00FF80
3FC01FFE00FF00
3FC01FFE00FF00
1FE01FBF00FF00
1FE01FBF00FF00
1FE01FBF01FE00
0FE03F3F01FE00
0FF03F3F01FE00
0FF03F1F81FE00
0FF03F1F81FC00
07F03F1F83FC00
07F07E1F83FC00
07F87E0F83F800
07F87E0FC3F800
03F87E0FC3F800
03F8FE0FC7F800
03F8FC0FC7F000
01FCFC07E7F000
01FCFC07E7F000
01FCFC07E7F000
01FDF807E7E000
00FDF807EFE000
00FFF803FFE000
00FFF803FFC000
007FF803FFC000
007FF003FFC000
007FF003FFC000
007FF001FF8000
003FF001FF8000
003FF001FF8000
003FE001FF8000
003FE000FF0000
001FE000FF0000
001FE000FF0000
ENDCHAR
STARTCHAR 0175
ENCODING 373
SWIDTH 774 0
DWIDTH 43 0
BBX 42 45 0 0
BITMAP
00003F800000
00003F800000
00007FC00000
0000FBE00000
0000F3E00000
0001E1F00000
0003E0F80000
0003C0780000
0007807C0000
000000000000
000000000000
000000000000
000000000000
000000000000
FF003FC03FC0
7F807FC03FC0
7F807FC03FC0
7F807FC03FC0
7F807FC03F80
3FC0FFE07F80
3FC0FFE07F80
3FC0FFE07F80
1FC0FFE07F00
1FC0FBE0FF00
1FE1FBF0FF00
1FE1FBF0FE00
0FE1FBF0FE00
0FE1FBF0FE00
0FF1F1F1FE00
0FF3F1F9FC00
07F3F1F9FC00
07F3F1F9FC00
07F3E1F9FC00
03FBE0FBF800
03FFE0FFF800
03FFE0FFF800
03FFE0FFF000
01FFC0FFF000
01FFC07FF000
01FFC07FF000
00FFC07FE000
00FFC07FE000
00FF807FE000
00FF803FC000
007F803FC000
ENDCHAR
STARTCHAR 0176
ENCODING 374
SWIDTH 666 0
DWIDTH 37 0
BBX 33 55 2 0
BITMAP
0003F00000
0007F80000
000FF80000
001F7C0000
001E3E0000
003C1E0000
00780F0000
00F80F8000
0000000000
0000000000
0000000000
0000000000
0000000000
0000000000
FF8000FF80
FF8000FF80
7FC001FF00
7FC001FF00
3FE003FE00
3FE003FE00
1FF003FC00
1FF007FC00
0FF807F800
0FF80FF800
07F80FF000
03FC0FF000
03FC1FE000
01FE1FE000
01FE3FC000
00FF3FC000
00FF7F8000
007FFF8000
007FFF0000
003FFF0000
003FFE0000
001FFE0000
001FFC0000
000FFC0000
000FF80000
0007F80000
0007F80000
0007F80000
0007F80000
0007F80000
0007F80000
0007F80000
0007F80000
0007F80000
0007F80000
0007F80000
0007F80000
0007F80000
0007F80000
0007F80000
0007F80000
ENDCHAR
STARTCHAR 0177
ENCODING 375
SWIDTH 558 0
DWIDTH 31 0
BBX 29 58 1 -12
BITMAP
000FC000
001FC000
003FE000
007DF000
0079F000
00F8F800
01F07C00
01E03C00
03C01E00
00000000
00000000
00000000
00000000
00000000
00000000
FF8007F8
FF8007F8
7F800FF0
7FC00FF0
7FC00FF0
3FC00FE0
3FC01FE0
1FE01FE0
1FE01FC0
1FE03FC0
0FF03FC0
0FF03F80
0FF03F80
07F87F80
07F87F00
07F87F00
03F8FE00
03FCFE00
03FCFE00
01FCFC00
01FFFC00
00FFFC00
00FFF800
00FFF800
007FF800
007FF000
007FF000
003FF000
003FE000
003FE000
001FE000
001FC000
001FC000
001FC000
003F8000
007F8000
09FF8000
0FFF0000
0FFF0000
0FFE0000
0FFE0000
0FF80000
0FE00000
ENDCHAR
STARTCHAR 0178
ENCODING 376
SWIDTH 666 0
DWIDTH 37 0
BBX 34 52 2 0
BITMAP
007E1F8000
007E1F8000
007E1F8000
007E1F8000
007E1F8000
007E1F8000
0000000000
0000000000
0000000000
0000000000
0000000000
FF8000FFC0
FFC000FF80
7FC001FF80
3FE001FF00
3FE001FF00
1FE003FE00
1FF003FE00
0FF007FC00
0FF807FC00
07F807F800
07FC0FF800
03FC0FF000
03FE1FF000
01FE1FE000
01FE1FE000
00FF3FC000
00FF3FC000
007FFF8000
007FFF8000
003FFF0000
003FFE0000
001FFE0000
001FFC0000
000FFC0000
000FF80000
0007F80000
0007F80000
0007F80000
0007F80000
0007F80000
0007F80000
0007F80000
0007F80000
0007F80000
0007F80000
0007F80000
0007F80000
0007F80000
0007F80000
0007F80000
0007F80000
ENDCHAR
STARTCHAR 0179
ENCODING 377
SWIDTH 612 0
DWIDTH 34 0
BBX 30 53 2 0
BITMAP
0001FC00
0001FC00
0001F800
0003F000
0003E000
0007C000
0007C000
000F8000
000F0000
00000000
00000000
00000000
FFFFFFFC
FFFFFFFC
FFFFFFFC
FFFFFFFC
FFFFFFFC
FFFFFFFC
FFFFFFFC
00000FFC
00001FF8
00003FF0
00003FE0
00007FE0
0000FFC0
0001FF80
0001FF00
0003FF00
0007FE00
000FFC00
000FF800
001FF800
003FF000
007FE000
007FC000
00FFC000
01FF8000
03FF0000
03FE0000
07FE0000
0FFC0000
1FF80000
1FF00000
3FF00000
7FE00000
FFC00000
FFFFFFFC
FFFFFFFC
FFFFFFFC
FFFFFFFC
FFFFFFFC
FFFFFFFC
FFFFFFFC
ENDCHAR
STARTCHAR 017A
ENCODING 378
SWIDTH 504 0
DWIDTH 28 0
BBX 25 43 1 0
BITMAP
0007F000
0007E000
000FC000
000FC000
001F8000
001F0000
003E0000
003C0000
003C0000
00000000
00000000
00000000
00000000
7FFFFF00
7FFFFF00
7FFFFF00
7FFFFF00
7FFFFF00
7FFFFF00
0003FF00
0007FE00
0007FC00
000FF800
001FF000
003FE000
007FE000
00FFC000
00FF8000
01FF0000
03FE0000
07FE0000
0FFC0000
1FF80000
1FF00000
3FE00000
7FC00000
FFC00000
FFFFFF80
FFFFFF80
FFFFFF80
FFFFFF80
FFFFFF80
FFFFFF80
ENDCHAR
STARTCHAR 017B
ENCODING 379
SWIDTH 612 0
DWIDTH 34 0
BBX 30 52 2 0
BITMAP
000FC000
000FC000
000FC000
000FC000
000FC000
000FC000
00000000
00000000
00000000
00000000
00000000
FFFFFFFC
FFFFFFFC
FFFFFFFC
FFFFFFFC
FFFFFFFC
FFFFFFFC
FFFFFFFC
00000FFC
00001FF8
00003FF0
00003FE0
00007FE0
0000FFC0
0001FF80
0001FF00
0003FF00
0007FE00
000FFC00
000FF800
001FF800
003FF000
007FE000
007FC000
00FFC000
01FF8000
03FF0000
03FE0000
07FC0000
0FFC0000
1FF80000
1FF00000
3FE00000
7FE00000
FFC00000
FFFFFFFC
FFFFFFFC
FFFFFFFC
FFFFFFFC
FFFFFFFC
FFFFFFFC
FFFFFFFC
ENDCHAR
STARTCHAR 017C
ENCODING 380
SWIDTH 504 0
DWIDTH 28 0
BBX 25 42 1 0
BITMAP
003F0000
003F0000
003F0000
003F0000
003F0000
003F0000
00000000
00000000
00000000
00000000
00000000
00000000
7FFFFF00
7FFFFF00
7FFFFF00
7FFFFF00
7FFFFF00
7FFFFF00
0001FF00
0003FE00
0007FC00
000FF800
001FF000
003FF000
007FE000
007FC000
00FF8000
01FF0000
03FF0000
07FE0000
0FFC0000
1FF80000
1FF00000
3FF00000
7FE00000
FFC00000
FFFFFF80
FFFFFF80
FFFFFF80
FFFFFF80
FFFFFF80
FFFFFF80
ENDCHAR
STARTCHAR 017D
ENCODING 381
SWIDTH 612 0
DWIDTH 34 0
BBX 30 53 2 0
BITMAP
01E00F00
01F01E00
00F03C00
00787C00
007CF800
003EF000
003FF000
001FE000
000FC000
00000000
00000000
00000000
FFFFFFFC
FFFFFFFC
FFFFFFFC
FFFFFFFC
FFFFFFFC
FFFFFFFC
FFFFFFFC
00000FFC
00001FF8
00003FF0
00003FE0
00007FE0
0000FFC0
0001FF80
0001FF00
0003FF00
0007FE00
000FFC00
000FF800
001FF800
003FF000
007FE000
007FC000
00FFC000
01FF8000
03FF0000
03FE0000
07FE0000
0FFC0000
1FF80000
1FF00000
3FF00000
7FE00000
FFC00000
FFFFFFFC
FFFFFFFC
FFFFFFFC
FFFFFFFC
FFFFFFFC
FFFFFFFC
FFFFFFFC
ENDCHAR
STARTCHAR 017E
ENCODING 382
SWIDTH 504 0
DWIDTH 28 0
BBX 25 43 1 0
BITMAP
0F007800
0780F800
07C1F000
03E1E000
01E3E000
01F7C000
00FF8000
007F0000
007F0000
00000000
00000000
00000000
00000000
7FFFFF00
7FFFFF00
7FFFFF00
7FFFFF00
7FFFFF00
7FFFFF00
0003FF00
0007FE00
0007FC00
000FF800
001FF000
003FE000
007FE000
00FFC000
00FF8000
01FF0000
03FE0000
07FE0000
0FFC0000
1FF80000
1FF00000
3FE00000
7FC00000
FFC00000
FFFFFF80
FFFFFF80
FFFFFF80
FFFFFF80
FFFFFF80
FFFFFF80
ENDCHAR
STARTCHAR 017F
ENCODING 383
SWIDTH 324 0
DWIDTH 18 0
BBX 16 41 1 0
BITMAP
00FF
03FF
07FF
07FF
0FFF
0FFF
0FF8
0FF0
0FF0
0FF0
0FF0
FFF0
FFF0
FFF0
FFF0
FFF0
0FF0
0FF0
0FF0
0FF0
0FF0
0FF0
0FF0
0FF0
0FF0
0FF0
0FF0
0FF0
0FF0
0FF0
0FF0
0FF0
0FF0
0FF0
0FF0
0FF0
0FF0
0FF0
0FF0
0FF0
0FF0
ENDCHAR
STARTCHAR 0180
ENCODING 384
SWIDTH 612 0
DWIDTH 34 0
BBX 32 42 0 -1
BITMAP
1FE00000
1FE00000
1FE00000
FFFFE000
FFFFE000
FFFFE000
FFFFE000
1FE00000
1FE00000
1FE00000
1FE0FE00
1FE3FF80
1FE7FFC0
1FEFFFE0
1FFFFFF0
1FFFFFF8
1FFF9FFC
1FFC07FC
1FF803FE
1FF801FE
1FF001FE
1FF000FF
1FE000FF
1FE000FF
1FE000FF
1FE000FF
1FE000FF
1FE000FF
1FE000FF
1FE000FF
1FF000FF
1FF001FE
1FF001FE
1FF803FE
1FFC07FC
1FFF9FFC
1FFFFFF8
1FFFFFF0
1FFFFFE0
1FEFFFC0
1FE3FF80
0000FE00
ENDCHAR
STARTCHAR 0181
ENCODING 385
SWIDTH 954 0
DWIDTH 53 0
BBX 48 41 2 0
BITMAP
00FFFFFFFC00
07FFFFFFFF80
0FFFFFFFFFE0
1FFFFFFFFFF0
3FFFFFFFFFF8
7FFFFFFFFFF8
7FFFFFFFFFFC
FFFFFF000FFC
FFE0FF0003FE
FF00FF0001FE
FE00FF0001FE
FE00FF0001FE
FE00FF0001FC
FF80FF0001FC
FFF0FF0003FC
FFF0FF000FF8
7FF0FFFFFFF0
7FF0FFFFFFE0
3FF0FFFFFFC0
1FF0FFFFFFC0
0FF0FFFFFFE0
07F0FFFFFFF8
00F0FFFFFFF8
0000FF0007FC
0000FF0001FE
0000FF0001FE
0000FF0000FE
0000FF0000FF
0000FF0000FF
0000FF0000FF
0000FF0000FF
0000FF0001FF
0000FF0001FE
0000FF0007FE
0000FFFFFFFE
0000FFFFFFFC
0000FFFFFFF8
0000FFFFFFF0
0000FFFFFFE0
0000FFFFFF80
0000FFFFFE00
ENDCHAR
STARTCHAR 0182
ENCODING 386
SWIDTH 720 0
DWIDTH 40 0
BBX 32 41 5 0
BITMAP
FFFFFFF0
FFFFFFF0
FFFFFFF0
FFFFFFF0
FFFFFFF0
FFFFFFF0
FFFFFFF0
FF000000
FF000000
FF000000
FF000000
FF000000
FF000000
FF000000
FF000000
FFFFFC00
FFFFFF80
FFFFFFC0
FFFFFFF0
FFFFFFF8
FFFFFFFC
FFFFFFFC
FF0007FE
FF0003FE
FF0001FF
FF0000FF
FF0000FF
FF0000FF
FF0000FF
FF0000FF
FF0000FF
FF0001FF
FF0003FE
FF0007FE
FFFFFFFE
FFFFFFFC
FFFFFFF8
FFFFFFF8
FFFFFFE0
FFFFFFC0
FFFFFE00
ENDCHAR
STARTCHAR 0183
ENCODING 387
SWIDTH 612 0
DWIDTH 34 0
BBX 29 42 3 -1
BITMAP
FFFFF800
FFFFF800
FFFFF800
FFFFF800
FFFFF800
FFFFF800
FFFFF800
FF000000
FF000000
FF000000
FF07E000
FF1FFC00
FF7FFE00
FFFFFF00
FFFFFF80
FFFFFFC0
FFF9FFC0
FFE03FE0
FFC01FE0
FF801FF0
FF800FF0
FF000FF0
FF0007F0
FF0007F8
FF0007F8
FF0007F8
FF0007F8
FF0007F8
FF0007F8
FF0007F0
FF000FF0
FF800FF0
FF801FF0
FFC01FE0
FFE03FE0
FFFDFFC0
FFFFFFC0
FFFFFF80
FFFFFF00
FF7FFE00
FF3FFC00
0007E000
ENDCHAR
STARTCHAR 0184
ENCODING 388
SWIDTH 684 0
DWIDTH 38 0
BBX 36 40 -1 1
BITMAP
0018000000
0038000000
0078000000
00F8000000
03F8000000
07F8000000
0FF8000000
1FF8000000
7FF8000000
FFF8000000
FFF8000000
3FF8000000
1FF8000000
0FF8000000
07FFFFF000
07FFFFFC00
07FFFFFE00
07FFFFFF00
07FFFFFF80
07FFFFFFC0
07FFFFFFC0
07F8007FE0
07F8003FE0
07F8001FE0
07F8000FF0
07F8000FF0
07F8000FF0
07F8000FF0
07F8000FF0
07F8000FF0
07F8001FF0
07F8003FE0
07F800FFE0
07FFFFFFE0
07FFFFFFC0
07FFFFFFC0
07FFFFFF80
07FFFFFF00
07FFFFFC00
07FFFFE000
ENDCHAR
STARTCHAR 0185
ENCODING 389
SWIDTH 612 0
DWIDTH 34 0
BBX 34 42 -2 0
BITMAP
0008000000
0038000000
0078000000
01F8000000
03F8000000
0FF8000000
1FF8000000
7FF8000000
FFF8000000
7FF8000000
3FF83F0000
1FF8FFE000
0FFBFFF000
07FFFFF800
07FFFFFC00
07FFFFFE00
07FFCFFE00
07FF01FF00
07FE00FF00
07FC00FF80
07FC007F80
07F8007F80
07F8003F80
07F8003FC0
07F8003FC0
07F8003FC0
07F8003FC0
07F8003FC0
07F8003FC0
07F8003F80
07F8007F80
07FC007F80
07FC00FF80
07FE00FF00
07FF01FF00
07FFEFFE00
07FFFFFE00
07FFFFFC00
07FFFFF800
07FBFFF000
07F9FFE000
00003F0000
ENDCHAR
STARTCHAR 0186
ENCODING 390
SWIDTH 720 0
DWIDTH 40 0
BBX 35 42 3 0
BITMAP
003FFE0000
00FFFFC000
03FFFFE000
07FFFFF800
0FFFFFFC00
1FFFFFFE00
3FFFFFFE00
7FF007FF00
7FC001FF80
7FC000FF80
FF8000FF80
FF00007FC0
FF00003FC0
FF00003FC0
0000003FC0
0000003FE0
0000001FE0
0000001FE0
0000001FE0
0000001FE0
0000001FE0
0000001FE0
0000001FE0
0000001FE0
0000001FE0
0000001FC0
0000003FC0
FF00003FC0
FF00003FC0
FF00007FC0
FF80007F80
FF8000FF80
7FC001FF00
7FE003FF00
3FF80FFE00
3FFFFFFE00
1FFFFFFC00
0FFFFFF800
07FFFFF000
01FFFFE000
007FFF8000
000FFC0000
ENDCHAR
STARTCHAR 0187
ENCODING 391
SWIDTH 756 0
DWIDTH 42 0
BBX 38 43 3 -1
BITMAP
00004000FC
001FFF87FC
007FFFEFFC
01FFFFFFFC
03FFFFFFFC
07FFFFFFFC
0FFFFFFFF0
1FFFFFFFE0
1FFC01FFE0
3FF000FFE0
3FE0007FE0
3FE0003FE0
7FC0003FE0
7F80001FE0
7F80001FE0
7F80001FE0
FF00000000
FF00000000
FF00000000
FF00000000
FF00000000
FF00000000
FF00000000
FF00000000
FF00000000
FF00000000
FF00000000
FF00000000
FF80001FE0
7F80001FE0
7F80001FE0
7FC0001FE0
3FC0003FC0
3FE0007FC0
3FF0007FC0
1FF801FF80
0FFF0FFF80
07FFFFFF00
03FFFFFE00
01FFFFFC00
00FFFFF800
003FFFE000
0007FF0000
ENDCHAR
STARTCHAR 0188
ENCODING 392
SWIDTH 576 0
DWIDTH 32 0
BBX 31 33 2 -1
BITMAP
000001FE
003FC3FE
01FFFFFE
03FFFFFE
0FFFFFFE
0FFFFFFE
1FFFFFFA
3FF9FFE0
3FE03FE0
7FC03FE0
7F801FE0
7F801FE0
FF000000
FF000000
FF000000
FF000000
FF000000
FF000000
FF000000
FF000000
FF000000
FF000FE0
7F801FE0
7F801FE0
7FC03FC0
3FE07FC0
3FF9FFC0
1FFFFF80
1FFFFF00
0FFFFE00
07FFFC00
01FFF800
003FC000
ENDCHAR
STARTCHAR 0189
ENCODING 393
SWIDTH 720 0
DWIDTH 40 0
BBX 38 41 0 0
BITMAP
0FFFFFC000
0FFFFFF800
0FFFFFFE00
0FFFFFFF00
0FFFFFFF80
0FFFFFFFC0
0FFFFFFFC0
0FF001FFE0
0FF0003FE0
0FF0001FF0
0FF0000FF0
0FF0000FF0
0FF00007F8
0FF00007F8
0FF00007F8
0FF00003F8
0FF00003FC
FFFFF803FC
FFFFF803FC
FFFFF803FC
FFFFF803FC
FFFFF803FC
0FF00003FC
0FF00003FC
0FF00003F8
0FF00003F8
0FF00007F8
0FF00007F8
0FF00007F8
0FF0000FF0
0FF0000FF0
0FF0001FF0
0FF0003FE0
0FF001FFE0
0FFFFFFFC0
0FFFFFFF80
0FFFFFFF80
0FFFFFFF00
0FFFFFFC00
0FFFFFF800
0FFFFFC000
ENDCHAR
STARTCHAR 018A
ENCODING 394
SWIDTH 954 0
DWIDTH 53 0
BBX 49 41 2 0
BITMAP
00FFFFFFF80000
07FFFFFFFF0000
0FFFFFFFFFC000
1FFFFFFFFFE000
3FFFFFFFFFF000
7FFFFFFFFFF800
7FFFFFFFFFFC00
FFFFFF003FFC00
FFE0FF0007FE00
FF00FF0003FE00
FE00FF0001FF00
FE00FF0001FF00
FE00FF0000FF00
FE00FF0000FF00
FF80FF0000FF80
FFF0FF00007F80
7FF0FF00007F80
7FF0FF00007F80
3FF0FF00007F80
1FF0FF00007F80
0FF0FF00007F80
07F0FF00007F80
00F0FF00007F80
0000FF00007F80
0000FF00007F80
0000FF00007F00
0000FF0000FF00
0000FF0000FF00
0000FF0000FF00
0000FF0001FF00
0000FF0001FE00
0000FF0003FE00
0000FF0007FE00
0000FF001FFC00
0000FFFFFFFC00
0000FFFFFFF800
0000FFFFFFF000
0000FFFFFFE000
0000FFFFFFC000
0000FFFFFF0000
0000FFFFF80000
ENDCHAR
STARTCHAR 018B
ENCODING 395
SWIDTH 720 0
DWIDTH 40 0
BBX 32 41 5 0
BITMAP
0FFFFFFF
0FFFFFFF
0FFFFFFF
0FFFFFFF
0FFFFFFF
0FFFFFFF
0FFFFFFF
000000FF
000000FF
000000FF
000000FF
000000FF
000000FF
000000FF
000000FF
003FFFFF
01FFFFFF
03FFFFFF
0FFFFFFF
1FFFFFFF
3FFFFFFF
3FFFFFFF
7FE000FF
7FC000FF
FF8000FF
FF0000FF
FF0000FF
FF0000FF
FF0000FF
FF0000FF
FF0000FF
FF8000FF
FFC000FF
7FE000FF
7FFFFFFF
3FFFFFFF
3FFFFFFF
1FFFFFFF
07FFFFFF
03FFFFFF
007FFFFF
ENDCHAR
STARTCHAR 018C
ENCODING 396
SWIDTH 612 0
DWIDTH 34 0
BBX 29 42 3 -1
BITMAP
00FFFFF8
00FFFFF8
00FFFFF8
00FFFFF8
00FFFFF8
00FFFFF8
00FFFFF8
000007F8
000007F8
000007F8
007F07F8
01FFC7F8
03FFE7F8
07FFF7F8
0FFFFFF8
1FFFFFF8
3FF9FFF8
3FE03FF8
7FC01FF8
7F801FF8
7F800FF8
FF000FF8
FF0007F8
FF0007F8
FF0007F8
FF0007F8
FF0007F8
FF0007F8
FF0007F8
FF0007F8
FF000FF8
7F800FF8
7F801FF8
7FC01FF8
3FE03FF8
3FF9FFF8
1FFFFFF8
0FFFFFF8
07FFFFF8
03FFF7F8
01FFC7F8
007F0000
ENDCHAR
STARTCHAR 018D
ENCODING 397
SWIDTH 630 0
DWIDTH 35 0
BBX 30 40 1 -10
BITMAP
003FF000
01FFFE00
07FFFF80
0FFFFFC0
1FFFFFE0
3FFFFFF0
3FFE7FF0
7FE00FF8
7FC007F8
7F8007F8
FF0003FC
FF0003FC
FF0003FC
FF0003FC
FF0003FC
FF0003FC
FF0003FC
FF0003FC
FF0007FC
7F8007F8
7FC00FF8
7FE01FF8
3FF87FF0
3FFFFFF0
1FFFFFE0
0FFFFFC0
07FFFF00
03FFFE00
01FFF000
007FF000
003FFC00
000FFE00
0007FF80
0001FFC0
1FFFFFF0
1FFFFFF0
1FFFFFF0
1FFFFFF0
1FFFFFF0
1FFFFFF0
ENDCHAR
STARTCHAR 018E
ENCODING 398
SWIDTH 648 0
DWIDTH 36 0
BBX 30 41 4 0
BITMAP
7FFFFFFC
7FFFFFFC
7FFFFFFC
7FFFFFFC
7FFFFFFC
7FFFFFFC
7FFFFFFC
000003FC
000003FC
000003FC
000003FC
000003FC
000003FC
000003FC
000003FC
000003FC
1FFFFFFC
1FFFFFFC
1FFFFFFC
1FFFFFFC
1FFFFFFC
1FFFFFFC
1FFFFFFC
000003FC
000003FC
000003FC
000003FC
000003FC
000003FC
000003FC
000003FC
000003FC
000003FC
000003FC
FFFFFFFC
FFFFFFFC
FFFFFFFC
FFFFFFFC
FFFFFFFC
FFFFFFFC
FFFFFFFC
ENDCHAR
STARTCHAR 018F
ENCODING 399
SWIDTH 774 0
DWIDTH 43 0
BBX 39 42 2 0
BITMAP
0007FFC000
003FFFF800
00FFFFFC00
01FFFFFF00
03FFFFFF80
07FFFFFFC0
0FFFFFFFE0
1FFE00FFE0
1FF8003FF0
3FF0001FF8
3FE0000FF8
7FC0000FF8
00000007FC
00000007FC
00000003FC
00000003FE
00000003FE
FFFFFFFFFE
FFFFFFFFFE
FFFFFFFFFE
FFFFFFFFFE
FFFFFFFFFE
FFFFFFFFFE
FFFFFFFFFE
FF800003FE
FF800003FE
7F800003FC
7F800007FC
7FC00007FC
7FC00007F8
3FE0000FF8
3FF0001FF8
1FF8003FF0
1FFC007FE0
0FFF01FFE0
07FFFFFFC0
03FFFFFF80
01FFFFFF00
00FFFFFE00
003FFFF800
000FFFE000
0001FF0000
ENDCHAR
STARTCHAR 0190
ENCODING 400
SWIDTH 666 0
DWIDTH 37 0
BBX 33 42 2 0
BITMAP
003FFF0000
01FFFFE000
03FFFFF000
07FFFFFC00
0FFFFFFC00
0FFFFFFE00
1FF807FF00
1FE001FF00
1FE000FF00
3FC000FF80
3FC0007F80
3FC0007F80
3FC0000000
3FC0000000
3FE0000000
1FF0000000
1FFF000000
0FFFF80000
0FFFF80000
07FFF80000
0FFFF80000
1FFFF80000
3FFFF80000
7FF8000000
7FE0000000
FF80000000
FF80000000
FF00000000
FF00000000
FF00007F80
FF00007F80
FF00007F80
FF0000FF80
7F8001FF00
7FE003FF00
3FFC3FFE00
3FFFFFFE00
1FFFFFFC00
0FFFFFF800
03FFFFE000
00FFFF8000
001FFC0000
ENDCHAR
STARTCHAR 0191
ENCODING 401
SWIDTH 594 0
DWIDTH 33 0
BBX 31 53 1 -12
BITMAP
1FFFFFFE
1FFFFFFE
1FFFFFFE
1FFFFFFE
1FFFFFFE
1FFFFFFE
1FFFFFFE
1FE00000
1FE00000
1FE00000
1FE00000
1FE00000
1FE00000
1FE00000
1FE00000
1FE00000
1FFFFFF0
1FFFFFF0
1FFFFFF0
1FFFFFF0
1FFFFFF0
1FFFFFF0
1FFFFFF0
1FE00000
1FE00000
1FE00000
1FE00000
1FE00000
1FE00000
1FE00000
1FE00000
1FE00000
1FE00000
1FE00000
1FE00000
1FE00000
1FE00000
1FE00000
1FE00000
1FE00000
1FE00000
1FE00000
1FE00000
1FE00000
1FE00000
1FE00000
3FE00000
FFE00000
FFE00000
FFC00000
FFC00000
FF800000
FF000000
ENDCHAR
STARTCHAR 0192
ENCODING 402
SWIDTH 342 0
DWIDTH 19 0
BBX 17 53 1 -12
BITMAP
007F00
01FF00
03FF00
07FF00
07FF00
0FFF00
0FF800
0FF000
0FF000
0FF000
0FF000
FFFF80
FFFF80
FFFF80
FFFF80
FFFF80
0FF000
0FF000
0FF000
0FF000
0FF000
0FF000
0FF000
0FF000
0FF000
0FF000
0FF000
0FF000
0FF000
0FF000
0FF000
0FF000
0FF000
0FF000
0FF000
0FF000
0FF000
0FF000
0FF000
0FF000
0FF000
0FF000
0FF000
0FF000
0FF000
0FF000
1FF000
7FF000
7FF000
7FE000
7FE000
7FC000
7F8000
ENDCHAR
STARTCHAR 0193
ENCODING 403
SWIDTH 774 0
DWIDTH 43 0
BBX 40 43 2 -1
BITMAP
000000003F
0007FFC1FF
003FFFFBFF
00FFFFFFFF
01FFFFFFFF
03FFFFFFFF
07FFFFFFFC
0FFFFFFFF8
1FFFEFFFF8
1FFC007FF8
3FF8001FF8
3FE0000FF8
7FE0000FF8
7FC00007F8
7F800007F8
7F80000000
FF80000000
FF00000000
FF00000000
FF00000000
FF0007FFF8
FF0007FFF8
FF0007FFF8
FF0007FFF8
FF0007FFF8
FF0007FFF8
FF0007FFF8
7F000003F8
7F800003F8
7F800003F8
7FC00007F8
3FC0000FF8
3FE0000FF8
1FF0001FF8
1FFC007FF8
0FFF01FFF8
07FFFFFFF8
03FFFFFDF8
01FFFFFDF8
00FFFFF8F8
007FFFF0F8
001FFFC0F8
0003FE0000
ENDCHAR
STARTCHAR 0194
ENCODING 404
SWIDTH 684 0
DWIDTH 38 0
BBX 35 42 2 -1
BITMAP
FF80007FE0
7FC0007FC0
7FC000FFC0
3FE000FF80
3FE001FF80
1FF001FF00
1FF001FF00
0FF803FE00
0FF803FC00
07F807FC00
07FC07F800
03FC0FF800
01FE0FF000
01FE1FF000
00FF1FE000
00FF3FE000
007FBFC000
007FBFC000
003FFF8000
003FFF8000
001FFF0000
001FFF0000
000FFE0000
000FFE0000
0007FC0000
0007FC0000
0007FC0000
000FFE0000
000FFE0000
001FFF0000
001FFF8000
003FFF8000
003FFF8000
007FBFC000
007FBFC000
007FBFC000
007FFFC000
007FFFC000
003FFFC000
003FFF8000
001FFF0000
0003F80000
ENDCHAR
STARTCHAR 0195
ENCODING 405
SWIDTH 900 0
DWIDTH 50 0
BBX 45 42 4 -1
BITMAP
FF0000000000
FF0000000000
FF0000000000
FF0000000000
FF0000000000
FF0000000000
FF0000000000
FF0000000000
FF0000000000
FF0000000000
FF03F0000000
FF1FFC0007F8
FF3FFE0007F8
FF7FFF0007F8
FFFFFF8007F8
FFFFFF8007F8
FFF3FFC007F8
FFC07FC007F8
FF807FC007F8
FF003FC007F8
FF003FC007F8
FF003FC007F8
FF003FC007F8
FF003FC007F8
FF003FC007F8
FF003FC007F8
FF003FC007F8
FF003FC007F8
FF003FC007F8
FF003FC007F8
FF003FC007F8
FF003FC007F8
FF003FE00FF8
FF001FE00FF0
FF001FF01FF0
FF001FFE7FF0
FF001FFFFFE0
FF000FFFFFE0
FF0007FFFFC0
FF0003FFFF80
FF0001FFFE00
0000001FF000
ENDCHAR
STARTCHAR 0197
ENCODING 407
SWIDTH 396 0
DWIDTH 22 0
BBX 21 41 0 0
BITMAP
01FE00
01FE00
01FE00
01FE00
01FE00
01FE00
01FE00
01FE00
01FE00
01FE00
01FE00
01FE00
01FE00
01FE00
01FE00
01FE00
01FE00
FFFFF8
FFFFF8
FFFFF8
FFFFF8
FFFFF8
FFFFF8
FFFFF8
01FE00
01FE00
01FE00
01FE00
01FE00
01FE00
01FE00
01FE00
01FE00
01FE00
01FE00
01FE00
01FE00
01FE00
01FE00
01FE00
01FE00
ENDCHAR
STARTCHAR 0198
ENCODING 408
SWIDTH 774 0
DWIDTH 43 0
BBX 39 41 4 1
BITMAP
FF00007F80
FF0000FFE0
FF0003FFF0
FF0007FFF8
FF000FFFFC
FF001FFFFC
FF003FFFFE
FF003FFFFE
FF007FE1FE
FF00FFC0FE
FF01FF80FE
FF03FF00FE
FF07FE01FE
FF0FFC03FC
FF1FF803FC
FF3FF001F8
FF3FE000F8
FF7FC00070
FFFFC00020
FFFFC00000
FFFFE00000
FFFFF00000
FFFFF80000
FFFFFC0000
FFE7FC0000
FFC3FE0000
FF83FF0000
FF01FF8000
FF00FF8000
FF007FC000
FF007FE000
FF003FF000
FF001FF800
FF000FF800
FF000FFC00
FF0007FE00
FF0003FF00
FF0001FF80
FF0001FF80
FF0000FFC0
FF00007FE0
ENDCHAR
STARTCHAR 0199
ENCODING 409
SWIDTH 558 0
DWIDTH 31 0
BBX 27 41 3 0
BITMAP
1FE00000
3FE00000
7FE00000
FFE00000
FFE00000
FFE00000
FF800000
FF000000
FF000000
FF000000
FF007FC0
FF00FF80
FF00FF00
FF01FE00
FF03FE00
FF07FC00
FF0FF800
FF1FF000
FF1FE000
FF3FC000
FF7F8000
FFFF0000
FFFF8000
FFFF8000
FFFFC000
FFFFC000
FFFFE000
FFFFE000
FFDFF000
FF8FF800
FF07F800
FF07FC00
FF03FC00
FF03FE00
FF01FE00
FF01FF00
FF00FF80
FF00FF80
FF007FC0
FF007FC0
FF003FE0
ENDCHAR
STARTCHAR 019B
ENCODING 411
SWIDTH 630 0
DWIDTH 35 0
BBX 32 42 1 0
BITMAP
1FF00000
1FF80000
1FFC0300
1FFE0700
1FFE1F00
1FFF7F00
1FFFFE00
007FFC00
003FF000
003FE000
007FC000
00FFC000
03FFE000
07FFE000
1FFFE000
3FBFF000
3F7FF000
3C7FF800
387FF800
20FFF800
00FFFC00
00FFFC00
01FFFC00
01FFFE00
03FCFE00
03FCFE00
03F87F00
07F87F00
07F87F80
07F03F80
0FF03F80
0FF03FC0
1FE01FC0
1FE01FC0
1FE01FE4
3FC00FFE
3FC00FFE
3F8007FE
7F8007FE
7F8003FF
FF0003FE
000000F0
ENDCHAR
STARTCHAR 019C
ENCODING 412
SWIDTH 954 0
DWIDTH 53 0
BBX 46 42 3 -1
BITMAP
FF001FE003FC
FF001FE003FC
FF001FE003FC
FF001FE003FC
FF001FE003FC
FF001FE003FC
FF001FE003FC
FF001FE003FC
FF001FE003FC
FF001FE003FC
FF001FE003FC
FF001FE003FC
FF001FE003FC
FF001FE003FC
FF001FE003FC
FF001FE003FC
FF001FE003FC
FF001FE003FC
FF001FE003FC
FF001FE003FC
FF001FE003FC
FF001FE003FC
FF001FE003FC
FF001FE003FC
FF001FE003FC
FF001FE003FC
FF001FE003FC
FF001FE003FC
FF001FE003FC
FF001FE003FC
FF001FE003FC
FF003FE007FC
FF003FE007FC
FF807FF00FFC
FFC1FFF81FFC
FFFFFFFFFFFC
7FFFFFFFFFFC
7FFFFFFFFFFC
3FFFE7FFFBFC
1FFF83FFF3FC
0FFF01FFC3FC
03F8007E0000
ENDCHAR
STARTCHAR 019D
ENCODING 413
SWIDTH 720 0
DWIDTH 40 0
BBX 36 53 1 -12
BITMAP
1FE0000FF0
1FF0000FF0
1FF0000FF0
1FF8000FF0
1FFC000FF0
1FFC000FF0
1FFE000FF0
1FFF000FF0
1FFF000FF0
1FFF800FF0
1FFF800FF0
1FFFC00FF0
1FFFE00FF0
1FFFE00FF0
1FEFF00FF0
1FEFF00FF0
1FE7F80FF0
1FE3FC0FF0
1FE3FC0FF0
1FE1FE0FF0
1FE1FE0FF0
1FE0FF0FF0
1FE07F8FF0
1FE07F8FF0
1FE03FCFF0
1FE01FEFF0
1FE01FEFF0
1FE00FFFF0
1FE00FFFF0
1FE007FFF0
1FE003FFF0
1FE003FFF0
1FE001FFF0
1FE001FFF0
1FE000FFF0
1FE0007FF0
1FE0007FF0
1FE0003FF0
1FE0003FF0
1FE0001FF0
1FE0000FF0
1FE0000000
1FE0000000
1FE0000000
1FE0000000
1FE0000000
3FE0000000
FFE0000000
FFE0000000
FFC0000000
FFC0000000
FF80000000
FF00000000
ENDCHAR
STARTCHAR 019E
ENCODING 414
SWIDTH 594 0
DWIDTH 33 0
BBX 27 42 3 -12
BITMAP
FF0FF000
FF3FFE00
FF7FFF00
FFFFFF80
FFFFFF80
FFFFFFC0
FFF9FFC0
FFC07FC0
FF803FE0
FF001FE0
FF001FE0
FF001FE0
FF001FE0
FF001FE0
FF001FE0
FF001FE0
FF001FE0
FF001FE0
FF001FE0
FF001FE0
FF001FE0
FF001FE0
FF001FE0
FF001FE0
FF001FE0
FF001FE0
FF001FE0
FF001FE0
FF001FE0
FF001FE0
FF001FE0
00001FE0
00001FE0
00001FE0
00001FE0
00001FE0
00001FE0
00001FE0
00001FE0
00001FE0
00001FE0
00001FE0
ENDCHAR
STARTCHAR 019F
ENCODING 415
SWIDTH 774 0
DWIDTH 43 0
BBX 39 42 2 0
BITMAP
0007FFC000
003FFFF800
007FFFFC00
01FFFFFF00
03FFFFFF80
07FFFFFFC0
0FFFFFFFC0
0FFE00FFE0
1FF8003FF0
1FF0001FF0
3FE0000FF8
3FE0000FF8
7FC00007FC
7F800007FC
7F800003FC
FF800003FC
FF800003FE
FFFFFFFFFE
FFFFFFFFFE
FFFFFFFFFE
FFFFFFFFFE
FFFFFFFFFE
FFFFFFFFFE
FFFFFFFFFE
FF800003FE
FF800003FE
7F800003FC
7F800007FC
7FC00007FC
7FC00007F8
3FE0000FF8
3FF0001FF8
1FF8003FF0
1FFC007FF0
0FFF01FFE0
07FFFFFFC0
03FFFFFF80
01FFFFFF00
00FFFFFE00
007FFFFC00
001FFFF000
0001FF0000
ENDCHAR
STARTCHAR 01A0
ENCODING 416
SWIDTH 774 0
DWIDTH 43 0
BBX 42 44 2 -1
BITMAP
000000003FC0
000000003FC0
0007FFC03FC0
003FFFF83F80
00FFFFFC3F80
01FFFFFF3F00
03FFFFFFFE00
07FFFFFFFC00
0FFFFFFFF000
1FFE00FFF000
1FF8003FF000
3FF0001FF800
3FE0000FF800
7FC00007F800
7FC00007FC00
7F800003FC00
7F800003FC00
FF000003FC00
FF000001FC00
FF000001FE00
FF000001FE00
FF000001FE00
FF000001FE00
FF000001FE00
FF000001FE00
FF000001FE00
FF000001FE00
FF000003FC00
7F800003FC00
7F800003FC00
7F800007FC00
7FC00007F800
3FC0000FF800
3FE0001FF800
1FF0003FF000
1FFC007FF000
0FFF01FFE000
07FFFFFFC000
03FFFFFF8000
01FFFFFF0000
00FFFFFE0000
003FFFFC0000
000FFFF00000
0001FF000000
ENDCHAR
STARTCHAR 01A1
ENCODING 417
SWIDTH 612 0
DWIDTH 34 0
BBX 34 34 2 -1
BITMAP
0000003FC0
0000003FC0
001FE03FC0
00FFFC3FC0
03FFFF3F80
07FFFFBF80
0FFFFFFF00
1FFFFFFE00
3FFCFFF800
3FE03FF000
7FC00FF000
7F800FF800
7F8007F800
FF0007F800
FF0003F800
FF0003FC00
FF0003FC00
FF0003FC00
FF0003FC00
FF0003FC00
FF0003FC00
FF0003FC00
FF0007F800
7F8007F800
7F800FF800
7FC00FF000
3FE01FF000
3FFCFFE000
1FFFFFE000
0FFFFFC000
07FFFF8000
03FFFF0000
00FFFC0000
001FE00000
ENDCHAR
STARTCHAR 01A2
ENCODING 418
SWIDTH 1116 0
DWIDTH 62 0
BBX 56 54 2 -11
BITMAP
0000000000FF00
0000000007FFC0
000FFFE01FFFF0
003FFFF83FFFF8
00FFFFFE7FFFFC
01FFFFFFFFFFFC
03FFFFFFFFFFFE
07FFFFFFFF87FE
0FFFFFFFFE01FF
1FFE00FFFE01FF
1FF8003FFC00FF
3FF0001FFC00FF
3FE0000FFC00FF
7FC00007FC00FF
7FC00007FC00FF
7F800003FC00FF
7F800003FC00FF
FF000003FC00FF
FF000001FC00FF
FF000001FE00FF
FF000001FE00FF
FF000001FE00FF
FF000001FE00FF
FF000001FE00FF
FF000001FE00FF
FF000001FE00FF
FF000001FE00FF
FF000003FC00FF
7F800003FC00FF
7F800003FC00FF
7F800007FC00FF
7FC00007F800FF
3FC0000FF800FF
3FE0001FF000FF
1FF0003FF000FF
1FFC007FE000FF
0FFF01FFE000FF
07FFFFFFC000FF
03FFFFFF8000FF
01FFFFFF0000FF
00FFFFFE0000FF
007FFFF80000FF
001FFFE00000FF
0001FF000000FF
000000000000FF
000000000000FF
000000000000FF
000000000000FF
000000000000FF
000000000000FF
000000000000FF
000000000000FF
000000000000FF
000000000000FF
ENDCHAR
STARTCHAR 01A4
ENCODING 420
SWIDTH 900 0
DWIDTH 50 0
BBX 46 41 2 0
BITMAP
00FFFFFFF800
07FFFFFFFF00
0FFFFFFFFFC0
1FFFFFFFFFE0
3FFFFFFFFFF0
7FFFFFFFFFF0
7FFFFFFFFFF8
FFFFFF001FF8
FFE0FF0007FC
FF00FF0007FC
FE00FF0003FC
FE00FF0003FC
FE00FF0003FC
FE00FF0003FC
FF80FF0003FC
FFF0FF0003FC
7FF0FF0003FC
7FF0FF0007F8
3FF0FF001FF8
1FF0FFFFFFF8
0FF0FFFFFFF0
07F0FFFFFFF0
00F0FFFFFFE0
0000FFFFFFC0
0000FFFFFF00
0000FFFFFC00
0000FF000000
0000FF000000
0000FF000000
0000FF000000
0000FF000000
0000FF000000
0000FF000000
0000FF000000
0000FF000000
0000FF000000
0000FF000000
0000FF000000
0000FF000000
0000FF000000
0000FF000000
ENDCHAR
STARTCHAR 01A5
ENCODING 421
SWIDTH 612 0
DWIDTH 34 0
BBX 29 51 3 -12
BITMAP
0FE00000
3FE00000
7FE00000
7FE00000
FFE00000
FFE00000
FF800000
FF000000
FF07F000
FF1FFC00
FF7FFF00
FF7FFF80
FFFFFF80
FFFFFFC0
FFF9FFE0
FFE03FE0
FFC01FF0
FF801FF0
FF800FF0
FF000FF8
FF0007F8
FF0007F8
FF0007F8
FF0007F8
FF0007F8
FF0007F8
FF0007F8
FF0007F8
FF000FF0
FF800FF0
FF801FF0
FFC01FE0
FFE03FE0
FFFDFFE0
FFFFFFC0
FFFFFF80
FF7FFF00
FF7FFE00
FF1FFC00
FF07F000
FF000000
FF000000
FF000000
FF000000
FF000000
FF000000
FF000000
FF000000
FF000000
FF000000
FF000000
ENDCHAR
STARTCHAR 01A6
ENCODING 422
SWIDTH 702 0
DWIDTH 39 0
BBX 30 52 4 -12
BITMAP
FF000000
FF000000
FF000000
FF000000
FF000000
FF000000
FF000000
FF000000
FF000000
FF000000
FF000000
FFFFFC00
FFFFFE00
FFFFFF80
FFFFFF80
FFFFFFC0
FFFFFFC0
FF007FE0
FF001FE0
FF001FE0
FF001FE0
FF001FE0
FF001FE0
FF003FC0
FFFFFFC0
FFFFFFC0
FFFFFF80
FFFFFF00
FFFFFFC0
FFFFFFC0
FF03FFE0
FF007FE0
FF001FF0
FF000FF0
FF000FF0
FF000FF0
FF000FF0
FF000FF0
FF000FF0
FF000FF0
FF000FF0
00000FF0
00000FF0
00000FF0
00000FF0
00000FF0
00000FF0
00000FF0
00000FF0
00000FF8
000007FC
000007FC
ENDCHAR
STARTCHAR 01A7
ENCODING 423
SWIDTH 666 0
DWIDTH 37 0
BBX 33 42 2 0
BITMAP
003FFF0000
01FFFFE000
03FFFFF000
0FFFFFFC00
0FFFFFFC00
1FFFFFFE00
3FF803FF00
3FE001FF00
3FC000FF00
7F80007F80
7F80007F80
7F80007F80
0000007F80
000000FF80
000001FF80
00000FFF00
0001FFFF00
003FFFFE00
01FFFFFE00
07FFFFFC00
1FFFFFF000
3FFFFFC000
7FFFFE0000
7FFFC00000
7FF8000000
FFC0000000
FF80000000
FF00000000
FF00000000
FF00007F80
FF00007F80
FF00007F80
FF0000FF80
7F8001FF00
7FE003FF00
3FFC3FFE00
3FFFFFFE00
1FFFFFFC00
0FFFFFF800
03FFFFE000
00FFFF8000
001FFC0000
ENDCHAR
STARTCHAR 01A8
ENCODING 424
SWIDTH 558 0
DWIDTH 31 0
BBX 27 32 2 -1
BITMAP
007FC000
03FFF800
07FFFC00
0FFFFE00
1FFFFF00
3FFFFF80
3FF9FF80
7FC07FC0
7F803FC0
7F803FC0
00003FC0
0000FFC0
000FFFC0
007FFF80
07FFFF80
1FFFFF00
3FFFFC00
7FFFE000
7FFF0000
FFF80000
FFC00000
FF000000
FF001FE0
FF001FE0
FF803FE0
7FF9FFE0
7FFFFFC0
3FFFFF80
1FFFFF80
0FFFFE00
07FFFC00
00FFC000
ENDCHAR
STARTCHAR 01A9
ENCODING 425
SWIDTH 684 0
DWIDTH 38 0
BBX 34 41 1 0
BITMAP
3FFFFFFF80
3FFFFFFF80
3FFFFFFF80
3FFFFFFF80
3FFFFFFF80
3FFFFFFF80
3FFFFFFF80
1FF8000000
0FFC000000
07FE000000
03FF000000
03FF000000
01FF800000
00FFC00000
007FE00000
003FF00000
001FF80000
001FF80000
000FFC0000
000FFC0000
000FFC0000
001FF80000
003FF00000
007FE00000
00FFC00000
01FF800000
01FF800000
03FF000000
07FE000000
0FFC000000
1FF8000000
1FF8000000
3FF0000000
7FE0000000
FFFFFFFFC0
FFFFFFFFC0
FFFFFFFFC0
FFFFFFFFC0
FFFFFFFFC0
FFFFFFFFC0
FFFFFFFFC0
ENDCHAR
STARTCHAR 01AB
ENCODING 427
SWIDTH 342 0
DWIDTH 19 0
BBX 16 50 1 -11
BITMAP
0FF0
0FF0
0FF0
0FF0
0FF0
0FF0
0FF0
0FF0
FFFF
FFFF
FFFF
FFFF
FFFF
0FF0
0FF0
0FF0
0FF0
0FF0
0FF0
0FF0
0FF0
0FF0
0FF0
0FF0
0FF0
0FF0
0FF0
0FF0
0FF0
0FF0
0FF0
0FF0
0FF0
0FFF
0FFF
07FF
07FF
03FF
00FF
00FF
00FF
00FF
00FF
01FF
07FF
07FF
07FF
07FE
07FC
07F8
ENDCHAR
STARTCHAR 01AC
ENCODING 428
SWIDTH 738 0
DWIDTH 41 0
BBX 38 41 2 0
BITMAP
00FFFFFFFC
07FFFFFFFC
0FFFFFFFFC
1FFFFFFFFC
3FFFFFFFFC
7FFFFFFFFC
7FFFFFFFFC
FF803FC000
FF003FC000
FE003FC000
FE003FC000
FF003FC000
FF803FC000
7FF83FC000
7FF83FC000
3FF83FC000
1FF83FC000
0FF83FC000
07F83FC000
00F83FC000
00003FC000
00003FC000
00003FC000
00003FC000
00003FC000
00003FC000
00003FC000
00003FC000
00003FC000
00003FC000
00003FC000
00003FC000
00003FC000
00003FC000
00003FC000
00003FC000
00003FC000
00003FC000
00003FC000
00003FC000
00003FC000
ENDCHAR
STARTCHAR 01AD
ENCODING 429
SWIDTH 342 0
DWIDTH 19 0
BBX 16 42 1 -1
BITMAP
01FE
03FE
07FE
0FFE
0FFE
0FFE
0FF8
0FF0
0FF0
0FF0
0FF0
FFFF
FFFF
FFFF
FFFF
FFFF
0FF0
0FF0
0FF0
0FF0
0FF0
0FF0
0FF0
0FF0
0FF0
0FF0
0FF0
0FF0
0FF0
0FF0
0FF0
0FF0
0FF0
0FF0
0FF0
0FFC
0FFF
0FFF
07FF
07FF
03FF
00FE
ENDCHAR
STARTCHAR 01AE
ENCODING 430
SWIDTH 612 0
DWIDTH 34 0
BBX 32 53 1 -12
BITMAP
FFFFFFFF
FFFFFFFF
FFFFFFFF
FFFFFFFF
FFFFFFFF
FFFFFFFF
FFFFFFFF
000FF000
000FF000
000FF000
000FF000
000FF000
000FF000
000FF000
000FF000
000FF000
000FF000
000FF000
000FF000
000FF000
000FF000
000FF000
000FF000
000FF000
000FF000
000FF000
000FF000
000FF000
000FF000
000FF000
000FF000
000FF000
000FF000
000FF000
000FF000
000FF000
000FF000
000FF000
000FF000
000FF000
000FF000
000FF000
000FF000
000FF000
000FF000
000FF000
000FFA00
000FFE00
000FFE00
000FFE00
0007FE00
0003FE00
0001FE00
ENDCHAR
STARTCHAR 01AF
ENCODING 431
SWIDTH 720 0
DWIDTH 40 0
BBX 39 52 4 -1
BITMAP
00000001FE
00000001FE
00000001FE
00000001FC
00000001FC
00000001FC
00000003F8
00000003F0
00000007E0
0000001F80
FF0000FF00
FF0000FF00
FF0000FF00
FF0000FF00
FF0000FF00
FF0000FF00
FF0000FF00
FF0000FF00
FF0000FF00
FF0000FF00
FF0000FF00
FF0000FF00
FF0000FF00
FF0000FF00
FF0000FF00
FF0000FF00
FF0000FF00
FF0000FF00
FF0000FF00
FF0000FF00
FF0000FF00
FF0000FF00
FF0000FF00
FF0000FF00
FF0000FF00
FF0000FF00
FF0000FF00
FF0000FF00
FF0000FF00
FF0000FF00
FF0000FF00
FF0001FE00
7F8001FE00
7FC003FE00
7FF00FFC00
3FFFFFFC00
1FFFFFF800
1FFFFFF000
07FFFFE000
03FFFFC000
00FFFF0000
001FF80000
ENDCHAR
STARTCHAR 01B0
ENCODING 432
SWIDTH 612 0
DWIDTH 34 0
BBX 33 41 3 0
BITMAP
0000007F80
0000007F80
0000007F80
0000007F00
0000007F00
0000007E00
000000FE00
000000F800
000003F000
FF001FE000
FF001FE000
FF001FE000
FF001FE000
FF001FE000
FF001FE000
FF001FE000
FF001FE000
FF001FE000
FF001FE000
FF001FE000
FF001FE000
FF001FE000
FF001FE000
FF001FE000
FF001FE000
FF001FE000
FF001FE000
FF001FE000
FF001FE000
FF001FE000
FF001FE000
FF003FE000
FF003FE000
FF807FE000
7FF3FFE000
7FFFFFE000
7FFFFFE000
3FFFDFE000
1FFF9FE000
0FFF1FE000
03FC000000
ENDCHAR
STARTCHAR 01B1
ENCODING 433
SWIDTH 792 0
DWIDTH 44 0
BBX 40 42 1 -1
BITMAP
FFFFC3FFFF
FFFFC3FFFF
FFFFC3FFFF
FFFFC3FFFF
FFFFC3FFFF
FFFFC3FFFF
03FF81FF80
07FE007FC0
0FFC003FE0
0FF8001FF0
1FF0000FF8
3FE00007F8
3FC00003FC
7F800003FC
7F800001FE
7F800001FE
FF000001FE
FF000000FE
FF000000FF
FF000000FF
FF000000FF
FF000000FF
FF000000FF
FF000000FF
FF000000FF
FF000000FE
7F800001FE
7F800001FE
7F800001FE
7FC00003FC
3FE00007FC
3FE0000FF8
1FF0001FF8
1FFC003FF0
0FFF00FFF0
07FFFFFFE0
03FFFFFFC0
01FFFFFF80
00FFFFFF00
003FFFFC00
000FFFF000
0001FF8000
ENDCHAR
STARTCHAR 01B3
ENCODING 435
SWIDTH 648 0
DWIDTH 36 0
BBX 43 41 2 0
BITMAP
FF80000FC000
FF80003FF800
7FC0007FFC00
7FC000FFFE00
3FE001FFFF00
3FE003FFFF80
1FF003FFFF80
1FF007FFFFC0
0FF007FC3FC0
0FF80FF81FE0
07F80FF81FE0
07FC0FF01FE0
03FC1FF01FE0
01FE1FE03FE0
01FE3FE03FC0
00FF3FC00FC0
00FF3FC003C0
007F7F800080
007FFF800000
003FFF000000
003FFF000000
001FFE000000
001FFE000000
000FFC000000
000FFC000000
0007F8000000
0007F8000000
0007F8000000
0007F8000000
0007F8000000
0007F8000000
0007F8000000
0007F8000000
0007F8000000
0007F8000000
0007F8000000
0007F8000000
0007F8000000
0007F8000000
0007F8000000
0007F8000000
ENDCHAR
STARTCHAR 01B4
ENCODING 436
SWIDTH 612 0
DWIDTH 34 0
BBX 31 42 1 -11
BITMAP
FF0001F0
FF0003FE
7F8007FE
7F8007FE
7F800FFE
3FC00FFE
3FC01FFC
1FC01FE4
1FE01FC0
1FE03FC0
0FF03F80
0FF03F80
07F07F80
07F87F00
07F87F00
03F8FF00
03FCFE00
03FDFE00
01FDFC00
01FFFC00
00FFFC00
00FFF800
00FFF800
007FF800
007FF000
007FF000
003FE000
003FE000
001FE000
001FC000
001FC000
003FC000
003F8000
007F8000
207F0000
3FFF0000
1FFF0000
1FFE0000
1FFC0000
1FF80000
1FF00000
07C00000
ENDCHAR
STARTCHAR 01B5
ENCODING 437
SWIDTH 612 0
DWIDTH 34 0
BBX 30 41 2 0
BITMAP
FFFFFFFC
FFFFFFFC
FFFFFFFC
FFFFFFFC
FFFFFFFC
FFFFFFFC
FFFFFFFC
00000FFC
00001FF8
00003FF0
00007FE0
00007FC0
0000FFC0
0001FF80
0003FF00
0007FE00
0007FC00
000FFC00
1FFFFFE0
1FFFFFE0
1FFFFFE0
1FFFFFE0
00FFC000
00FF8000
01FF0000
03FF0000
07FE0000
07FC0000
0FFC0000
1FF80000
1FF00000
3FE00000
7FE00000
FFC00000
FFFFFFFC
FFFFFFFC
FFFFFFFC
FFFFFFFC
FFFFFFFC
FFFFFFFC
FFFFFFFC
ENDCHAR
STARTCHAR 01B6
ENCODING 438
SWIDTH 504 0
DWIDTH 28 0
BBX 25 30 1 1
BITMAP
7FFFFF00
7FFFFF00
7FFFFF00
7FFFFF00
7FFFFF00
7FFFFF00
0003FF00
0007FE00
000FFC00
000FF800
001FF000
003FF000
1FFFFC00
1FFFFC00
1FFFFC00
1FFFFC00
03FE0000
07FE0000
0FFC0000
1FF80000
3FF00000
3FE00000
7FC00000
FFC00000
FFFFFF80
FFFFFF80
FFFFFF80
FFFFFF80
FFFFFF80
FFFFFF80
ENDCHAR
STARTCHAR 01B7
ENCODING 439
SWIDTH 558 0
DWIDTH 31 0
BBX 27 42 2 -1
BITMAP
3FFFFF00
3FFFFF00
3FFFFF00
3FFFFF00
3FFFFF00
3FFFFF00
3FFFFF00
0000FF00
0001FE00
0001FE00
0003FC00
0003FC00
0007F800
0007F800
000FF000
001FF000
001FE000
003FE000
003FC000
003FF000
003FFC00
003FFE00
003FFF00
0003FF80
00007FC0
00003FC0
00003FE0
00001FE0
00001FE0
FF001FE0
FF001FE0
FF001FE0
FF001FE0
7F803FC0
7F807FC0
7FF1FFC0
3FFFFF80
1FFFFF00
1FFFFE00
07FFFC00
03FFF000
007FC000
ENDCHAR
STARTCHAR 01B8
ENCODING 440
SWIDTH 558 0
DWIDTH 31 0
BBX 27 42 2 -1
BITMAP
1FFFFF80
1FFFFF80
1FFFFF80
1FFFFF80
1FFFFF80
1FFFFF80
1FFFFF80
1FE00000
0FF00000
0FF00000
07F80000
07F80000
03FC0000
03FC0000
01FE0000
01FF0000
00FF0000
00FF8000
007F8000
01FF8000
07FF8000
0FFF8000
1FFF8000
3FF80000
7FC00000
7F800000
FF000000
FF000000
FF000000
FF001FE0
FF001FE0
FF001FE0
FF001FE0
7F803FC0
7FC07FC0
7FFBFFC0
3FFFFF80
1FFFFF00
0FFFFE00
07FFFC00
03FFF800
007FC000
ENDCHAR
STARTCHAR 01BE
ENCODING 446
SWIDTH 612 0
DWIDTH 34 0
BBX 27 42 4 -1
BITMAP
003F8000
003F8000
003F8000
003F8000
003F8000
07FFFC00
07FFFC00
07FFFC00
07FFFC00
07FFFC00
003F8000
003F8000
003F8000
003F8000
003F8000
001FC000
001FE000
001FF000
000FF800
000FFC00
0007FF00
0003FF00
0001FF80
00007FC0
00003FC0
00003FE0
00001FE0
FF001FE0
FF001FE0
FF001FE0
FF001FE0
FF001FE0
7F803FE0
7F803FC0
7FC07FC0
3FF9FFC0
3FFFFF80
1FFFFF00
0FFFFE00
07FFFC00
03FFF800
007FC000
ENDCHAR
STARTCHAR 01C4
ENCODING 452
SWIDTH 1332 0
DWIDTH 74 0
BBX 68 53 4 0
BITMAP
000000000007803C00
000000000007C07800
000000000003C0F000
000000000001E1F000
000000000001F3E000
000000000000FBC000
000000000000FFC000
0000000000007F8000
0000000000003F0000
000000000000000000
000000000000000000
000000000000000000
FFFFF80003FFFFFFF0
FFFFFF0003FFFFFFF0
FFFFFFC003FFFFFFF0
FFFFFFE003FFFFFFF0
FFFFFFF003FFFFFFF0
FFFFFFF803FFFFFFF0
FFFFFFFC03FFFFFFF0
FF003FFE0000003FF0
FF0007FE0000007FE0
FF0003FE000000FFC0
FF0001FF000000FF80
FF0000FF000001FF80
FF0000FF000003FF00
FF0000FF800007FE00
FF00007F800007FC00
FF00007F80000FFC00
FF00007F80001FF800
FF00007F80003FF000
FF00007F80003FE000
FF00007F80007FE000
FF00007F8000FFC000
FF00007F8001FF8000
FF00007F8001FF0000
FF00007F8003FF0000
FF00007F8007FE0000
FF00007F800FFC0000
FF00007F800FF80000
FF0000FF001FF80000
FF0000FF003FF00000
FF0001FF007FE00000
FF0001FF007FC00000
FF0003FE00FFC00000
FF0007FE01FF800000
FF001FFC03FF000000
FFFFFFFC03FFFFFFF0
FFFFFFF803FFFFFFF0
FFFFFFF003FFFFFFF0
FFFFFFE003FFFFFFF0
FFFFFFC003FFFFFFF0
FFFFFF0003FFFFFFF0
FFFFF80003FFFFFFF0
ENDCHAR
STARTCHAR 01C5
ENCODING 453
SWIDTH 1224 0
DWIDTH 68 0
BBX 62 43 4 0
BITMAP
00000000007803C0
00000000003C07C0
FFFFF800003E0F80
FFFFFF80001F1F00
FFFFFFC0000F9E00
FFFFFFF00007FE00
FFFFFFF80007FC00
FFFFFFF80003F800
FF00FFFC00000000
FF000FFE00000000
FF0007FE00000000
FF0003FF00000000
FF0001FF00000000
FF0000FF03FFFFF8
FF0000FF03FFFFF8
FF0000FF83FFFFF8
FF00007F83FFFFF8
FF00007F83FFFFF8
FF00007F83FFFFF8
FF00007F80001FF8
FF00007F80003FF0
FF00007F80003FE0
FF00007F80007FC0
FF00007F8000FF80
FF00007F8001FF00
FF00007F8003FF00
FF00007F8007FE00
FF00007F8007FC00
FF00007F800FF800
FF0000FF001FF000
FF0000FF003FF000
FF0001FF007FE000
FF0001FF00FFC000
FF0003FE00FF8000
FF0007FE01FF0000
FF001FFC03FE0000
FFFFFFFC07FE0000
FFFFFFF807FFFFFC
FFFFFFF007FFFFFC
FFFFFFE007FFFFFC
FFFFFFC007FFFFFC
FFFFFF0007FFFFFC
FFFFF80007FFFFFC
ENDCHAR
STARTCHAR 01C6
ENCODING 454
SWIDTH 1116 0
DWIDTH 62 0
BBX 58 44 2 -1
BITMAP
0000000003C01E00
0000000001E03E00
000007F801F07C00
000007F800F87800
000007F80078F800
000007F8007DF000
000007F8003FE000
000007F8001FC000
000007F8001FC000
000007F800000000
000007F800000000
000007F800000000
003F07F800000000
01FFC7F81FFFFFC0
03FFE7F81FFFFFC0
07FFF7F81FFFFFC0
0FFFFFF81FFFFFC0
1FFFFFF81FFFFFC0
3FFDFFF81FFFFFC0
3FE03FF80000FFC0
7FC01FF80001FF80
7F801FF80003FF00
7F800FF80003FE00
FF800FF80007FC00
FF0007F8000FF800
FF0007F8001FF800
FF0007F8003FF000
FF0007F8007FE000
FF0007F800FFC000
FF0007F801FF8000
FF0007F803FF8000
FF0007F803FF0000
FF000FF807FE0000
7F800FF80FFC0000
7F801FF81FF80000
7FC01FF83FF00000
3FE03FF87FF00000
3FFDFFF87FFFFFC0
1FFFFFF87FFFFFC0
0FFFFFF87FFFFFC0
0FFFFFF87FFFFFC0
03FFF7F87FFFFFC0
01FFE7F87FFFFFC0
007F800000000000
ENDCHAR
STARTCHAR 01C7
ENCODING 455
SWIDTH 1152 0
DWIDTH 64 0
BBX 56 42 4 -1
BITMAP
FF0000000000FF
FF0000000000FF
FF0000000000FF
FF0000000000FF
FF0000000000FF
FF0000000000FF
FF0000000000FF
FF0000000000FF
FF0000000000FF
FF0000000000FF
FF0000000000FF
FF0000000000FF
FF0000000000FF
FF0000000000FF
FF0000000000FF
FF0000000000FF
FF0000000000FF
FF0000000000FF
FF0000000000FF
FF0000000000FF
FF0000000000FF
FF0000000000FF
FF0000000000FF
FF0000000000FF
FF0000000000FF
FF0000000000FF
FF000001FE00FF
FF000001FE00FF
FF000001FE00FF
FF000001FE00FF
FF000001FE00FF
FF000001FE00FF
FF000001FE00FF
FF000001FF01FF
FFFFFFE0FF83FE
FFFFFFE0FFFFFE
FFFFFFE0FFFFFE
FFFFFFE07FFFFC
FFFFFFE03FFFF8
FFFFFFE01FFFF0
FFFFFFE007FFC0
0000000001FF00
ENDCHAR
STARTCHAR 01C8
ENCODING 456
SWIDTH 882 0
DWIDTH 49 0
BBX 41 53 4 -12
BITMAP
FF0000007F80
FF0000007F80
FF0000007F80
FF0000007F80
FF0000007F80
FF0000007F80
FF0000007F80
FF0000000000
FF0000000000
FF0000000000
FF0000007F80
FF0000007F80
FF0000007F80
FF0000007F80
FF0000007F80
FF0000007F80
FF0000007F80
FF0000007F80
FF0000007F80
FF0000007F80
FF0000007F80
FF0000007F80
FF0000007F80
FF0000007F80
FF0000007F80
FF0000007F80
FF0000007F80
FF0000007F80
FF0000007F80
FF0000007F80
FF0000007F80
FF0000007F80
FF0000007F80
FF0000007F80
FFFFFFE07F80
FFFFFFE07F80
FFFFFFE07F80
FFFFFFE07F80
FFFFFFE07F80
FFFFFFE07F80
FFFFFFE07F80
000000007F80
000000007F80
000000007F80
000000007F80
000000007F80
00000000FF80
00000003FF80
00000003FF80
00000003FF80
00000003FF00
00000003FE00
00000003FC00
ENDCHAR
STARTCHAR 01C9
ENCODING 457
SWIDTH 558 0
DWIDTH 31 0
BBX 23 53 4 -12
BITMAP
FF01FE
FF01FE
FF01FE
FF01FE
FF01FE
FF01FE
FF01FE
FF0000
FF0000
FF0000
FF01FE
FF01FE
FF01FE
FF01FE
FF01FE
FF01FE
FF01FE
FF01FE
FF01FE
FF01FE
FF01FE
FF01FE
FF01FE
FF01FE
FF01FE
FF01FE
FF01FE
FF01FE
FF01FE
FF01FE
FF01FE
FF01FE
FF01FE
FF01FE
FF01FE
FF01FE
FF01FE
FF01FE
FF01FE
FF01FE
FF01FE
0001FE
0001FE
0001FE
0001FE
0001FE
0003FE
000FFE
000FFE
000FFE
000FFC
000FF8
000FF0
ENDCHAR
STARTCHAR 01CA
ENCODING 458
SWIDTH 1278 0
DWIDTH 71 0
BBX 63 42 4 -1
BITMAP
FF00007F800001FE
FF80007F800001FE
FFC0007F800001FE
FFC0007F800001FE
FFE0007F800001FE
FFE0007F800001FE
FFF0007F800001FE
FFF8007F800001FE
FFF8007F800001FE
FFFC007F800001FE
FFFC007F800001FE
FFFE007F800001FE
FFFF007F800001FE
FFFF007F800001FE
FF7F807F800001FE
FF3FC07F800001FE
FF3FC07F800001FE
FF1FE07F800001FE
FF1FE07F800001FE
FF0FF07F800001FE
FF07F87F800001FE
FF07F87F800001FE
FF03FC7F800001FE
FF03FC7F800001FE
FF01FE7F800001FE
FF00FF7F800001FE
FF00FF7F83FC01FE
FF007FFF83FC01FE
FF007FFF83FC01FE
FF003FFF83FC01FE
FF001FFF83FC01FE
FF001FFF83FC01FE
FF000FFF83FC01FE
FF000FFF83FE03FE
FF0007FF81FF07FC
FF0003FF81FFFFFC
FF0003FF81FFFFFC
FF0001FF80FFFFF8
FF0001FF807FFFF0
FF0000FF803FFFE0
FF00007F800FFF80
000000000003FE00
ENDCHAR
STARTCHAR 01CB
ENCODING 459
SWIDTH 1008 0
DWIDTH 56 0
BBX 48 53 4 -12
BITMAP
FF00007F80FF
FF80007F80FF
FFC0007F80FF
FFC0007F80FF
FFE0007F80FF
FFE0007F80FF
FFF0007F80FF
FFF8007F8000
FFF8007F8000
FFFC007F8000
FFFC007F80FF
FFFE007F80FF
FFFF007F80FF
FF7F007F80FF
FF7F807F80FF
FF3FC07F80FF
FF3FC07F80FF
FF1FE07F80FF
FF0FE07F80FF
FF0FF07F80FF
FF07F87F80FF
FF07F87F80FF
FF03FC7F80FF
FF01FC7F80FF
FF01FE7F80FF
FF00FF7F80FF
FF00FF7F80FF
FF007FFF80FF
FF003FFF80FF
FF003FFF80FF
FF001FFF80FF
FF001FFF80FF
FF000FFF80FF
FF0007FF80FF
FF0007FF80FF
FF0003FF80FF
FF0003FF80FF
FF0001FF80FF
FF0000FF80FF
FF0000FF80FF
FF00007F80FF
0000000000FF
0000000000FF
0000000000FF
0000000000FF
0000000000FF
0000000001FF
0000000007FF
0000000007FF
0000000007FF
0000000007FE
0000000007FC
0000000007F8
ENDCHAR
STARTCHAR 01CC
ENCODING 460
SWIDTH 882 0
DWIDTH 49 0
BBX 42 53 3 -12
BITMAP
000000003FC0
000000003FC0
000000003FC0
000000003FC0
000000003FC0
000000003FC0
000000003FC0
000000000000
000000000000
000000000000
FF0FF0003FC0
FF3FFE003FC0
FF7FFF003FC0
FFFFFF803FC0
FFFFFF803FC0
FFFFFFC03FC0
FFF9FFC03FC0
FFC07FC03FC0
FF803FE03FC0
FF001FE03FC0
FF001FE03FC0
FF001FE03FC0
FF001FE03FC0
FF001FE03FC0
FF001FE03FC0
FF001FE03FC0
FF001FE03FC0
FF001FE03FC0
FF001FE03FC0
FF001FE03FC0
FF001FE03FC0
FF001FE03FC0
FF001FE03FC0
FF001FE03FC0
FF001FE03FC0
FF001FE03FC0
FF001FE03FC0
FF001FE03FC0
FF001FE03FC0
FF001FE03FC0
FF001FE03FC0
000000003FC0
000000003FC0
000000003FC0
000000003FC0
000000003FC0
000000007FC0
00000001FFC0
00000001FFC0
00000001FF80
00000001FF80
00000001FF00
00000001FE00
ENDCHAR
STARTCHAR 01CD
ENCODING 461
SWIDTH 720 0
DWIDTH 40 0
BBX 37 53 2 1
BITMAP
003E03E000
001E07C000
000F078000
000F8F8000
0007DF0000
0003FE0000
0003FC0000
0001FC0000
0000000000
0000000000
0000000000
0000000000
0003FE0000
0007FF0000
0007FF0000
0007FF0000
000FFF8000
000FFF8000
000FFF8000
001FFFC000
001FFFC000
003FFFC000
003FDFE000
003FDFE000
007F9FE000
007F8FF000
007F8FF000
00FF0FF000
00FF0FF800
00FF07F800
01FE07F800
01FE07FC00
01FE03FC00
03FC03FC00
03FC03FE00
03FC01FE00
07FC01FE00
07F801FF00
07FFFFFF00
0FFFFFFF00
0FFFFFFF80
1FFFFFFF80
1FFFFFFF80
1FFFFFFFC0
3FFFFFFFC0
3FE0003FC0
3FC0003FE0
7FC0001FE0
7FC0001FF0
7F80001FF0
FF80000FF0
FF00000FF8
FF00000FF8
ENDCHAR
STARTCHAR 01CE
ENCODING 462
SWIDTH 576 0
DWIDTH 32 0
BBX 28 44 2 -1
BITMAP
07803C00
03C07800
03E0F800
01F1F000
00FBE000
007FC000
007F8000
003F8000
00000000
00000000
00000000
00000000
007FE000
03FFFC00
0FFFFE00
1FFFFF00
3FFFFF80
3FFFFF80
7FF9FFC0
7F807FC0
7F803FC0
7F003FC0
7F003FC0
00007FC0
0001FFC0
007FFFC0
07FFFFC0
1FFFFFC0
3FFFFFC0
7FFC3FC0
7FC03FC0
FF803FC0
FF003FC0
FF003FC0
FF007FC0
FF007FC0
FF80FFC0
FFE7FFC0
7FFFFFC0
7FFFFFC0
3FFFBFE0
3FFF3FE0
0FFE1FF0
03F00000
ENDCHAR
STARTCHAR 01CF
ENCODING 463
SWIDTH 252 0
DWIDTH 14 0
BBX 16 54 -1 0
BITMAP
F00F
F81E
7C3E
3C3C
3E7C
1FF8
1FF0
0FF0
07E0
0000
0000
0000
0000
0FF0
0FF0
0FF0
0FF0
0FF0
0FF0
0FF0
0FF0
0FF0
0FF0
0FF0
0FF0
0FF0
0FF0
0FF0
0FF0
0FF0
0FF0
0FF0
0FF0
0FF0
0FF0
0FF0
0FF0
0FF0
0FF0
0FF0
0FF0
0FF0
0FF0
0FF0
0FF0
0FF0
0FF0
0FF0
0FF0
0FF0
0FF0
0FF0
0FF0
0FF0
ENDCHAR
STARTCHAR 01D0
ENCODING 464
SWIDTH 288 0
DWIDTH 16 0
BBX 17 43 -1 0
BITMAP
F80780
7C0F80
3C0F00
3E1E00
1F3E00
0FFC00
0FF800
07F800
07F000
000000
000000
000000
07F800
07F800
07F800
07F800
07F800
07F800
07F800
07F800
07F800
07F800
07F800
07F800
07F800
07F800
07F800
07F800
07F800
07F800
07F800
07F800
07F800
07F800
07F800
07F800
07F800
07F800
07F800
07F800
07F800
07F800
07F800
ENDCHAR
STARTCHAR 01D1
ENCODING 465
SWIDTH 774 0
DWIDTH 43 0
BBX 39 54 2 0
BITMAP
001E01F000
000F03E000
000F87C000
0007CF8000
0003FF0000
0001FF0000
0000FE0000
0000000000
0000000000
0000000000
0000000000
0000000000
0007FFC000
003FFFF000
00FFFFFC00
01FFFFFE00
03FFFFFF80
07FFFFFFC0
0FFFFFFFC0
1FFE00FFE0
1FF8003FF0
3FF0001FF0
3FE0000FF8
7FC00007F8
7FC00007FC
7F800003FC
7F800003FC
FF000003FC
FF000001FC
FF000001FE
FF000001FE
FF000001FE
FF000001FE
FF000001FE
FF000001FE
FF000001FE
FF000001FE
FF000003FC
7F800003FC
7F800003FC
7F800007FC
7FC00007F8
3FC0000FF8
3FE0001FF8
1FF0003FF0
1FFC007FF0
0FFF01FFE0
07FFFFFFC0
03FFFFFF80
01FFFFFF00
00FFFFFE00
003FFFFC00
000FFFF000
0001FF0000
ENDCHAR
STARTCHAR 01D2
ENCODING 466
SWIDTH 612 0
DWIDTH 34 0
BBX 30 44 2 0
BITMAP
03E01E00
01F03E00
00F87C00
0078F800
007DF000
003FF000
001FE000
001FC000
00000000
00000000
00000000
00000000
001FE000
00FFFC00
03FFFF00
07FFFF80
0FFFFFC0
1FFFFFE0
3FFCFFE0
3FE03FF0
7FC00FF0
7F800FF8
7F8007F8
FF0007F8
FF0003F8
FF0003FC
FF0003FC
FF0003FC
FF0003FC
FF0003FC
FF0003FC
FF0003FC
FF0007F8
7F8007F8
7F800FF8
7FC00FF0
3FE01FF0
3FFCFFE0
1FFFFFE0
0FFFFFC0
07FFFF80
03FFFF00
00FFFC00
001FE000
ENDCHAR
STARTCHAR 01D3
ENCODING 467
SWIDTH 720 0
DWIDTH 40 0
BBX 32 55 4 -1
BITMAP
01E00F80
00F01F00
00F81E00
007C3C00
003E7C00
001FF800
001FF000
000FE000
00000000
00000000
00000000
00000000
00000000
FF0000FF
FF0000FF
FF0000FF
FF0000FF
FF0000FF
FF0000FF
FF0000FF
FF0000FF
FF0000FF
FF0000FF
FF0000FF
FF0000FF
FF0000FF
FF0000FF
FF0000FF
FF0000FF
FF0000FF
FF0000FF
FF0000FF
FF0000FF
FF0000FF
FF0000FF
FF0000FF
FF0000FF
FF0000FF
FF0000FF
FF0000FF
FF0000FF
FF0000FF
FF0000FF
FF0000FF
FF0001FE
7F8001FE
7FC003FE
7FF00FFC
3FFFFFFC
1FFFFFF8
1FFFFFF0
07FFFFE0
03FFFFC0
00FFFF00
001FF800
ENDCHAR
STARTCHAR 01D4
ENCODING 468
SWIDTH 612 0
DWIDTH 34 0
BBX 27 44 3 0
BITMAP
07C07C00
03C0F800
01E0F000
01F1E000
00FBE000
007FC000
007F8000
003F8000
00000000
00000000
00000000
00000000
FF001FE0
FF001FE0
FF001FE0
FF001FE0
FF001FE0
FF001FE0
FF001FE0
FF001FE0
FF001FE0
FF001FE0
FF001FE0
FF001FE0
FF001FE0
FF001FE0
FF001FE0
FF001FE0
FF001FE0
FF001FE0
FF001FE0
FF001FE0
FF001FE0
FF001FE0
FF003FE0
FF003FE0
FF807FE0
7FF3FFE0
7FFFFFE0
7FFFFFE0
3FFFDFE0
1FFF9FE0
0FFF1FE0
03FC0000
ENDCHAR
STARTCHAR 01D5
ENCODING 469
SWIDTH 720 0
DWIDTH 40 0
BBX 32 61 4 -1
BITMAP
00FFFF00
00FFFF00
00FFFF00
00FFFF00
00000000
00000000
00000000
00000000
00FC3F00
00FC3F00
00FC3F00
00FC3F00
00FC3F00
00FC3F00
00000000
00000000
00000000
00000000
00000000
FF0000FF
FF0000FF
FF0000FF
FF0000FF
FF0000FF
FF0000FF
FF0000FF
FF0000FF
FF0000FF
FF0000FF
FF0000FF
FF0000FF
FF0000FF
FF0000FF
FF0000FF
FF0000FF
FF0000FF
FF0000FF
FF0000FF
FF0000FF
FF0000FF
FF0000FF
FF0000FF
FF0000FF
FF0000FF
FF0000FF
FF0000FF
FF0000FF
FF0000FF
FF0000FF
FF0000FF
FF0001FE
7F8001FE
7FC003FE
7FF00FFC
3FFFFFFC
1FFFFFF8
1FFFFFF0
07FFFFE0
03FFFFC0
00FFFF00
001FF800
ENDCHAR
STARTCHAR 01D6
ENCODING 470
SWIDTH 612 0
DWIDTH 34 0
BBX 27 51 3 -1
BITMAP
07FFFC00
07FFFC00
07FFFC00
07FFFC00
00000000
00000000
00000000
00000000
07E0FC00
07E0FC00
07E0FC00
07E0FC00
07E0FC00
07E0FC00
00000000
00000000
00000000
00000000
00000000
FF001FE0
FF001FE0
FF001FE0
FF001FE0
FF001FE0
FF001FE0
FF001FE0
FF001FE0
FF001FE0
FF001FE0
FF001FE0
FF001FE0
FF001FE0
FF001FE0
FF001FE0
FF001FE0
FF001FE0
FF001FE0
FF001FE0
FF001FE0
FF001FE0
FF001FE0
FF003FE0
FF003FE0
FF807FE0
7FF3FFE0
7FFFFFE0
7FFFFFE0
3FFFDFE0
1FFF9FE0
0FFF1FE0
03FC0000
ENDCHAR
STARTCHAR 01D7
ENCODING 471
SWIDTH 720 0
DWIDTH 40 0
BBX 32 65 4 -1
BITMAP
00003F00
00007F00
00007E00
0000FC00
0000F800
0001F000
0001E000
0003C000
00000000
00000000
00000000
00000000
00FC3F00
00FC3F00
00FC3F00
00FC3F00
00FC3F00
00FC3F00
00000000
00000000
00000000
00000000
00000000
FF0000FF
FF0000FF
FF0000FF
FF0000FF
FF0000FF
FF0000FF
FF0000FF
FF0000FF
FF0000FF
FF0000FF
FF0000FF
FF0000FF
FF0000FF
FF0000FF
FF0000FF
FF0000FF
FF0000FF
FF0000FF
FF0000FF
FF0000FF
FF0000FF
FF0000FF
FF0000FF
FF0000FF
FF0000FF
FF0000FF
FF0000FF
FF0000FF
FF0000FF
FF0000FF
FF0000FF
FF0001FE
7F8001FE
7FC003FE
7FF00FFC
3FFFFFFC
1FFFFFF8
1FFFFFF0
07FFFFE0
03FFFFC0
00FFFF00
001FF800
ENDCHAR
STARTCHAR 01D8
ENCODING 472
SWIDTH 612 0
DWIDTH 34 0
BBX 27 55 3 -1
BITMAP
0001FC00
0003F800
0003F000
0007E000
0007C000
000F8000
000F0000
001E0000
00000000
00000000
00000000
00000000
07E1F800
07E1F800
07E1F800
07E1F800
07E1F800
07E1F800
00000000
00000000
00000000
00000000
00000000
FF001FE0
FF001FE0
FF001FE0
FF001FE0
FF001FE0
FF001FE0
FF001FE0
FF001FE0
FF001FE0
FF001FE0
FF001FE0
FF001FE0
FF001FE0
FF001FE0
FF001FE0
FF001FE0
FF001FE0
FF001FE0
FF001FE0
FF001FE0
FF001FE0
FF001FE0
FF003FE0
FF003FE0
FF807FE0
7FF3FFE0
7FFFFFE0
7FFFFFE0
3FFFDFE0
1FFF9FE0
0FFF1FE0
03FC0000
ENDCHAR
STARTCHAR 01D9
ENCODING 473
SWIDTH 720 0
DWIDTH 40 0
BBX 32 65 4 -1
BITMAP
00F00F00
00F81F00
00781E00
003C3C00
003E7800
001FF800
000FF000
0007E000
00000000
00000000
00000000
00000000
00FC3F00
00FC3F00
00FC3F00
00FC3F00
00FC3F00
00FC3F00
00000000
00000000
00000000
00000000
00000000
FF0000FF
FF0000FF
FF0000FF
FF0000FF
FF0000FF
FF0000FF
FF0000FF
FF0000FF
FF0000FF
FF0000FF
FF0000FF
FF0000FF
FF0000FF
FF0000FF
FF0000FF
FF0000FF
FF0000FF
FF0000FF
FF0000FF
FF0000FF
FF0000FF
FF0000FF
FF0000FF
FF0000FF
FF0000FF
FF0000FF
FF0000FF
FF0000FF
FF0000FF
FF0000FF
FF0000FF
FF0001FE
7F8001FE
7FC003FE
7FF00FFC
3FFFFFFC
1FFFFFF8
1FFFFFF0
07FFFFE0
03FFFFC0
00FFFF00
001FF800
ENDCHAR
STARTCHAR 01DA
ENCODING 474
SWIDTH 612 0
DWIDTH 34 0
BBX 27 55 3 -1
BITMAP
07807800
07C07800
03E0F000
01F1E000
00F3C000
00FFC000
007F8000
003F0000
00000000
00000000
00000000
00000000
07E1F800
07E1F800
07E1F800
07E1F800
07E1F800
07E1F800
00000000
00000000
00000000
00000000
00000000
FF001FE0
FF001FE0
FF001FE0
FF001FE0
FF001FE0
FF001FE0
FF001FE0
FF001FE0
FF001FE0
FF001FE0
FF001FE0
FF001FE0
FF001FE0
FF001FE0
FF001FE0
FF001FE0
FF001FE0
FF001FE0
FF001FE0
FF001FE0
FF001FE0
FF001FE0
FF003FE0
FF003FE0
FF807FE0
7FF3FFE0
7FFFFFE0
7FFFFFE0
3FFFDFE0
1FFF9FE0
0FFF1FE0
03FC0000
ENDCHAR
STARTCHAR 01DB
ENCODING 475
SWIDTH 720 0
DWIDTH 40 0
BBX 32 65 4 -1
BITMAP
00FC0000
00FE0000
007E0000
003F0000
001F0000
000F8000
00078000
0003C000
00000000
00000000
00000000
00000000
00FC3F00
00FC3F00
00FC3F00
00FC3F00
00FC3F00
00FC3F00
00000000
00000000
00000000
00000000
00000000
FF0000FF
FF0000FF
FF0000FF
FF0000FF
FF0000FF
FF0000FF
FF0000FF
FF0000FF
FF0000FF
FF0000FF
FF0000FF
FF0000FF
FF0000FF
FF0000FF
FF0000FF
FF0000FF
FF0000FF
FF0000FF
FF0000FF
FF0000FF
FF0000FF
FF0000FF
FF0000FF
FF0000FF
FF0000FF
FF0000FF
FF0000FF
FF0000FF
FF0000FF
FF0000FF
FF0000FF
FF0001FE
7F8001FE
7FC003FE
7FF00FFC
3FFFFFFC
1FFFFFF8
1FFFFFF0
07FFFFE0
03FFFFC0
00FFFF00
001FF800
ENDCHAR
STARTCHAR 01DC
ENCODING 476
SWIDTH 612 0
DWIDTH 34 0
BBX 27 55 3 -1
BITMAP
07E00000
07F00000
03F00000
01F80000
00F80000
007C0000
003C0000
001E0000
00000000
00000000
00000000
00000000
07E1F800
07E1F800
07E1F800
07E1F800
07E1F800
07E1F800
00000000
00000000
00000000
00000000
00000000
FF001FE0
FF001FE0
FF001FE0
FF001FE0
FF001FE0
FF001FE0
FF001FE0
FF001FE0
FF001FE0
FF001FE0
FF001FE0
FF001FE0
FF001FE0
FF001FE0
FF001FE0
FF001FE0
FF001FE0
FF001FE0
FF001FE0
FF001FE0
FF001FE0
FF001FE0
FF003FE0
FF003FE0
FF807FE0
7FF3FFE0
7FFFFFE0
7FFFFFE0
3FFFDFE0
1FFF9FE0
0FFF1FE0
03FC0000
ENDCHAR
STARTCHAR 01DD
ENCODING 477
SWIDTH 558 0
DWIDTH 31 0
BBX 28 32 1 -1
BITMAP
003FC000
01FFF800
03FFFC00
0FFFFF00
1FFFFF80
1FFFFF80
3FF1FFC0
7FC03FC0
7F001FE0
FF001FE0
00000FE0
00000FF0
00000FF0
00000FF0
FFFFFFF0
FFFFFFF0
FFFFFFF0
FFFFFFF0
FFFFFFF0
FF000FF0
FF000FF0
7F000FE0
7F001FE0
7F801FE0
3FC03FC0
3FF9FFC0
1FFFFF80
0FFFFF00
07FFFE00
03FFFC00
01FFF800
003FC000
ENDCHAR
STARTCHAR 01DE
ENCODING 478
SWIDTH 720 0
DWIDTH 40 0
BBX 36 60 2 0
BITMAP
003FFFC000
003FFFC000
003FFFC000
003FFFC000
0000000000
0000000000
0000000000
0000000000
003F0FC000
003F0FC000
003F0FC000
003F0FC000
003F0FC000
003F0FC000
0000000000
0000000000
0000000000
0000000000
0000000000
0003FE0000
0007FE0000
0007FE0000
0007FF0000
000FFF0000
000FFF0000
001FFF8000
001FFF8000
001FFF8000
003FFFC000
003FFFC000
003FDFE000
007F9FE000
007F9FE000
007F8FF000
00FF0FF000
00FF0FF000
00FF0FF800
01FE07F800
01FE07F800
01FE07FC00
03FC03FC00
03FC03FC00
03FC03FE00
07F801FE00
07F801FE00
07FFFFFF00
0FFFFFFF00
0FFFFFFF00
1FFFFFFF80
1FFFFFFF80
1FFFFFFF80
3FFFFFFFC0
3FE0007FC0
3FC0003FC0
7FC0003FE0
7FC0003FE0
7F80001FE0
FF80001FF0
FF80001FF0
FF00000FF0
ENDCHAR
STARTCHAR 01DF
ENCODING 479
SWIDTH 576 0
DWIDTH 32 0
BBX 28 51 2 -1
BITMAP
07FFFC00
07FFFC00
07FFFC00
07FFFC00
00000000
00000000
00000000
00000000
07E0FC00
07E0FC00
07E0FC00
07E0FC00
07E0FC00
07E0FC00
00000000
00000000
00000000
00000000
00000000
007FE000
03FFFC00
0FFFFE00
1FFFFF00
3FFFFF80
3FFFFF80
7FF1FFC0
7F807FC0
7F803FC0
7F003FC0
7F003FC0
00007FC0
0001FFC0
00FFFFC0
07FFFFC0
1FFFFFC0
3FFFFFC0
7FFE3FC0
7FC03FC0
FF803FC0
FF003FC0
FF003FC0
FF007FC0
FF007FC0
FF80FFC0
FFE7FFC0
7FFFFFC0
7FFFFFC0
3FFFBFE0
3FFF3FE0
0FFE1FF0
03F00000
ENDCHAR
STARTCHAR 01E0
ENCODING 480
SWIDTH 720 0
DWIDTH 40 0
BBX 38 60 1 0
BITMAP
001FFFF000
001FFFF000
001FFFF000
001FFFF000
0000000000
0000000000
0000000000
0000000000
0000FC0000
0000FC0000
0000FC0000
0000FC0000
0000FC0000
0000FC0000
0000000000
0000000000
0000000000
0000000000
0000000000
0003FF0000
0003FF0000
0003FF8000
0007FF8000
0007FF8000
0007FFC000
000FFFC000
000FFFC000
000FFFE000
001FFFE000
001FFFF000
001FDFF000
003FCFF000
003FCFF800
007F8FF800
007F87F800
007F87FC00
00FF07FC00
00FF03FC00
00FF03FE00
01FE03FE00
01FE01FE00
01FE01FF00
03FE00FF00
03FC00FF00
03FC00FF80
07FFFFFF80
07FFFFFFC0
07FFFFFFC0
0FFFFFFFC0
0FFFFFFFE0
0FFFFFFFE0
1FFFFFFFE0
1FE0001FF0
1FE0001FF0
3FE0000FF0
3FC0000FF8
3FC00007F8
7FC00007F8
7F800007FC
FF800003FC
ENDCHAR
STARTCHAR 01E1
ENCODING 481
SWIDTH 576 0
DWIDTH 32 0
BBX 28 50 2 -1
BITMAP
07FFFC00
07FFFC00
07FFFC00
07FFFC00
00000000
00000000
00000000
00000000
001F8000
001F8000
001F8000
001F8000
001F8000
001F8000
00000000
00000000
00000000
00000000
007FE000
03FFFC00
0FFFFE00
1FFFFF00
3FFFFF80
3FFFFF80
7FF9FFC0
7FC07FC0
7F803FC0
7F003FC0
7F003FC0
00007FC0
0001FFC0
007FFFC0
07FFFFC0
0FFFFFC0
3FFFFFC0
3FFE3FC0
7FC03FC0
7F803FC0
FF003FC0
FF003FC0
FF007FC0
FF007FC0
FF80FFC0
FFF7FFC0
7FFFFFC0
7FFFFFC0
3FFFBFE0
3FFF3FE0
0FFE1FF0
03F00000
ENDCHAR
STARTCHAR 01E2
ENCODING 482
SWIDTH 990 0
DWIDTH 55 0
BBX 53 49 0 0
BITMAP
0000007FFFC000
0000007FFFC000
0000007FFFC000
0000007FFFC000
00000000000000
00000000000000
00000000000000
00000000000000
0001FFFFFFFFF8
0003FFFFFFFFF8
0003FFFFFFFFF8
0007FFFFFFFFF8
0007FFFFFFFFF8
0007FFFFFFFFF8
000FFFFFFFFFF8
000FF0FF000000
000FF0FF000000
001FE0FF000000
001FE0FF000000
001FE0FF000000
003FC0FF000000
003FC0FF000000
003FC0FF000000
007F80FF000000
007F80FFFFFFE0
007F80FFFFFFE0
00FF00FFFFFFE0
00FF00FFFFFFE0
01FF00FFFFFFE0
01FE00FFFFFFE0
01FE00FFFFFFE0
03FC00FF000000
03FC00FF000000
03FFFFFF000000
07FFFFFF000000
07FFFFFF000000
07FFFFFF000000
0FFFFFFF000000
0FFFFFFF000000
0FFFFFFF000000
1FE000FF000000
1FE000FF000000
3FE000FFFFFFF8
3FC000FFFFFFF8
3FC000FFFFFFF8
7FC000FFFFFFF8
7F8000FFFFFFF8
7F8000FFFFFFF8
FF8000FFFFFFF8
ENDCHAR
STARTCHAR 01E3
ENCODING 483
SWIDTH 882 0
DWIDTH 49 0
BBX 46 40 1 -1
BITMAP
0003FFFE0000
0003FFFE0000
0003FFFE0000
0003FFFE0000
000000000000
000000000000
000000000000
000000000000
007FC00FF000
03FFF87FFE00
0FFFFEFFFF00
1FFFFFFFFFC0
3FFFFFFFFFE0
3FFFFFFFFFE0
7FF1FFFE7FF0
7F803FF00FF0
7F803FE007F8
7F003FE007F8
00003FC003FC
0000FFC003FC
0007FFC003FC
00FFFFFFFFFC
07FFFFFFFFFC
1FFFFFFFFFFC
3FFFBFFFFFFC
7FF83FFFFFFC
7FC03FC00000
FF803FC00000
FF003FC00000
FF003FC00000
FF007FE003FC
FF007FE007F8
FF80FFF00FF8
FFE7FFFC7FF0
7FFFF7FFFFF0
7FFFE3FFFFE0
3FFFC1FFFFC0
3FFF80FFFF00
0FFE007FFE00
03F8000FF000
ENDCHAR
STARTCHAR 01E4
ENCODING 484
SWIDTH 774 0
DWIDTH 43 0
BBX 42 42 2 0
BITMAP
0007FFC00000
003FFFF80000
00FFFFFE0000
01FFFFFF0000
03FFFFFF8000
07FFFFFFC000
0FFFFFFFE000
0FFC00FFE000
1FF8003FF000
3FF0001FF000
3FE0000FF000
7FC00007F800
7F800007F800
7F8000000000
7F8000000000
FF0000000000
FF0000000000
FF0000000000
FF0000000000
FF0007FFF800
FF0007FFF800
FF0007FFF800
FF0007FFF800
FF0007FFF800
FF0007FFF800
FF0007FFF800
7F800003F800
7F800003F800
7F8007FFFFC0
7FC007FFFFC0
3FE007FFFFC0
3FE007FFFFC0
1FF007FFFFC0
1FFC003FF800
0FFF01FFF800
07FFFFFFF800
03FFFFFDF800
01FFFFFDF800
00FFFFF8F800
007FFFE0F800
001FFFC0F800
0003FE000000
ENDCHAR
STARTCHAR 01E5
ENCODING 485
SWIDTH 612 0
DWIDTH 34 0
BBX 33 43 2 -12
BITMAP
007E0FF000
03FF8FF000
07FFCFF000
0FFFEFF000
1FFFFFF000
3FFFFFF000
3FF9FFF000
3FE07FF000
7FC03FF000
7F801FF000
7F801FF000
FF000FF000
FF000FF000
FF000FF000
FF000FF000
FF000FF000
FF000FF000
FF000FF000
FF000FF000
FF000FF000
FF000FF000
7F801FF000
7F801FF000
7FC03FF000
7FE07FF000
3FF9FFF000
3FFFFFF000
1FFFFFF000
0FFFFFF000
07FFCFF000
03FF8FF000
00FE0FF000
00000FF000
0003FFFF80
0003FFFF80
FF83FFFF80
FF83FFFF80
7FE07FC000
7FFFFFC000
3FFFFF8000
1FFFFF0000
07FFFC0000
00FFE00000
ENDCHAR
STARTCHAR 01E6
ENCODING 486
SWIDTH 774 0
DWIDTH 43 0
BBX 37 54 2 0
BITMAP
001F01F000
000F83E000
0007C7C000
0007EF8000
0003FF0000
0001FF0000
0000FE0000
0000000000
0000000000
0000000000
0000000000
0000000000
0007FFC000
003FFFF800
007FFFFE00
01FFFFFF00
03FFFFFF80
07FFFFFFC0
0FFFFFFFE0
0FFFEFFFE0
1FFC007FF0
3FF8001FF0
3FE0000FF0
3FE0000FF8
7FC00007F8
7F80000000
7F80000000
FF80000000
FF00000000
FF00000000
FF00000000
FF0007FFF8
FF0007FFF8
FF0007FFF8
FF0007FFF8
FF0007FFF8
FF0007FFF8
FF0007FFF8
7F000003F8
7F800003F8
7F800007F8
7FC00007F8
3FC00007F8
3FE0000FF8
1FF0001FF8
1FFC007FF8
0FFF01FFF8
07FFFFFFF8
03FFFFFDF8
01FFFFFDF8
00FFFFF8F8
003FFFE0F8
001FFFC0F8
0001FE0000
ENDCHAR
STARTCHAR 01E7
ENCODING 487
SWIDTH 612 0
DWIDTH 34 0
BBX 28 55 2 -12
BITMAP
0F00F000
0F81F000
07C1E000
03E3C000
01F7C000
01FF8000
00FF0000
007E0000
00000000
00000000
00000000
00000000
007E0FF0
03FF8FF0
07FFCFF0
0FFFEFF0
1FFFFFF0
3FFFFFF0
3FF9FFF0
3FE07FF0
7FC03FF0
7F801FF0
7F801FF0
FF000FF0
FF000FF0
FF000FF0
FF000FF0
FF000FF0
FF000FF0
FF000FF0
FF000FF0
FF000FF0
FF000FF0
7F801FF0
7F801FF0
7FC03FF0
7FE07FF0
3FF9FFF0
3FFFFFF0
1FFFFFF0
0FFFFFF0
07FFEFF0
03FF8FF0
007E0FF0
00000FF0
00000FF0
00000FF0
FF801FE0
FF803FE0
7FE07FC0
7FFFFFC0
3FFFFF80
1FFFFF00
07FFFC00
00FFE000
ENDCHAR
ENDFONT
